<svg width="18" height="19" viewBox="0 0 18 19" fill="none" xmlns="http://www.w3.org/2000/svg">
<path d="M15.0001 6.5L10.5001 2.555C10.0876 2.18603 9.55352 1.98205 9.00007 1.98205C8.44662 1.98205 7.91259 2.18603 7.50007 2.555L3.00007 6.5C2.76185 6.71306 2.57175 6.97442 2.44243 7.26668C2.3131 7.55895 2.24753 7.87541 2.25007 8.195V14.75C2.25007 15.3467 2.48712 15.919 2.90908 16.341C3.33104 16.7629 3.90333 17 4.50007 17H13.5001C14.0968 17 14.6691 16.7629 15.0911 16.341C15.513 15.919 15.7501 15.3467 15.7501 14.75V8.1875C15.7515 7.86917 15.6855 7.55416 15.5562 7.26326C15.4269 6.97237 15.2373 6.71222 15.0001 6.5V6.5ZM10.5001 15.5H7.50007V11.75C7.50007 11.5511 7.57909 11.3603 7.71974 11.2197C7.86039 11.079 8.05116 11 8.25007 11H9.75007C9.94898 11 10.1397 11.079 10.2804 11.2197C10.4211 11.3603 10.5001 11.5511 10.5001 11.75V15.5ZM14.2501 14.75C14.2501 14.9489 14.1711 15.1397 14.0304 15.2803C13.8897 15.421 13.699 15.5 13.5001 15.5H12.0001V11.75C12.0001 11.1533 11.763 10.581 11.3411 10.159C10.9191 9.73705 10.3468 9.5 9.75007 9.5H8.25007C7.65333 9.5 7.08104 9.73705 6.65908 10.159C6.23712 10.581 6.00007 11.1533 6.00007 11.75V15.5H4.50007C4.30116 15.5 4.11039 15.421 3.96974 15.2803C3.82909 15.1397 3.75007 14.9489 3.75007 14.75V8.1875C3.75021 8.08101 3.77302 7.97577 3.81698 7.87879C3.86095 7.7818 3.92507 7.69528 4.00507 7.625L8.50507 3.6875C8.64194 3.56726 8.81789 3.50095 9.00007 3.50095C9.18225 3.50095 9.3582 3.56726 9.49507 3.6875L13.9951 7.625C14.0751 7.69528 14.1392 7.7818 14.1832 7.87879C14.2271 7.97577 14.2499 8.08101 14.2501 8.1875V14.75Z" fill="white"/>
</svg>
