<svg width="18" height="19" viewBox="0 0 18 19" fill="none" xmlns="http://www.w3.org/2000/svg">
<path d="M15 9.5C15 9.30109 14.921 9.11032 14.7803 8.96967C14.6397 8.82902 14.4489 8.75 14.25 8.75H8.5575L10.2825 7.0325C10.3524 6.96257 10.4079 6.87955 10.4457 6.78819C10.4836 6.69682 10.5031 6.59889 10.5031 6.5C10.5031 6.40111 10.4836 6.30318 10.4457 6.21181C10.4079 6.12045 10.3524 6.03743 10.2825 5.9675C10.2126 5.89757 10.1296 5.8421 10.0382 5.80426C9.94682 5.76641 9.84889 5.74693 9.75 5.74693C9.65111 5.74693 9.55318 5.76641 9.46181 5.80426C9.37045 5.8421 9.28743 5.89757 9.2175 5.9675L6.2175 8.9675C6.14922 9.03883 6.0957 9.12294 6.06 9.215C5.98499 9.3976 5.98499 9.6024 6.06 9.785C6.0957 9.87706 6.14922 9.96117 6.2175 10.0325L9.2175 13.0325C9.28722 13.1028 9.37017 13.1586 9.46157 13.1967C9.55296 13.2347 9.65099 13.2543 9.75 13.2543C9.84901 13.2543 9.94704 13.2347 10.0384 13.1967C10.1298 13.1586 10.2128 13.1028 10.2825 13.0325C10.3528 12.9628 10.4086 12.8798 10.4467 12.7884C10.4847 12.697 10.5043 12.599 10.5043 12.5C10.5043 12.401 10.4847 12.303 10.4467 12.2116C10.4086 12.1202 10.3528 12.0372 10.2825 11.9675L8.5575 10.25H14.25C14.4489 10.25 14.6397 10.171 14.7803 10.0303C14.921 9.88968 15 9.69891 15 9.5ZM12.75 2H5.25C4.65326 2 4.08097 2.23705 3.65901 2.65901C3.23705 3.08097 3 3.65326 3 4.25V14.75C3 15.3467 3.23705 15.919 3.65901 16.341C4.08097 16.7629 4.65326 17 5.25 17H12.75C13.3467 17 13.919 16.7629 14.341 16.341C14.7629 15.919 15 15.3467 15 14.75V12.5C15 12.3011 14.921 12.1103 14.7803 11.9697C14.6397 11.829 14.4489 11.75 14.25 11.75C14.0511 11.75 13.8603 11.829 13.7197 11.9697C13.579 12.1103 13.5 12.3011 13.5 12.5V14.75C13.5 14.9489 13.421 15.1397 13.2803 15.2803C13.1397 15.421 12.9489 15.5 12.75 15.5H5.25C5.05109 15.5 4.86032 15.421 4.71967 15.2803C4.57902 15.1397 4.5 14.9489 4.5 14.75V4.25C4.5 4.05109 4.57902 3.86032 4.71967 3.71967C4.86032 3.57902 5.05109 3.5 5.25 3.5H12.75C12.9489 3.5 13.1397 3.57902 13.2803 3.71967C13.421 3.86032 13.5 4.05109 13.5 4.25V6.5C13.5 6.69891 13.579 6.88968 13.7197 7.03033C13.8603 7.17098 14.0511 7.25 14.25 7.25C14.4489 7.25 14.6397 7.17098 14.7803 7.03033C14.921 6.88968 15 6.69891 15 6.5V4.25C15 3.65326 14.7629 3.08097 14.341 2.65901C13.919 2.23705 13.3467 2 12.75 2Z" fill="white"/>
</svg>
