<svg width="18" height="19" viewBox="0 0 18 19" fill="none" xmlns="http://www.w3.org/2000/svg">
<path d="M9.4425 10.25L7.7175 11.9675C7.6472 12.0372 7.59141 12.1202 7.55333 12.2116C7.51526 12.303 7.49565 12.401 7.49565 12.5C7.49565 12.599 7.51526 12.697 7.55333 12.7884C7.59141 12.8798 7.6472 12.9628 7.7175 13.0325C7.78722 13.1028 7.87017 13.1586 7.96157 13.1967C8.05296 13.2347 8.15099 13.2543 8.25 13.2543C8.34901 13.2543 8.44704 13.2347 8.53843 13.1967C8.62983 13.1586 8.71278 13.1028 8.7825 13.0325L11.7825 10.0325C11.8508 9.96117 11.9043 9.87706 11.94 9.785C12.015 9.6024 12.015 9.39759 11.94 9.215C11.9043 9.12294 11.8508 9.03883 11.7825 8.9675L8.7825 5.9675C8.71257 5.89757 8.62955 5.8421 8.53819 5.80425C8.44682 5.76641 8.34889 5.74693 8.25 5.74693C8.15111 5.74693 8.05318 5.76641 7.96181 5.80425C7.87045 5.8421 7.78743 5.89757 7.7175 5.9675C7.64757 6.03743 7.5921 6.12045 7.55426 6.21181C7.51641 6.30318 7.49693 6.4011 7.49693 6.5C7.49693 6.59889 7.51641 6.69682 7.55426 6.78819C7.5921 6.87955 7.64757 6.96257 7.7175 7.0325L9.4425 8.75H2.25C2.05109 8.75 1.86032 8.82902 1.71967 8.96967C1.57902 9.11032 1.5 9.30109 1.5 9.5C1.5 9.69891 1.57902 9.88968 1.71967 10.0303C1.86032 10.171 2.05109 10.25 2.25 10.25H9.4425ZM9 2C7.59832 1.99374 6.22293 2.38041 5.02985 3.11614C3.83677 3.85188 2.87374 4.90723 2.25 6.1625C2.16049 6.34152 2.14576 6.54877 2.20905 6.73865C2.27235 6.92853 2.40848 7.08549 2.5875 7.175C2.76652 7.26451 2.97377 7.27924 3.16365 7.21594C3.35353 7.15265 3.51049 7.01652 3.6 6.8375C4.07414 5.87999 4.79537 5.06646 5.68916 4.48099C6.58295 3.89552 7.61687 3.55934 8.68407 3.50719C9.75127 3.45505 10.813 3.68883 11.7596 4.18438C12.7062 4.67993 13.5034 5.41927 14.0686 6.326C14.6338 7.23272 14.9467 8.27393 14.9748 9.34204C15.0029 10.4101 14.7453 11.4664 14.2286 12.4016C13.7119 13.3368 12.9549 14.1171 12.0357 14.6618C11.1164 15.2065 10.0685 15.4959 9 15.5C7.88166 15.5048 6.78462 15.1943 5.83477 14.6039C4.88492 14.0136 4.12077 13.1674 3.63 12.1625C3.54049 11.9835 3.38353 11.8473 3.19365 11.7841C3.00377 11.7208 2.79652 11.7355 2.6175 11.825C2.43848 11.9145 2.30235 12.0715 2.23905 12.2614C2.17576 12.4512 2.19049 12.6585 2.28 12.8375C2.87462 14.0341 3.77814 15.0502 4.8971 15.7805C6.01607 16.5109 7.30984 16.929 8.64459 16.9917C9.97935 17.0544 11.3066 16.7594 12.4891 16.1371C13.6716 15.5149 14.6664 14.588 15.3706 13.4524C16.0747 12.3167 16.4627 11.0136 16.4944 9.67775C16.526 8.3419 16.2002 7.02184 15.5507 5.85412C14.9011 4.6864 13.9514 3.71342 12.7997 3.03583C11.648 2.35823 10.3362 2.00063 9 2V2Z" fill="white"/>
</svg>
