<svg width="231" height="70" viewBox="0 0 231 70" fill="none" xmlns="http://www.w3.org/2000/svg">
<path d="M56.4106 26.2311C56.2317 27.3045 56.0528 28.3778 55.8142 29.3915C55.5757 30.286 55.4565 31.2401 54.9198 32.0153C54.7409 31.7768 54.8005 31.4786 54.9198 31.1805C55.3968 29.5704 55.7546 27.9604 55.9335 26.2908C55.9335 26.0522 55.9335 25.8733 56.172 25.7541C56.2317 25.7541 56.3509 25.7541 56.4106 25.7541V26.1715V26.2311Z" fill="white"/>
<path d="M56.4108 25.7541C56.4108 25.7541 56.2915 25.7541 56.2319 25.7541C55.8741 25.277 56.1126 24.6807 55.9933 24.2037C55.8741 23.3688 55.8145 22.5937 55.5759 21.7588C55.5163 21.4607 55.397 21.2221 55.5759 20.924C56.053 21.5799 55.9933 22.3551 56.1722 23.0707C56.1722 23.2496 56.1722 23.4285 56.2915 23.6074V25.7541H56.4108Z" fill="white"/>
<path d="M55.6952 20.9836C56.1126 22.534 56.2915 24.144 56.2915 25.8137C56.053 27.9604 55.5759 29.9879 54.9796 32.0749C54.0255 34.639 52.8926 37.0243 51.1036 39.1113C48.5395 42.1525 45.2598 43.8818 41.2646 44.2992C38.5216 44.5974 35.9575 44.2992 33.5126 42.9873C32.8567 42.6892 32.3796 42.2121 31.7237 41.6755C31.3659 43.3451 31.0081 44.9551 30.6503 46.5652C30.054 49.2485 29.5173 51.8723 28.921 54.5557C28.5632 56.1061 27.4303 57.1198 25.9395 57.0602C24.568 57.0602 23.7928 56.1061 24.0313 54.7942C24.6276 51.753 25.2836 48.7119 25.9395 45.6707C27.9669 36.2491 29.9944 26.7678 32.0218 17.3462C32.32 16.0939 32.9163 15.1995 34.1685 14.782C34.9437 14.4839 35.7786 14.5435 36.4345 15.1398C37.0904 15.6765 37.0904 16.3921 36.9115 17.1673C36.3749 19.6121 35.8978 21.9973 35.3611 24.4422C34.5263 28.2586 33.7511 32.0749 32.9163 35.8913C32.797 36.3087 32.9163 36.6665 33.2144 37.0243C35.1823 39.4095 37.7464 40.3636 40.7875 39.9462C45.1406 39.4095 47.8836 36.7857 49.6129 32.9098C50.6862 30.5245 51.3422 28.02 51.044 25.3367C50.7458 22.057 48.7184 19.6121 45.7369 19.0754C44.5443 18.8369 43.292 19.0158 42.0994 19.2543C41.6224 19.314 41.2049 19.4929 40.7279 19.4929C39.9527 19.4929 39.2968 19.314 38.939 18.5984C38.5812 17.8828 38.8197 17.2269 39.2968 16.6306C39.8931 15.7958 40.7875 15.3187 41.7416 15.0802C45.3791 14.0665 48.8973 14.305 52.177 16.3921C53.9659 17.5847 55.0393 19.314 55.7548 21.2818L55.6952 20.9836Z" fill="white"/>
<path d="M31.0676 0.112904C31.485 -0.00635716 31.8428 -0.0659878 32.2005 0.112904C33.5124 0.768841 33.8106 1.24589 33.5124 2.67702C32.3794 7.92452 31.2465 13.2316 30.1135 18.4791C28.742 24.8 27.4301 31.1805 26.0586 37.5013C25.8201 38.6343 25.7604 39.7673 25.1641 40.8406C24.5678 41.914 23.1367 42.5699 22.0037 42.2718C21.1093 42.0332 20.5726 41.258 20.6918 40.3039C21.1092 37.7398 21.7652 35.1757 22.3019 32.6712C23.0771 28.9741 23.8523 25.3367 24.6871 21.6396C24.7467 21.3414 24.6871 21.1029 24.5678 20.8047C23.3752 18.7773 21.7056 17.4058 19.2607 17.1673C15.8021 16.7498 12.9399 17.9425 10.5546 20.2681C8.52718 22.2359 7.45383 24.7404 6.97679 27.4834C6.619 29.4512 6.619 31.419 7.27494 33.3272C7.99051 35.4739 10.0776 36.905 12.3435 37.2032C13.9536 37.382 15.4443 37.0243 16.9351 36.7857C17.7103 36.6665 18.5451 36.9646 18.8433 37.5013C19.1414 38.0976 18.9625 38.7535 18.3662 39.4095C17.5314 40.3636 16.3388 40.6617 15.2058 40.9002C12.4628 41.4966 9.7198 41.4966 7.09605 40.3636C4.35304 39.171 2.62375 37.0839 1.96781 34.162C0.894462 29.2723 2.14671 24.7404 4.71083 20.5662C6.49974 17.5847 9.06386 15.3187 12.2243 13.8279C13.8343 13.0527 15.5636 12.6353 17.4121 12.5161C19.6185 12.3968 21.6459 12.8142 23.4945 14.0068C23.733 14.1857 23.9715 14.3646 24.21 14.6031C24.6871 15.0802 25.1641 15.5572 25.7604 16.1535C26.0586 14.7224 26.3567 13.4105 26.6549 12.0987C27.3108 8.93823 28.0264 5.77781 28.6823 2.67702C28.9805 1.30552 29.8153 0.589948 31.0676 0.172534V0.112904Z" fill="white"/>
<path d="M3.33931 67.6744C3.33931 67.9129 3.33932 68.2111 3.22005 68.4496C3.16042 68.6881 3.04116 68.9267 2.9219 69.1652C2.80264 69.3441 2.62375 69.523 2.38523 69.6422C2.1467 69.7615 1.90818 69.8211 1.61003 69.8211H0.596306C0.536676 69.8211 0.417414 69.8211 0.298153 69.8211C0.178892 69.8211 0.0596306 69.8211 0 69.8211C0 69.8211 0 69.8211 0 69.7615C0 69.6422 0 69.6422 0 69.5826C0.119261 69.5826 0.178893 69.5826 0.238523 69.4633C0.238523 69.4633 0.298153 69.3441 0.298153 69.2844V65.9451C0.298153 65.8855 0.298154 65.7662 0.238523 65.7662C0.178893 65.7662 0.119261 65.7066 0 65.647C0 65.647 0 65.647 0 65.5873C0 65.5277 0 65.4681 0 65.4681C0.0596306 65.4681 0.119259 65.4681 0.178889 65.4681C0.178889 65.4681 0.298152 65.4681 0.357783 65.4681H0.477042H1.61003C1.90818 65.4681 2.1467 65.4681 2.3256 65.647C2.56412 65.7662 2.74301 65.9451 2.86227 66.124C2.98153 66.3029 3.10079 66.5414 3.16042 66.8396C3.22005 67.0781 3.27968 67.3763 3.27968 67.6744H3.33931ZM2.68338 67.7937C2.68338 67.4359 2.68338 67.1377 2.62375 66.8992C2.62375 66.6607 2.50449 66.4222 2.38523 66.3029C2.26596 66.1837 2.1467 66.0048 1.96781 65.9451C1.78892 65.8855 1.61002 65.8259 1.3715 65.8259H1.07335V69.2248C1.07335 69.2248 1.07335 69.2844 1.07335 69.3441C1.07335 69.3441 1.07335 69.3441 1.07335 69.4037C1.07335 69.4037 1.13298 69.4037 1.19261 69.4037C1.19261 69.4037 1.31187 69.4037 1.43114 69.4037C1.84855 69.4037 2.1467 69.2248 2.38523 68.9267C2.56412 68.6285 2.68338 68.2111 2.68338 67.6744V67.7937Z" fill="white"/>
<path d="M11.1509 69.3441C11.1509 69.3441 11.1509 69.4037 11.1509 69.4633C11.1509 69.4633 11.1509 69.4633 11.1509 69.523C11.1509 69.523 11.1509 69.523 11.2702 69.523C11.2702 69.523 11.3894 69.523 11.4491 69.523C11.4491 69.523 11.4491 69.523 11.4491 69.6422C11.4491 69.7615 11.4491 69.6422 11.4491 69.7019C11.4491 69.7019 11.4491 69.7019 11.4491 69.7615C11.3298 69.7615 11.2106 69.7615 11.0913 69.7615C10.972 69.7615 10.8528 69.7615 10.7931 69.7615C10.7335 69.7615 10.6143 69.7615 10.495 69.7615C10.3757 69.7615 10.2565 69.7615 10.1372 69.7615C10.1372 69.7615 10.1372 69.7615 10.1372 69.7019C10.1372 69.5826 10.1372 69.523 10.1372 69.523C10.1968 69.523 10.2565 69.523 10.3161 69.523C10.3161 69.523 10.3757 69.523 10.4354 69.523C10.4354 69.523 10.4354 69.523 10.4354 69.4633C10.4354 69.4633 10.4354 69.4037 10.4354 69.3441V66.0048C10.4354 66.0048 10.4354 65.9451 10.4354 65.8855C10.4354 65.8855 10.4354 65.8855 10.4354 65.8259C10.4354 65.8259 10.4354 65.8259 10.3161 65.8259C10.3161 65.8259 10.1968 65.8259 10.1372 65.8259C10.1372 65.8259 10.1372 65.8259 10.1372 65.7066C10.1372 65.647 10.1372 65.5873 10.1372 65.5873C10.2565 65.5873 10.3757 65.5873 10.495 65.5873C10.6143 65.5873 10.7335 65.5873 10.7931 65.5873C10.8528 65.5873 10.972 65.5873 11.0913 65.5873C11.2106 65.5873 11.3298 65.5873 11.4491 65.5873C11.4491 65.5873 11.4491 65.5873 11.4491 65.647C11.4491 65.647 11.4491 65.647 11.4491 65.7066C11.4491 65.7662 11.4491 65.8259 11.4491 65.8259C11.3894 65.8259 11.3298 65.8259 11.2702 65.8259C11.2702 65.8259 11.2106 65.8259 11.1509 65.8259C11.1509 65.8259 11.1509 65.8259 11.1509 65.8855C11.1509 65.9451 11.1509 65.9451 11.1509 66.0048V69.3441Z" fill="white"/>
<path d="M19.2606 68.0322V69.2844C19.2606 69.4037 19.2606 69.4633 19.3799 69.523C19.4395 69.523 19.5588 69.5826 19.678 69.6422C19.678 69.6422 19.7377 69.6422 19.7377 69.7615C19.7377 69.8807 19.7377 69.8211 19.7377 69.8808C19.6184 69.8808 19.4991 69.8808 19.3799 69.8808C19.2606 69.8808 19.0817 69.8808 18.9028 69.8808C18.7239 69.8808 18.6643 69.8808 18.545 69.8808C18.4258 69.8808 18.3065 69.8808 18.2469 69.8808C18.2469 69.8808 18.2469 69.8808 18.2469 69.8211C18.2469 69.7019 18.2469 69.6422 18.2469 69.6422C18.3065 69.6422 18.3661 69.6422 18.4258 69.6422C18.4258 69.6422 18.4854 69.6422 18.545 69.6422C18.545 69.6422 18.545 69.6422 18.545 69.5826C18.545 69.5826 18.545 69.523 18.545 69.4633V66.124C18.545 66.0644 18.545 65.9451 18.4854 65.9451C18.4854 65.9451 18.3661 65.8855 18.1873 65.8259C18.1873 65.8259 18.1873 65.8259 18.1873 65.7066C18.1873 65.647 18.1873 65.5873 18.1873 65.5873C18.3065 65.5873 18.3661 65.5873 18.4854 65.5873C18.6047 65.5873 18.7239 65.5873 18.7836 65.5873H19.4991C19.8569 65.5873 20.0954 65.7066 20.334 65.8855C20.5725 66.0644 20.6321 66.4222 20.6321 66.78C20.6321 67.1377 20.6321 67.1377 20.5725 67.257C20.5725 67.4359 20.4532 67.5552 20.334 67.6744C20.2147 67.7937 20.0954 67.9129 19.9762 67.9726C19.8569 68.0322 19.678 68.0918 19.4991 68.0918H19.1413L19.2606 68.0322ZM19.4395 67.6744C19.6184 67.6744 19.7973 67.6148 19.9165 67.4955C20.0358 67.3763 20.0954 67.1377 20.0954 66.78C20.0954 66.4222 20.0954 66.2433 19.9762 66.0644C19.8569 65.8855 19.678 65.8259 19.4395 65.8259H19.3202V67.6744H19.4395Z" fill="white"/>
<path d="M28.5631 68.0322V69.2844C28.5631 69.4037 28.5631 69.4633 28.6824 69.523C28.742 69.523 28.8613 69.5826 28.9805 69.6422C28.9805 69.6422 29.0401 69.6422 29.0401 69.7615C29.0401 69.8807 29.0401 69.8211 29.0401 69.8808C28.9209 69.8808 28.8016 69.8808 28.6824 69.8808C28.5631 69.8808 28.3842 69.8808 28.2053 69.8808C28.0264 69.8808 27.9668 69.8808 27.8475 69.8808C27.7283 69.8808 27.609 69.8808 27.5494 69.8808C27.5494 69.8808 27.5494 69.8808 27.5494 69.8211C27.5494 69.7019 27.5494 69.6422 27.5494 69.6422C27.609 69.6422 27.6686 69.6422 27.7283 69.6422C27.7283 69.6422 27.7879 69.6422 27.8475 69.6422C27.8475 69.6422 27.8475 69.6422 27.8475 69.5826C27.8475 69.5826 27.8475 69.523 27.8475 69.4633V66.124C27.8475 66.0644 27.8475 65.9451 27.7879 65.9451C27.7879 65.9451 27.6686 65.8855 27.4897 65.8259C27.4897 65.8259 27.4897 65.8259 27.4897 65.7066C27.4897 65.647 27.4897 65.5873 27.4897 65.5873C27.609 65.5873 27.6686 65.5873 27.7879 65.5873C27.9072 65.5873 28.0264 65.5873 28.0861 65.5873H28.8016C29.1594 65.5873 29.3979 65.7066 29.6365 65.8855C29.875 66.0644 29.9346 66.4222 29.9346 66.78C29.9346 67.1377 29.9346 67.1377 29.875 67.257C29.875 67.4359 29.7557 67.5552 29.6365 67.6744C29.5172 67.7937 29.3979 67.9129 29.2787 67.9726C29.1594 68.0322 28.9805 68.0918 28.8016 68.0918H28.4438L28.5631 68.0322ZM28.742 67.6744C28.9209 67.6744 29.0998 67.6148 29.219 67.4955C29.3383 67.3763 29.3979 67.1377 29.3979 66.78C29.3979 66.4222 29.3979 66.2433 29.2787 66.0644C29.1594 65.8855 28.9805 65.8259 28.742 65.8259H28.6227V67.6744H28.742Z" fill="white"/>
<path d="M37.8655 69.2844C37.8655 69.4037 37.8655 69.4633 37.9848 69.4633C38.0444 69.4633 38.2233 69.4633 38.4022 69.4633H38.5811C38.6407 69.4633 38.76 69.4633 38.8196 69.4633C38.8792 69.4633 38.9389 69.4037 38.9985 69.3441C38.9985 69.3441 39.0581 69.2248 39.1178 69.1055C39.1178 68.9863 39.1774 68.9267 39.237 68.7478C39.237 68.7478 39.237 68.7478 39.2967 68.7478C39.2967 68.7478 39.2967 68.7478 39.3563 68.7478C39.3563 68.867 39.3563 69.0459 39.2967 69.2248C39.2967 69.4037 39.2967 69.5826 39.2967 69.7019C39.2967 69.7019 39.2967 69.7615 39.2967 69.8211C39.2967 69.8211 39.237 69.8211 39.1774 69.8211C39.1774 69.8211 39.0581 69.8211 38.9985 69.8211C38.9985 69.8211 38.8792 69.8211 38.8196 69.8211C38.8196 69.8211 38.7004 69.8211 38.6407 69.8211H37.5077C37.3885 69.8211 37.3289 69.8211 37.2096 69.8211C37.0903 69.8211 36.9711 69.8211 36.8518 69.8211C36.8518 69.8211 36.8518 69.8211 36.8518 69.7615C36.8518 69.6422 36.8518 69.5826 36.8518 69.5826C36.9711 69.5826 37.0903 69.523 37.0903 69.4633C37.0903 69.4633 37.15 69.3441 37.15 69.2844V65.9451C37.15 65.9451 37.15 65.8855 37.15 65.8259C37.15 65.8259 37.15 65.8259 37.15 65.7662C37.15 65.7662 37.15 65.7662 37.0307 65.7662C37.0307 65.7662 36.9114 65.7662 36.8518 65.7662C36.8518 65.7662 36.8518 65.7662 36.8518 65.647C36.8518 65.5873 36.8518 65.5277 36.8518 65.5277C36.9711 65.5277 37.0903 65.5277 37.2096 65.5277C37.3289 65.5277 37.4481 65.5277 37.5077 65.5277C37.5674 65.5277 37.627 65.5277 37.6866 65.5277C37.6866 65.5277 37.8059 65.5277 37.8655 65.5277C37.9252 65.5277 37.9848 65.5277 38.0444 65.5277C38.104 65.5277 38.1637 65.5277 38.2233 65.5277C38.2233 65.5277 38.2233 65.5277 38.2233 65.5873C38.2233 65.5873 38.2233 65.5873 38.2233 65.647C38.2233 65.7066 38.2233 65.7662 38.2233 65.7662C38.1041 65.7662 37.9848 65.8259 37.9252 65.8855C37.9252 65.8855 37.8655 66.0048 37.8655 66.0644V69.3441V69.2844Z" fill="white"/>
<path d="M48.778 68.2111C48.778 68.4496 48.778 68.6881 48.778 68.9267C48.778 69.1652 48.6587 69.3441 48.5991 69.4633C48.4798 69.6422 48.3606 69.7615 48.1817 69.8211C48.0028 69.8807 47.8239 69.9404 47.5854 69.9404C47.3468 69.9404 47.0487 69.9404 46.8698 69.8211C46.6909 69.7615 46.5716 69.5826 46.4524 69.4633C46.3331 69.3441 46.2735 69.1055 46.2735 68.9267C46.2735 68.7478 46.2735 68.5092 46.2735 68.2707V66.0644C46.2735 65.9451 46.2735 65.8855 46.2139 65.8855C46.1542 65.8855 46.0946 65.8259 45.9753 65.7662C45.9753 65.7662 45.9753 65.7662 45.9753 65.647C45.9753 65.5873 45.9753 65.5277 45.9753 65.5277C46.0946 65.5277 46.1542 65.5277 46.2735 65.5277C46.3928 65.5277 46.512 65.5277 46.6313 65.5277C46.7505 65.5277 46.8698 65.5277 46.9891 65.5277C47.1083 65.5277 47.2276 65.5277 47.3468 65.5277C47.3468 65.5277 47.3468 65.5277 47.3468 65.5873C47.3468 65.647 47.3468 65.7066 47.3468 65.7066C47.2276 65.7066 47.1083 65.7066 47.0487 65.8259C47.0487 65.8259 46.9891 65.9451 46.9891 66.0048V68.0918C46.9891 68.5689 47.0487 68.9267 47.168 69.1652C47.2872 69.4037 47.5257 69.523 47.8239 69.523C48.122 69.523 48.3606 69.4037 48.4798 69.1652C48.5991 68.9267 48.6587 68.5689 48.6587 68.0918V66.0644C48.6587 66.0048 48.6587 65.8855 48.5991 65.8855C48.5395 65.8855 48.4798 65.8259 48.3606 65.7662C48.3606 65.7662 48.3606 65.7662 48.3606 65.647C48.3606 65.647 48.3606 65.647 48.3606 65.5873C48.4798 65.5873 48.5395 65.5873 48.5991 65.5873C48.6587 65.5873 48.778 65.5873 48.8376 65.5873C48.8972 65.5873 49.0165 65.5873 49.1358 65.5873C49.1954 65.5873 49.3147 65.5873 49.3743 65.5873C49.3743 65.5873 49.3743 65.5873 49.3743 65.647C49.3743 65.7066 49.3743 65.7662 49.3743 65.7662C49.255 65.7662 49.1954 65.7662 49.1358 65.8855C49.1358 65.8855 49.0761 66.0048 49.0761 66.0644V68.2707L48.778 68.2111Z" fill="white"/>
<path d="M57.8416 66.6011C57.8416 66.6011 57.782 66.6011 57.7224 66.6011C57.6628 66.6011 57.6628 66.6011 57.6031 66.6011C57.6031 66.6011 57.6031 66.6011 57.6031 66.5414C57.5435 66.3029 57.4242 66.124 57.305 66.0048C57.1857 65.8855 57.0068 65.8259 56.8279 65.8259C56.649 65.8259 56.5298 65.8259 56.4105 66.0048C56.2912 66.124 56.2316 66.2433 56.2316 66.4818C56.2316 66.7203 56.2316 66.78 56.3509 66.8992C56.4105 67.0185 56.5298 67.0781 56.649 67.1377C56.7683 67.1974 56.8876 67.257 57.0664 67.3763C57.1857 67.4359 57.3646 67.5552 57.4839 67.6148C57.6031 67.734 57.7224 67.8533 57.782 68.0322C57.8416 68.2111 57.9013 68.39 57.9013 68.6881C57.9013 68.9863 57.9013 69.0459 57.8416 69.1652C57.8416 69.3441 57.7224 69.4633 57.6628 69.5826C57.5435 69.7019 57.4839 69.8211 57.305 69.8807C57.1857 69.9404 57.0068 70 56.7683 70C56.5298 70 56.3509 70 56.172 69.8807C55.9931 69.8211 55.8738 69.7615 55.7546 69.7019C55.7546 69.523 55.7546 69.3441 55.7546 69.1652C55.7546 68.9863 55.7546 68.8074 55.6949 68.6285C55.6949 68.6285 55.7546 68.6285 55.8142 68.6285C55.8738 68.6285 55.8738 68.6285 55.8738 68.6285C55.8738 68.6285 55.8738 68.6285 55.8738 68.7478C55.8738 68.9267 55.9931 69.0459 55.9931 69.1652C55.9931 69.2844 56.1124 69.4037 56.172 69.4633C56.2316 69.523 56.2912 69.5826 56.4105 69.6422C56.5298 69.6422 56.5894 69.6422 56.7087 69.6422C56.8279 69.6422 56.8876 69.6422 56.9472 69.6422C57.0068 69.6422 57.0664 69.5826 57.1261 69.4633C57.1261 69.4037 57.1857 69.3441 57.2453 69.2248C57.305 69.1055 57.2453 69.0459 57.2453 68.9863C57.2453 68.8074 57.2453 68.6285 57.1261 68.5092C57.0068 68.39 56.9472 68.3304 56.8279 68.2111C56.7087 68.1515 56.5894 68.0918 56.4105 68.0322C56.2316 67.9726 56.1124 67.9129 55.9931 67.7937C55.8738 67.6744 55.7546 67.5552 55.6949 67.4359C55.6353 67.257 55.5757 67.0781 55.5757 66.78C55.5757 66.4818 55.5757 66.4222 55.6353 66.3029C55.6353 66.124 55.7546 66.0048 55.8738 65.8855C55.9931 65.7662 56.0527 65.7066 56.2316 65.5873C56.3509 65.5277 56.5298 65.4681 56.649 65.4681C56.7683 65.4681 56.9472 65.4681 57.0664 65.5277C57.1857 65.5873 57.3646 65.647 57.5435 65.7066C57.5435 65.8259 57.5435 66.0048 57.5435 66.1836C57.5435 66.3625 57.5435 66.4818 57.5435 66.6607L57.8416 66.6011Z" fill="white"/>
<path d="M80.2627 24.8V38.038H76.6252V24.2633C76.6252 22.5936 77.6986 21.4607 79.4279 21.4607H92.7851V37.9784H89.1477V24.7404H86.5239V37.9784H82.9461V24.7404H80.3223L80.2627 24.8Z" fill="white"/>
<path d="M99.1657 21.5203V38.038H95.3494V21.5203H99.1657Z" fill="white"/>
<path d="M101.67 35.295V24.3229C101.67 22.6533 102.744 21.5203 104.473 21.5203H112.821L110.376 24.8596H105.546V34.7583H111.986V38.0976H104.532C102.803 38.0976 101.73 37.0243 101.73 35.3546L101.67 35.295Z" fill="white"/>
<path d="M113.954 21.5203H125.164L122.72 24.8596H117.711V27.9604H123.077V31.0612H117.711V34.8179H124.27V38.1572H113.954V21.6396V21.5203Z" fill="white"/>
<path d="M137.866 31.2997H130.889V24.3229C130.889 22.6533 131.963 21.5203 133.692 21.5203H142.338L139.893 24.8596H134.706V28.1393H141.682V35.295C141.682 36.9646 140.609 38.038 138.88 38.038H130.889V34.6987H137.866V31.2401V31.2997Z" fill="white"/>
<path d="M143.888 35.295V24.3229C143.888 22.6533 144.962 21.5203 146.691 21.5203H153.191C154.92 21.5203 155.993 22.5936 155.993 24.3229V35.295C155.993 36.9646 154.92 38.038 153.191 38.038H146.691C144.962 38.038 143.888 36.9646 143.888 35.295ZM152.237 34.6987V24.8H147.645V34.6987H152.237Z" fill="white"/>
<path d="M158.438 21.5203H162.195V34.6987H169.172L166.667 38.038H158.379V21.5203H158.438Z" fill="white"/>
<path d="M170.245 35.2353V21.4607H173.942V34.6987H178.534V21.4607H182.231V37.9784H173.048C171.318 37.9784 170.245 36.905 170.245 35.1757V35.2353Z" fill="white"/>
<path d="M183.781 24.8596V21.4607H197.079L194.634 24.8596H191.712V38.038H187.896V24.8596H183.781Z" fill="white"/>
<path d="M201.909 21.5203V38.038H198.093V21.5203H201.909Z" fill="white"/>
<path d="M204.414 35.295V24.3229C204.414 22.6533 205.487 21.5203 207.216 21.5203H213.716C215.445 21.5203 216.519 22.5936 216.519 24.3229V35.295C216.519 36.9646 215.445 38.038 213.716 38.038H207.216C205.487 38.038 204.414 36.9646 204.414 35.295ZM212.762 34.6987V24.8H208.171V34.6987H212.762Z" fill="white"/>
<path d="M222.601 24.8V38.038H218.904V24.2633C218.904 22.5936 219.978 21.4607 221.707 21.4607H230.89V37.9784H227.193V24.7404H222.601V24.8Z" fill="white"/>
<path d="M81.9922 47.6981L79.9647 51.276H79.4281L77.4006 47.8174V52.0512H76.208V45.4322H77.2217L79.6666 49.7256L82.0518 45.4322H83.0655V52.0512H81.8729V47.7578L81.9922 47.6981Z" fill="white"/>
<path d="M85.7491 45.3726V51.9916H84.4968V45.3726H85.7491Z" fill="white"/>
<path d="M88.3132 51.6338C87.7765 51.3356 87.4187 50.9182 87.1205 50.4412C86.8224 49.9045 86.7031 49.3678 86.7031 48.7119C86.7031 48.0559 86.8224 47.4596 87.1205 46.9826C87.4187 46.4459 87.8361 46.0881 88.3132 45.79C88.8498 45.4918 89.3865 45.3726 90.0424 45.3726C90.6984 45.3726 91.0562 45.4918 91.4736 45.6707C91.891 45.8496 92.2488 46.1477 92.5469 46.5055L91.7121 47.2807C91.2947 46.7441 90.6984 46.5055 90.0424 46.5055C89.3865 46.5055 89.2672 46.6248 88.9095 46.8037C88.5517 46.9826 88.3131 47.2807 88.1343 47.6385C87.9554 47.9963 87.8361 48.3541 87.8361 48.8311C87.8361 49.3082 87.9554 49.666 88.1343 50.0237C88.3131 50.3815 88.5517 50.62 88.9095 50.8586C89.2672 51.0375 89.625 51.1567 90.0424 51.1567C90.6984 51.1567 91.235 50.9182 91.7121 50.3815L92.5469 51.1567C92.2488 51.5145 91.891 51.8127 91.4736 51.9916C91.0562 52.1704 90.5791 52.2897 90.0424 52.2897C89.5058 52.2897 88.8498 52.1704 88.3132 51.8723V51.6338Z" fill="white"/>
<path d="M98.0925 51.9916H93.322V45.3726H97.9732V46.4459H94.5743V48.1156H97.5558V49.1293H94.5743V50.8586H98.0925V51.9319V51.9916Z" fill="white"/>
<path d="M100.179 50.6797C100.358 50.8586 100.418 51.0375 100.418 51.276C100.418 51.5145 100.418 51.5145 100.418 51.6338C100.418 51.753 100.358 51.9319 100.239 52.1108L99.7024 53.4823H98.8676L99.2253 51.9916C99.1061 51.9916 98.9868 51.8723 98.8676 51.6934C98.8079 51.5741 98.7483 51.3952 98.7483 51.2164C98.7483 51.0375 98.8079 50.7989 98.9868 50.6201C99.1657 50.4412 99.3446 50.3815 99.5831 50.3815C99.8216 50.3815 100.001 50.4412 100.179 50.6201V50.6797Z" fill="white"/>
<path d="M104.592 45.3726V51.9916H103.34V45.3726H104.592Z" fill="white"/>
<path d="M110.078 47.4596C110.436 47.8174 110.615 48.3541 110.615 49.1293V52.0512H109.422V49.3678C109.422 48.9504 109.303 48.5926 109.124 48.4137C108.945 48.1752 108.647 48.1156 108.289 48.1156C107.931 48.1156 107.574 48.2348 107.335 48.4733C107.097 48.7119 106.977 49.0697 106.977 49.5467V52.0512H105.785V46.9826H106.918V47.6981C107.097 47.4596 107.335 47.2807 107.633 47.1615C107.931 47.0422 108.23 46.9826 108.587 46.9826C109.184 46.9826 109.661 47.1615 110.018 47.5193L110.078 47.4596Z" fill="white"/>
<path d="M116.041 47.4596C116.399 47.8174 116.578 48.3541 116.578 49.1293V52.0512H115.385V49.3678C115.385 48.9504 115.266 48.5926 115.087 48.4137C114.908 48.1752 114.61 48.1156 114.252 48.1156C113.895 48.1156 113.537 48.2348 113.298 48.4733C113.06 48.7119 112.94 49.0697 112.94 49.5467V52.0512H111.748V46.9826H112.881V47.6981C113.06 47.4596 113.298 47.2807 113.596 47.1615C113.895 47.0422 114.193 46.9826 114.55 46.9826C115.147 46.9826 115.624 47.1615 115.982 47.5193L116.041 47.4596Z" fill="white"/>
<path d="M118.605 51.753C118.188 51.5145 117.89 51.2164 117.651 50.8586C117.413 50.4412 117.293 50.0237 117.293 49.5467C117.293 49.0697 117.413 48.5926 117.651 48.2348C117.89 47.8174 118.188 47.5193 118.605 47.3404C119.023 47.1018 119.44 46.9826 119.917 46.9826C120.394 46.9826 120.871 47.1018 121.229 47.3404C121.646 47.5789 121.945 47.877 122.124 48.2348C122.362 48.6522 122.481 49.0697 122.481 49.5467C122.481 50.0237 122.362 50.5008 122.124 50.8586C121.885 51.2164 121.587 51.5741 121.229 51.753C120.812 51.9916 120.394 52.1108 119.917 52.1108C119.44 52.1108 118.963 51.9916 118.605 51.753ZM120.931 50.5604C121.169 50.2623 121.289 49.9045 121.289 49.4274C121.289 48.9504 121.169 48.5926 120.931 48.2945C120.692 47.9963 120.335 47.877 119.977 47.877C119.619 47.877 119.261 47.9963 119.023 48.2945C118.784 48.5926 118.665 48.9504 118.665 49.4274C118.665 49.9045 118.784 50.2623 119.023 50.5604C119.261 50.8586 119.619 50.9778 119.977 50.9778C120.335 50.9778 120.692 50.8586 120.931 50.5604Z" fill="white"/>
<path d="M125.88 51.9916H124.628L122.601 46.923H123.853L125.284 50.5604L126.775 46.923H127.967L125.94 51.9916H125.88Z" fill="white"/>
<path d="M131.963 47.4C132.32 47.7578 132.559 48.2945 132.559 49.01V51.9319H131.426V51.2164C131.307 51.4549 131.128 51.6338 130.83 51.753C130.531 51.8723 130.293 51.9319 129.935 51.9319C129.398 51.9319 128.981 51.8127 128.623 51.5145C128.325 51.2164 128.146 50.8586 128.146 50.4412C128.146 50.0237 128.325 49.6063 128.623 49.3678C128.921 49.1293 129.458 48.9504 130.114 48.9504H131.307C131.307 48.7119 131.307 48.5926 131.187 48.4137C131.068 47.9963 130.71 47.7578 130.114 47.7578C129.518 47.7578 129.577 47.7578 129.339 47.877C129.1 47.9963 128.862 48.1156 128.683 48.2348L128.266 47.3404C128.504 47.1615 128.862 46.9826 129.22 46.8633C129.577 46.7441 129.935 46.6844 130.353 46.6844C131.068 46.6844 131.605 46.8633 132.022 47.2211L131.963 47.4ZM130.889 50.9778C131.068 50.8586 131.247 50.6797 131.307 50.3815V49.7852H130.233C129.577 49.7852 129.279 50.0237 129.279 50.4412C129.279 50.8586 129.339 50.7989 129.518 50.9778C129.697 51.0971 129.876 51.1567 130.174 51.1567C130.472 51.1567 130.651 51.0971 130.889 50.9778Z" fill="white"/>
<path d="M136.196 51.9916C136.018 51.9916 135.779 52.0512 135.6 52.0512C135.063 52.0512 134.646 51.9319 134.348 51.6338C134.05 51.3356 133.93 50.9182 133.93 50.3219V47.9963H133.155V46.9826H133.93V45.79H135.123V46.9826H136.375V47.9963H135.123V50.2623C135.123 50.5008 135.123 50.6797 135.302 50.7989C135.421 50.9182 135.6 50.9778 135.779 50.9778C135.958 50.9778 136.196 50.9182 136.375 50.7989L136.733 51.6934C136.614 51.8127 136.435 51.8723 136.256 51.9319L136.196 51.9916Z" fill="white"/>
<path d="M137.389 45.9092C137.27 45.79 137.151 45.6111 137.151 45.3726C137.151 45.134 137.21 45.0148 137.389 44.8359C137.508 44.7166 137.747 44.5974 137.926 44.5974C138.105 44.5974 138.343 44.657 138.463 44.7762C138.582 44.8955 138.701 45.0744 138.701 45.2533C138.701 45.4322 138.641 45.6707 138.463 45.79C138.284 45.9092 138.105 46.0285 137.926 46.0285C137.747 46.0285 137.508 45.9689 137.389 45.79V45.9092ZM138.582 46.923V51.9916H137.33V46.923H138.582Z" fill="white"/>
<path d="M142.338 51.9916H141.086L139.059 46.923H140.311L141.742 50.5604L143.233 46.923H144.425L142.398 51.9916H142.338Z" fill="white"/>
<path d="M149.434 49.8448H145.737C145.737 50.2026 145.976 50.5008 146.214 50.7393C146.512 50.9778 146.811 51.0375 147.228 51.0375C147.645 51.0375 148.182 50.8586 148.48 50.5008L149.136 51.2164C148.659 51.753 148.003 52.0512 147.168 52.0512C146.333 52.0512 146.155 51.9319 145.737 51.6934C145.32 51.4549 145.022 51.1567 144.783 50.7989C144.545 50.3815 144.425 49.9641 144.425 49.4871C144.425 49.01 144.545 48.533 144.723 48.1752C144.962 47.7578 145.26 47.4596 145.618 47.2807C145.976 47.0422 146.453 46.923 146.93 46.923C147.407 46.923 147.824 47.0422 148.182 47.2211C148.54 47.4596 148.838 47.7578 149.076 48.1156C149.315 48.533 149.375 48.9504 149.375 49.4871C149.375 50.0237 149.375 49.6063 149.375 49.8448H149.434ZM146.095 48.1752C145.856 48.4137 145.737 48.7119 145.678 49.0696H148.301C148.301 48.7119 148.122 48.4137 147.884 48.1752C147.645 47.9367 147.347 47.8174 146.989 47.8174C146.632 47.8174 146.333 47.9367 146.095 48.1752Z" fill="white"/>
<path d="M152.774 51.8723C152.297 51.753 151.939 51.5145 151.7 51.276L152.118 50.2623C152.356 50.5008 152.714 50.6201 153.072 50.7989C153.429 50.9182 153.847 50.9778 154.205 50.9778C154.562 50.9778 154.98 50.9182 155.218 50.7393C155.457 50.5604 155.576 50.3815 155.576 50.143C155.576 49.9045 155.517 49.7852 155.397 49.666C155.278 49.5467 155.099 49.4871 154.92 49.3678C154.741 49.3082 154.443 49.2485 154.085 49.1293C153.608 49.01 153.251 48.8908 152.952 48.7715C152.654 48.6522 152.416 48.4733 152.177 48.1752C151.939 47.9367 151.879 47.5789 151.879 47.1615C151.879 46.7441 151.998 46.4459 152.177 46.1478C152.356 45.8496 152.654 45.6111 153.012 45.4322C153.37 45.2533 153.847 45.134 154.443 45.134C155.04 45.134 155.218 45.134 155.576 45.3129C155.934 45.4918 156.292 45.5514 156.53 45.7303L156.113 46.7441C155.815 46.5652 155.576 46.4459 155.278 46.3266C154.98 46.267 154.682 46.2074 154.384 46.2074C153.966 46.2074 153.608 46.267 153.429 46.4459C153.191 46.6248 153.131 46.8037 153.131 47.0422C153.131 47.2807 153.191 47.4 153.31 47.5193C153.429 47.6385 153.608 47.6982 153.787 47.8174C153.966 47.877 154.264 47.9367 154.562 48.0559C155.04 48.1752 155.457 48.2945 155.755 48.4137C156.053 48.533 156.292 48.7119 156.53 48.9504C156.769 49.1889 156.828 49.5467 156.828 49.9641C156.828 50.3815 156.709 50.6797 156.53 50.9778C156.351 51.276 156.053 51.5145 155.636 51.6934C155.218 51.8723 154.741 51.9916 154.205 51.9916C153.668 51.9916 153.251 51.9319 152.774 51.753V51.8723Z" fill="white"/>
<path d="M162.076 49.8448H158.379C158.379 50.2026 158.618 50.5008 158.856 50.7393C159.154 50.9778 159.452 51.0375 159.87 51.0375C160.287 51.0375 160.824 50.8586 161.122 50.5008L161.778 51.2164C161.301 51.753 160.645 52.0512 159.81 52.0512C158.975 52.0512 158.796 51.9319 158.379 51.6934C157.962 51.4549 157.663 51.1567 157.425 50.7989C157.186 50.3815 157.067 49.9641 157.067 49.4871C157.067 49.01 157.186 48.533 157.365 48.1752C157.604 47.7578 157.902 47.4596 158.26 47.2807C158.618 47.0422 159.095 46.923 159.572 46.923C160.049 46.923 160.466 47.0422 160.824 47.2211C161.182 47.4596 161.48 47.7578 161.718 48.1156C161.957 48.533 162.016 48.9504 162.016 49.4871C162.016 50.0237 162.016 49.6063 162.016 49.8448H162.076ZM158.796 48.1752C158.558 48.4137 158.439 48.7119 158.379 49.0696H161.003C161.003 48.7119 160.824 48.4137 160.585 48.1752C160.347 47.9367 160.049 47.8174 159.691 47.8174C159.333 47.8174 159.035 47.9367 158.796 48.1752Z" fill="white"/>
<path d="M164.76 47.1018C165.058 46.9826 165.356 46.923 165.773 46.923V48.1156C165.714 48.1156 165.594 48.1156 165.475 48.1156C165.058 48.1156 164.7 48.2348 164.461 48.4733C164.223 48.7119 164.104 49.1293 164.104 49.6063V52.0512H162.851V46.9826H164.044V47.7578C164.223 47.4596 164.402 47.2807 164.7 47.1615L164.76 47.1018Z" fill="white"/>
<path d="M169.112 51.9916H167.86L165.833 46.923H167.085L168.516 50.5604L170.007 46.923H171.2L169.172 51.9916H169.112Z" fill="white"/>
<path d="M171.677 45.9092C171.557 45.79 171.438 45.6111 171.438 45.3726C171.438 45.134 171.498 45.0148 171.677 44.8359C171.796 44.7166 172.034 44.5974 172.213 44.5974C172.392 44.5974 172.631 44.657 172.75 44.7762C172.869 44.8955 172.988 45.0744 172.988 45.2533C172.988 45.4322 172.929 45.6707 172.75 45.79C172.631 45.9092 172.392 46.0285 172.213 46.0285C172.034 46.0285 171.796 45.9689 171.677 45.79V45.9092ZM172.869 46.923V51.9916H171.617V46.923H172.869Z" fill="white"/>
<path d="M174.956 51.753C174.539 51.5145 174.241 51.2164 174.002 50.8586C173.764 50.4412 173.645 50.0237 173.645 49.5467C173.645 49.0697 173.764 48.5926 174.002 48.2348C174.241 47.8174 174.539 47.5193 174.956 47.3404C175.374 47.1018 175.791 46.9826 176.328 46.9826C176.865 46.9826 177.222 47.1018 177.58 47.2807C177.938 47.5193 178.236 47.8174 178.415 48.1752L177.461 48.7119C177.222 48.2348 176.805 47.9963 176.328 47.9963C175.851 47.9963 175.612 48.1156 175.314 48.4137C175.076 48.7119 174.897 49.0697 174.897 49.5467C174.897 50.0237 175.016 50.3815 175.314 50.6797C175.553 50.9778 175.91 51.0971 176.328 51.0971C176.745 51.0971 177.222 50.8586 177.461 50.3815L178.415 50.9182C178.236 51.276 177.938 51.5741 177.58 51.8127C177.222 52.0512 176.805 52.1108 176.328 52.1108C175.851 52.1108 175.374 51.9916 174.956 51.753Z" fill="white"/>
<path d="M183.662 49.8448H179.965C179.965 50.2026 180.204 50.5008 180.442 50.7393C180.74 50.9778 181.039 51.0375 181.456 51.0375C181.873 51.0375 182.41 50.8586 182.708 50.5008L183.364 51.2164C182.887 51.753 182.231 52.0512 181.396 52.0512C180.562 52.0512 180.383 51.9319 179.965 51.6934C179.548 51.4549 179.25 51.1567 179.011 50.7989C178.773 50.3815 178.653 49.9641 178.653 49.4871C178.653 49.01 178.773 48.533 178.951 48.1752C179.19 47.7578 179.488 47.4596 179.846 47.2807C180.204 47.0422 180.681 46.923 181.158 46.923C181.635 46.923 182.052 47.0422 182.41 47.2211C182.768 47.4596 183.066 47.7578 183.305 48.1156C183.543 48.533 183.603 48.9504 183.603 49.4871C183.603 50.0237 183.603 49.6063 183.603 49.8448H183.662ZM180.383 48.1752C180.144 48.4137 180.025 48.7119 179.965 49.0696H182.589C182.589 48.7119 182.41 48.4137 182.172 48.1752C181.933 47.9367 181.635 47.8174 181.277 47.8174C180.919 47.8174 180.621 47.9367 180.383 48.1752Z" fill="white"/>
<path d="M189.804 51.8723C189.447 51.9915 189.029 52.0512 188.612 52.0512C188.194 52.0512 187.717 51.9916 187.36 51.8127C187.002 51.6338 186.704 51.4549 186.465 51.1567C186.227 50.8586 186.167 50.5604 186.167 50.2623C186.167 49.9641 186.286 49.4871 186.525 49.1889C186.763 48.8908 187.121 48.5926 187.658 48.2945C187.419 48.0559 187.24 47.7578 187.121 47.5789C187.002 47.4 186.942 47.1018 186.942 46.8633C186.942 46.3863 187.121 46.0285 187.479 45.7303C187.837 45.4322 188.314 45.3129 188.91 45.3129C189.506 45.3129 189.924 45.4322 190.222 45.7303C190.52 46.0285 190.699 46.3266 190.699 46.8037C190.699 47.2807 190.58 47.4596 190.401 47.6981C190.162 47.9367 189.864 48.2348 189.387 48.4733L190.759 49.7852C190.937 49.4871 191.057 49.1293 191.116 48.7119L192.13 49.01C192.011 49.6063 191.832 50.0834 191.534 50.5008L192.369 51.276L191.653 52.1108L190.818 51.3356C190.52 51.5741 190.162 51.753 189.804 51.9319V51.8723ZM190.043 50.6201L188.373 49.01C188.016 49.1889 187.777 49.4274 187.658 49.6063C187.538 49.7852 187.419 49.9641 187.419 50.2026C187.419 50.4412 187.538 50.6797 187.777 50.8586C188.016 51.0375 188.314 51.0971 188.731 51.0971C189.149 51.0971 189.685 50.9182 190.103 50.6201H190.043ZM188.314 46.3863C188.194 46.5055 188.075 46.6844 188.075 46.8633C188.075 47.0422 188.075 47.1615 188.194 47.2807C188.254 47.4 188.433 47.5789 188.671 47.8174C189.029 47.6385 189.268 47.4596 189.447 47.2807C189.626 47.1018 189.685 46.9826 189.685 46.8037C189.685 46.6248 189.626 46.4459 189.506 46.3266C189.387 46.2074 189.208 46.1478 188.97 46.1478C188.731 46.1478 188.493 46.2074 188.373 46.3266L188.314 46.3863Z" fill="white"/>
<path d="M195.648 51.8723C195.171 51.753 194.813 51.5145 194.575 51.276L194.992 50.2623C195.231 50.5008 195.588 50.6201 195.946 50.7989C196.304 50.9182 196.721 50.9778 197.079 50.9778C197.437 50.9778 197.854 50.9182 198.093 50.7393C198.331 50.5604 198.451 50.3815 198.451 50.143C198.451 49.9045 198.391 49.7852 198.272 49.666C198.153 49.5467 197.974 49.4871 197.795 49.3678C197.616 49.3082 197.318 49.2485 196.96 49.1293C196.483 49.01 196.125 48.8908 195.827 48.7715C195.529 48.6522 195.29 48.4733 195.052 48.1752C194.813 47.9367 194.754 47.5789 194.754 47.1615C194.754 46.7441 194.873 46.4459 195.052 46.1478C195.231 45.8496 195.529 45.6111 195.887 45.4322C196.244 45.2533 196.721 45.134 197.318 45.134C197.914 45.134 198.093 45.134 198.451 45.3129C198.808 45.4918 199.166 45.5514 199.405 45.7303L198.987 46.7441C198.689 46.5652 198.451 46.4459 198.153 46.3266C197.854 46.267 197.556 46.2074 197.258 46.2074C196.841 46.2074 196.483 46.267 196.304 46.4459C196.065 46.6248 196.006 46.8037 196.006 47.0422C196.006 47.2807 196.065 47.4 196.185 47.5193C196.304 47.6385 196.483 47.6982 196.662 47.8174C196.841 47.877 197.139 47.9367 197.437 48.0559C197.914 48.1752 198.331 48.2945 198.63 48.4137C198.928 48.533 199.166 48.7119 199.405 48.9504C199.643 49.1889 199.703 49.5467 199.703 49.9641C199.703 50.3815 199.584 50.6797 199.405 50.9778C199.226 51.276 198.928 51.5145 198.51 51.6934C198.093 51.8723 197.616 51.9916 197.079 51.9916C196.543 51.9916 196.125 51.9319 195.648 51.753V51.8723Z" fill="white"/>
<path d="M201.313 51.753C200.896 51.5145 200.598 51.2164 200.359 50.8586C200.12 50.5008 200.001 50.0237 200.001 49.5467C200.001 49.0697 200.12 48.5926 200.359 48.2348C200.598 47.8174 200.896 47.5193 201.313 47.3404C201.731 47.1018 202.148 46.9826 202.625 46.9826C203.102 46.9826 203.579 47.1018 203.937 47.3404C204.354 47.5789 204.652 47.877 204.831 48.2348C205.07 48.6522 205.189 49.0697 205.189 49.5467C205.189 50.0237 205.07 50.5008 204.831 50.8586C204.593 51.2164 204.295 51.5741 203.937 51.753C203.519 51.9916 203.102 52.1108 202.625 52.1108C202.148 52.1108 201.671 51.9916 201.313 51.753ZM203.579 50.5604C203.818 50.2623 203.937 49.9045 203.937 49.4274C203.937 48.9504 203.818 48.5926 203.579 48.2945C203.341 47.9963 202.983 47.877 202.625 47.877C202.267 47.877 201.909 47.9963 201.671 48.2945C201.432 48.5926 201.313 48.9504 201.313 49.4274C201.313 49.9045 201.432 50.2623 201.671 50.5604C201.909 50.8586 202.267 50.9778 202.625 50.9778C202.983 50.9778 203.341 50.8586 203.579 50.5604Z" fill="white"/>
<path d="M207.276 45.0148V51.9916H206.024V45.0148H207.276Z" fill="white"/>
<path d="M213.18 51.9916H212.047V51.276C211.868 51.5145 211.629 51.6934 211.391 51.8127C211.152 51.9319 210.854 51.9916 210.496 51.9916C209.84 51.9916 209.363 51.8127 209.005 51.4549C208.648 51.0971 208.469 50.5008 208.469 49.7852V46.923H209.661V49.6063C209.661 50.0237 209.781 50.3815 209.96 50.62C210.138 50.8586 210.437 50.9778 210.735 50.9778C211.033 50.9778 211.391 50.8586 211.629 50.62C211.868 50.3815 211.987 50.0237 211.987 49.5467V47.0422H213.18V52.1108V51.9916Z" fill="white"/>
<path d="M216.877 51.9916C216.698 51.9916 216.459 52.0512 216.28 52.0512C215.744 52.0512 215.326 51.9319 215.028 51.6338C214.73 51.3356 214.611 50.9182 214.611 50.3219V47.9963H213.835V46.9826H214.611V45.79H215.803V46.9826H217.055V47.9963H215.803V50.2623C215.803 50.5008 215.803 50.6797 215.982 50.7989C216.101 50.9182 216.28 50.9778 216.459 50.9778C216.638 50.9778 216.877 50.9182 217.055 50.7989L217.413 51.6934C217.294 51.8127 217.115 51.8723 216.936 51.9319L216.877 51.9916Z" fill="white"/>
<path d="M218.129 45.9092C218.009 45.79 217.89 45.6111 217.89 45.3726C217.89 45.134 217.95 45.0148 218.129 44.8359C218.248 44.7166 218.486 44.5974 218.665 44.5974C218.844 44.5974 219.083 44.657 219.202 44.7762C219.321 44.8955 219.441 45.0744 219.441 45.2533C219.441 45.4322 219.381 45.6707 219.202 45.79C219.083 45.9092 218.844 46.0285 218.665 46.0285C218.486 46.0285 218.248 45.9689 218.129 45.79V45.9092ZM219.262 46.923V51.9916H218.009V46.923H219.262Z" fill="white"/>
<path d="M221.349 51.753C220.931 51.5145 220.633 51.2164 220.395 50.8586C220.156 50.5008 220.037 50.0237 220.037 49.5467C220.037 49.0697 220.156 48.5926 220.395 48.2348C220.633 47.8174 220.931 47.5193 221.349 47.3404C221.766 47.1018 222.184 46.9826 222.661 46.9826C223.138 46.9826 223.615 47.1018 223.972 47.3404C224.39 47.5789 224.688 47.877 224.867 48.2348C225.105 48.6522 225.225 49.0697 225.225 49.5467C225.225 50.0237 225.105 50.5008 224.867 50.8586C224.628 51.2164 224.33 51.5741 223.972 51.753C223.555 51.9916 223.138 52.1108 222.661 52.1108C222.184 52.1108 221.707 51.9916 221.349 51.753ZM223.674 50.5604C223.913 50.2623 224.032 49.9045 224.032 49.4274C224.032 48.9504 223.913 48.5926 223.674 48.2945C223.436 47.9963 223.078 47.877 222.72 47.877C222.362 47.877 222.005 47.9963 221.766 48.2945C221.528 48.5926 221.408 48.9504 221.408 49.4274C221.408 49.9045 221.528 50.2623 221.766 50.5604C222.005 50.8586 222.362 50.9778 222.72 50.9778C223.078 50.9778 223.436 50.8586 223.674 50.5604Z" fill="white"/>
<path d="M230.353 47.4596C230.711 47.8174 230.89 48.3541 230.89 49.1293V52.0512H229.697V49.3678C229.697 48.9504 229.578 48.5926 229.399 48.4137C229.22 48.1752 228.922 48.1156 228.564 48.1156C228.207 48.1156 227.849 48.2348 227.61 48.4733C227.372 48.7119 227.252 49.0697 227.252 49.5467V52.0512H226.06V46.9826H227.193V47.6981C227.372 47.4596 227.61 47.2807 227.908 47.1615C228.207 47.0422 228.505 46.9826 228.862 46.9826C229.459 46.9826 229.936 47.1615 230.294 47.5193L230.353 47.4596Z" fill="white"/>
</svg>
