<svg width="231" height="70" viewBox="0 0 231 70" fill="none" xmlns="http://www.w3.org/2000/svg">
<path d="M56.4108 26.2311C56.2319 27.3044 56.053 28.3778 55.8145 29.3915C55.576 30.286 55.4567 31.24 54.92 32.0152C54.7411 31.7767 54.8008 31.4786 54.92 31.1804C55.3971 29.5704 55.7549 27.9604 55.9338 26.2907C55.9338 26.0522 55.9338 25.8733 56.1723 25.754C56.2319 25.754 56.3512 25.754 56.4108 25.754V26.1714V26.2311Z" fill="#0363FF"/>
<path d="M56.4112 25.754C56.4112 25.754 56.292 25.754 56.2323 25.754C55.8746 25.277 56.1131 24.6807 55.9938 24.2036C55.8746 23.3688 55.8149 22.5936 55.5764 21.7588C55.5168 21.4606 55.3975 21.2221 55.5764 20.924C56.0535 21.5799 55.9938 22.3551 56.1727 23.0707C56.1727 23.2495 56.1727 23.4284 56.292 23.6073V25.754H56.4112Z" fill="#0363FF"/>
<path d="M55.6954 20.9837C56.1129 22.5341 56.2917 24.1441 56.2917 25.8138C56.0532 27.9605 55.5762 29.9879 54.9799 32.075C54.0258 34.6391 52.8928 37.0243 51.1039 39.1114C48.5398 42.1526 45.2601 43.8818 41.2648 44.2993C38.5218 44.5974 35.9577 44.2993 33.5128 42.9874C32.8569 42.6892 32.3799 42.2122 31.7239 41.6755C31.3661 43.3452 31.0084 44.9552 30.6506 46.5652C30.0543 49.2486 29.5176 51.8724 28.9213 54.5557C28.5635 56.1061 27.4305 57.1199 25.9397 57.0602C24.5682 57.0602 23.793 56.1061 24.0316 54.7943C24.6279 51.7531 25.2838 48.7119 25.9397 45.6708C27.9672 36.2491 29.9946 26.7679 32.0221 17.3462C32.3202 16.094 32.9165 15.1995 34.1688 14.7821C34.944 14.4839 35.7788 14.5436 36.4347 15.1399C37.0907 15.6766 37.0907 16.3921 36.9118 17.1673C36.3751 19.6122 35.8981 21.9974 35.3614 24.4423C34.5266 28.2586 33.7514 32.075 32.9165 35.8914C32.7973 36.3088 32.9165 36.6665 33.2147 37.0243C35.1825 39.4096 37.7466 40.3636 40.7878 39.9462C45.1408 39.4096 47.8838 36.7858 49.6131 32.9098C50.6865 30.5246 51.3424 28.0201 51.0442 25.3367C50.7461 22.057 48.7187 19.6122 45.7371 19.0755C44.5445 18.837 43.2923 19.0159 42.0997 19.2544C41.6226 19.314 41.2052 19.4929 40.7281 19.4929C39.9529 19.4929 39.297 19.314 38.9392 18.5985C38.5814 17.8829 38.82 17.227 39.297 16.6307C39.8933 15.7958 40.7878 15.3188 41.7419 15.0803C45.3793 14.0665 48.8975 14.3051 52.1772 16.3921C53.9661 17.5847 55.0395 19.314 55.7551 21.2818L55.6954 20.9837Z" fill="#0363FF"/>
<path d="M31.0678 0.112904C31.4852 -0.00635716 31.843 -0.0659878 32.2008 0.112904C33.5127 0.768841 33.8108 1.24589 33.5127 2.67702C32.3797 7.92452 31.2467 13.2316 30.1137 18.4791C28.7422 24.8 27.4303 31.1805 26.0588 37.5013C25.8203 38.6343 25.7607 39.7673 25.1644 40.8406C24.5681 41.914 23.1369 42.5699 22.004 42.2718C21.1095 42.0332 20.5728 41.258 20.6921 40.3039C21.1095 37.7398 21.7654 35.1757 22.3021 32.6712C23.0773 28.9741 23.8525 25.3367 24.6873 21.6396C24.747 21.3414 24.6873 21.1029 24.5681 20.8047C23.3755 18.7773 21.7058 17.4058 19.2609 17.1673C15.8024 16.7498 12.9401 17.9425 10.5549 20.2681C8.52743 22.2359 7.45408 24.7404 6.97703 27.4834C6.61925 29.4512 6.61925 31.419 7.27518 33.3272C7.99075 35.4739 10.0778 36.905 12.3438 37.2032C13.9538 37.382 15.4446 37.0243 16.9353 36.7857C17.7105 36.6665 18.5454 36.9646 18.8435 37.5013C19.1417 38.0976 18.9628 38.7535 18.3665 39.4095C17.5317 40.3636 16.339 40.6617 15.2061 40.9002C12.4631 41.4966 9.72004 41.4966 7.0963 40.3636C4.35329 39.171 2.62399 37.0839 1.96806 34.162C0.894706 29.2723 2.14695 24.7404 4.71107 20.5662C6.49999 17.5847 9.0641 15.3187 12.2245 13.8279C13.8346 13.0527 15.5638 12.6353 17.4124 12.5161C19.6187 12.3968 21.6462 12.8142 23.4947 14.0068C23.7332 14.1857 23.9718 14.3646 24.2103 14.6031C24.6873 15.0802 25.1644 15.5572 25.7607 16.1535C26.0588 14.7224 26.357 13.4105 26.6551 12.0987C27.3111 8.93823 28.0266 5.77781 28.6826 2.67702C28.9807 1.30552 29.8156 0.589948 31.0678 0.172534V0.112904Z" fill="#0363FF"/>
<path d="M3.33931 67.6743C3.33931 67.9129 3.33932 68.211 3.22005 68.4495C3.16042 68.6881 3.04116 68.9266 2.9219 69.1651C2.80264 69.344 2.62375 69.5229 2.38523 69.6422C2.1467 69.7614 1.90818 69.8211 1.61003 69.8211H0.596306C0.536676 69.8211 0.417414 69.8211 0.298153 69.8211C0.178892 69.8211 0.0596306 69.8211 0 69.8211C0 69.8211 0 69.8211 0 69.7614C0 69.6422 0 69.6422 0 69.5825C0.119261 69.5825 0.178893 69.5825 0.238523 69.4633C0.238523 69.4633 0.298153 69.344 0.298153 69.2844V65.9451C0.298153 65.8854 0.298154 65.7662 0.238523 65.7662C0.178893 65.7662 0.119261 65.7065 0 65.6469C0 65.6469 0 65.6469 0 65.5873C0 65.5276 0 65.468 0 65.468C0.0596306 65.468 0.119259 65.468 0.178889 65.468C0.178889 65.468 0.298152 65.468 0.357783 65.468H0.477042H1.61003C1.90818 65.468 2.1467 65.468 2.3256 65.6469C2.56412 65.7662 2.74301 65.9451 2.86227 66.124C2.98153 66.3029 3.10079 66.5414 3.16042 66.8395C3.22005 67.078 3.27968 67.3762 3.27968 67.6743H3.33931ZM2.68338 67.7936C2.68338 67.4358 2.68338 67.1377 2.62375 66.8992C2.62375 66.6606 2.50449 66.4221 2.38523 66.3029C2.26596 66.1836 2.1467 66.0047 1.96781 65.9451C1.78892 65.8854 1.61002 65.8258 1.3715 65.8258H1.07335V69.2247C1.07335 69.2247 1.07335 69.2844 1.07335 69.344C1.07335 69.344 1.07335 69.344 1.07335 69.4036C1.07335 69.4036 1.13298 69.4036 1.19261 69.4036C1.19261 69.4036 1.31187 69.4036 1.43114 69.4036C1.84855 69.4036 2.1467 69.2247 2.38523 68.9266C2.56412 68.6284 2.68338 68.211 2.68338 67.6743V67.7936Z" fill="#0363FF"/>
<path d="M11.1509 69.344C11.1509 69.344 11.1509 69.4036 11.1509 69.4633C11.1509 69.4633 11.1509 69.4633 11.1509 69.5229C11.1509 69.5229 11.1509 69.5229 11.2702 69.5229C11.2702 69.5229 11.3894 69.5229 11.4491 69.5229C11.4491 69.5229 11.4491 69.5229 11.4491 69.6422C11.4491 69.7614 11.4491 69.6422 11.4491 69.7018C11.4491 69.7018 11.4491 69.7018 11.4491 69.7614C11.3298 69.7614 11.2106 69.7614 11.0913 69.7614C10.972 69.7614 10.8528 69.7614 10.7931 69.7614C10.7335 69.7614 10.6143 69.7614 10.495 69.7614C10.3757 69.7614 10.2565 69.7614 10.1372 69.7614C10.1372 69.7614 10.1372 69.7614 10.1372 69.7018C10.1372 69.5825 10.1372 69.5229 10.1372 69.5229C10.1968 69.5229 10.2565 69.5229 10.3161 69.5229C10.3161 69.5229 10.3757 69.5229 10.4354 69.5229C10.4354 69.5229 10.4354 69.5229 10.4354 69.4633C10.4354 69.4633 10.4354 69.4036 10.4354 69.344V66.0047C10.4354 66.0047 10.4354 65.9451 10.4354 65.8854C10.4354 65.8854 10.4354 65.8854 10.4354 65.8258C10.4354 65.8258 10.4354 65.8258 10.3161 65.8258C10.3161 65.8258 10.1968 65.8258 10.1372 65.8258C10.1372 65.8258 10.1372 65.8258 10.1372 65.7065C10.1372 65.6469 10.1372 65.5873 10.1372 65.5873C10.2565 65.5873 10.3757 65.5873 10.495 65.5873C10.6143 65.5873 10.7335 65.5873 10.7931 65.5873C10.8528 65.5873 10.972 65.5873 11.0913 65.5873C11.2106 65.5873 11.3298 65.5873 11.4491 65.5873C11.4491 65.5873 11.4491 65.5873 11.4491 65.6469C11.4491 65.6469 11.4491 65.6469 11.4491 65.7065C11.4491 65.7662 11.4491 65.8258 11.4491 65.8258C11.3894 65.8258 11.3298 65.8258 11.2702 65.8258C11.2702 65.8258 11.2106 65.8258 11.1509 65.8258C11.1509 65.8258 11.1509 65.8258 11.1509 65.8854C11.1509 65.9451 11.1509 65.9451 11.1509 66.0047V69.344Z" fill="#0363FF"/>
<path d="M19.2608 68.0321V69.2844C19.2608 69.4036 19.2609 69.4633 19.3801 69.5229C19.4397 69.5229 19.559 69.5825 19.6783 69.6422C19.6783 69.6422 19.7379 69.6422 19.7379 69.7614C19.7379 69.8807 19.7379 69.8211 19.7379 69.8807C19.6186 69.8807 19.4994 69.8807 19.3801 69.8807C19.2609 69.8807 19.082 69.8807 18.9031 69.8807C18.7242 69.8807 18.6645 69.8807 18.5453 69.8807C18.426 69.8807 18.3068 69.8807 18.2471 69.8807C18.2471 69.8807 18.2471 69.8807 18.2471 69.8211C18.2471 69.7018 18.2471 69.6422 18.2471 69.6422C18.3068 69.6422 18.3664 69.6422 18.426 69.6422C18.426 69.6422 18.4857 69.6422 18.5453 69.6422C18.5453 69.6422 18.5453 69.6422 18.5453 69.5825C18.5453 69.5825 18.5453 69.5229 18.5453 69.4633V66.124C18.5453 66.0643 18.5453 65.9451 18.4857 65.9451C18.4857 65.9451 18.3664 65.8854 18.1875 65.8258C18.1875 65.8258 18.1875 65.8258 18.1875 65.7065C18.1875 65.6469 18.1875 65.5873 18.1875 65.5873C18.3068 65.5873 18.3664 65.5873 18.4857 65.5873C18.6049 65.5873 18.7242 65.5873 18.7838 65.5873H19.4994C19.8572 65.5873 20.0957 65.7065 20.3342 65.8854C20.5727 66.0643 20.6324 66.4221 20.6324 66.7799C20.6324 67.1377 20.6324 67.1377 20.5727 67.2569C20.5727 67.4358 20.4535 67.5551 20.3342 67.6744C20.2149 67.7936 20.0957 67.9129 19.9764 67.9725C19.8572 68.0321 19.6783 68.0918 19.4994 68.0918H19.1416L19.2608 68.0321ZM19.4397 67.6744C19.6186 67.6744 19.7975 67.6147 19.9168 67.4955C20.0361 67.3762 20.0957 67.1377 20.0957 66.7799C20.0957 66.4221 20.0957 66.2432 19.9764 66.0643C19.8572 65.8854 19.6783 65.8258 19.4397 65.8258H19.3205V67.6744H19.4397Z" fill="#0363FF"/>
<path d="M28.5631 68.0321V69.2844C28.5631 69.4036 28.5631 69.4633 28.6824 69.5229C28.742 69.5229 28.8613 69.5825 28.9805 69.6422C28.9805 69.6422 29.0401 69.6422 29.0401 69.7614C29.0401 69.8807 29.0401 69.8211 29.0401 69.8807C28.9209 69.8807 28.8016 69.8807 28.6824 69.8807C28.5631 69.8807 28.3842 69.8807 28.2053 69.8807C28.0264 69.8807 27.9668 69.8807 27.8475 69.8807C27.7283 69.8807 27.609 69.8807 27.5494 69.8807C27.5494 69.8807 27.5494 69.8807 27.5494 69.8211C27.5494 69.7018 27.5494 69.6422 27.5494 69.6422C27.609 69.6422 27.6686 69.6422 27.7283 69.6422C27.7283 69.6422 27.7879 69.6422 27.8475 69.6422C27.8475 69.6422 27.8475 69.6422 27.8475 69.5825C27.8475 69.5825 27.8475 69.5229 27.8475 69.4633V66.124C27.8475 66.0643 27.8475 65.9451 27.7879 65.9451C27.7879 65.9451 27.6686 65.8854 27.4897 65.8258C27.4897 65.8258 27.4897 65.8258 27.4897 65.7065C27.4897 65.6469 27.4897 65.5873 27.4897 65.5873C27.609 65.5873 27.6686 65.5873 27.7879 65.5873C27.9072 65.5873 28.0264 65.5873 28.0861 65.5873H28.8016C29.1594 65.5873 29.3979 65.7065 29.6365 65.8854C29.875 66.0643 29.9346 66.4221 29.9346 66.7799C29.9346 67.1377 29.9346 67.1377 29.875 67.2569C29.875 67.4358 29.7557 67.5551 29.6365 67.6744C29.5172 67.7936 29.3979 67.9129 29.2787 67.9725C29.1594 68.0321 28.9805 68.0918 28.8016 68.0918H28.4438L28.5631 68.0321ZM28.742 67.6744C28.9209 67.6744 29.0998 67.6147 29.219 67.4955C29.3383 67.3762 29.3979 67.1377 29.3979 66.7799C29.3979 66.4221 29.3979 66.2432 29.2787 66.0643C29.1594 65.8854 28.9805 65.8258 28.742 65.8258H28.6227V67.6744H28.742Z" fill="#0363FF"/>
<path d="M37.8658 69.2844C37.8658 69.4037 37.8658 69.4633 37.985 69.4633C38.0447 69.4633 38.2236 69.4633 38.4025 69.4633H38.5813C38.641 69.4633 38.7602 69.4633 38.8199 69.4633C38.8795 69.4633 38.9391 69.4037 38.9988 69.3441C38.9988 69.3441 39.0584 69.2248 39.118 69.1055C39.118 68.9863 39.1776 68.9267 39.2373 68.7478C39.2373 68.7478 39.2373 68.7478 39.2969 68.7478C39.2969 68.7478 39.2969 68.7478 39.3565 68.7478C39.3565 68.867 39.3565 69.0459 39.2969 69.2248C39.2969 69.4037 39.2969 69.5826 39.2969 69.7019C39.2969 69.7019 39.2969 69.7615 39.2969 69.8211C39.2969 69.8211 39.2373 69.8211 39.1777 69.8211C39.1777 69.8211 39.0584 69.8211 38.9988 69.8211C38.9988 69.8211 38.8795 69.8211 38.8199 69.8211C38.8199 69.8211 38.7006 69.8211 38.641 69.8211H37.508C37.3887 69.8211 37.3291 69.8211 37.2098 69.8211C37.0906 69.8211 36.9713 69.8211 36.8521 69.8211C36.8521 69.8211 36.8521 69.8211 36.8521 69.7615C36.8521 69.6422 36.8521 69.5826 36.8521 69.5826C36.9713 69.5826 37.0906 69.523 37.0906 69.4633C37.0906 69.4633 37.1502 69.3441 37.1502 69.2844V65.9451C37.1502 65.9451 37.1502 65.8855 37.1502 65.8259C37.1502 65.8259 37.1502 65.8259 37.1502 65.7662C37.1502 65.7662 37.1502 65.7662 37.0309 65.7662C37.0309 65.7662 36.9117 65.7662 36.8521 65.7662C36.8521 65.7662 36.8521 65.7662 36.8521 65.647C36.8521 65.5873 36.8521 65.5277 36.8521 65.5277C36.9713 65.5277 37.0906 65.5277 37.2098 65.5277C37.3291 65.5277 37.4484 65.5277 37.508 65.5277C37.5676 65.5277 37.6273 65.5277 37.6869 65.5277C37.6869 65.5277 37.8061 65.5277 37.8658 65.5277C37.9254 65.5277 37.985 65.5277 38.0447 65.5277C38.1043 65.5277 38.1639 65.5277 38.2236 65.5277C38.2236 65.5277 38.2236 65.5277 38.2236 65.5873C38.2236 65.5873 38.2236 65.5873 38.2236 65.647C38.2236 65.7066 38.2236 65.7662 38.2236 65.7662C38.1043 65.7662 37.985 65.8259 37.9254 65.8855C37.9254 65.8855 37.8658 66.0048 37.8658 66.0644V69.3441V69.2844Z" fill="#0363FF"/>
<path d="M48.7777 68.2111C48.7777 68.4496 48.7777 68.6881 48.7777 68.9267C48.7777 69.1652 48.6585 69.3441 48.5988 69.4633C48.4796 69.6422 48.3603 69.7615 48.1814 69.8211C48.0025 69.8807 47.8236 69.9404 47.5851 69.9404C47.3466 69.9404 47.0484 69.9404 46.8696 69.8211C46.6907 69.7615 46.5714 69.5826 46.4521 69.4633C46.3329 69.3441 46.2733 69.1055 46.2733 68.9267C46.2733 68.7478 46.2733 68.5092 46.2733 68.2707V66.0644C46.2733 65.9451 46.2732 65.8855 46.2136 65.8855C46.154 65.8855 46.0944 65.8259 45.9751 65.7662C45.9751 65.7662 45.9751 65.7662 45.9751 65.647C45.9751 65.5873 45.9751 65.5277 45.9751 65.5277C46.0944 65.5277 46.154 65.5277 46.2733 65.5277C46.3925 65.5277 46.5118 65.5277 46.631 65.5277C46.7503 65.5277 46.8696 65.5277 46.9888 65.5277C47.1081 65.5277 47.2273 65.5277 47.3466 65.5277C47.3466 65.5277 47.3466 65.5277 47.3466 65.5873C47.3466 65.647 47.3466 65.7066 47.3466 65.7066C47.2273 65.7066 47.1081 65.7066 47.0485 65.8259C47.0485 65.8259 46.9888 65.9451 46.9888 66.0048V68.0918C46.9888 68.5689 47.0484 68.9267 47.1677 69.1652C47.287 69.4037 47.5255 69.523 47.8237 69.523C48.1218 69.523 48.3603 69.4037 48.4796 69.1652C48.5988 68.9267 48.6585 68.5689 48.6585 68.0918V66.0644C48.6585 66.0048 48.6585 65.8855 48.5988 65.8855C48.5392 65.8855 48.4796 65.8259 48.3603 65.7662C48.3603 65.7662 48.3603 65.7662 48.3603 65.647C48.3603 65.647 48.3603 65.647 48.3603 65.5873C48.4796 65.5873 48.5392 65.5873 48.5988 65.5873C48.6585 65.5873 48.7777 65.5873 48.8374 65.5873C48.897 65.5873 49.0163 65.5873 49.1355 65.5873C49.1952 65.5873 49.3144 65.5873 49.374 65.5873C49.374 65.5873 49.374 65.5873 49.374 65.647C49.374 65.7066 49.374 65.7662 49.374 65.7662C49.2548 65.7662 49.1952 65.7662 49.1355 65.8855C49.1355 65.8855 49.0759 66.0048 49.0759 66.0644V68.2707L48.7777 68.2111Z" fill="#0363FF"/>
<path d="M57.8416 66.601C57.8416 66.601 57.782 66.601 57.7224 66.601C57.6628 66.601 57.6628 66.601 57.6031 66.601C57.6031 66.601 57.6031 66.601 57.6031 66.5414C57.5435 66.3028 57.4242 66.124 57.305 66.0047C57.1857 65.8854 57.0068 65.8258 56.8279 65.8258C56.649 65.8258 56.5298 65.8258 56.4105 66.0047C56.2912 66.124 56.2316 66.2432 56.2316 66.4817C56.2316 66.7203 56.2316 66.7799 56.3509 66.8992C56.4105 67.0184 56.5298 67.078 56.649 67.1377C56.7683 67.1973 56.8876 67.2569 57.0664 67.3762C57.1857 67.4358 57.3646 67.5551 57.4839 67.6147C57.6031 67.734 57.7224 67.8532 57.782 68.0321C57.8416 68.211 57.9013 68.3899 57.9013 68.6881C57.9013 68.9862 57.9013 69.0459 57.8416 69.1651C57.8416 69.344 57.7224 69.4633 57.6628 69.5825C57.5435 69.7018 57.4839 69.8211 57.305 69.8807C57.1857 69.9403 57.0068 69.9999 56.7683 69.9999C56.5298 69.9999 56.3509 70 56.172 69.8807C55.9931 69.8211 55.8738 69.7614 55.7546 69.7018C55.7546 69.5229 55.7546 69.344 55.7546 69.1651C55.7546 68.9862 55.7546 68.8073 55.6949 68.6284C55.6949 68.6284 55.7546 68.6284 55.8142 68.6284C55.8738 68.6284 55.8738 68.6284 55.8738 68.6284C55.8738 68.6284 55.8738 68.6284 55.8738 68.7477C55.8738 68.9266 55.9931 69.0459 55.9931 69.1651C55.9931 69.2844 56.1124 69.4036 56.172 69.4633C56.2316 69.5229 56.2912 69.5825 56.4105 69.6422C56.5298 69.6422 56.5894 69.6422 56.7087 69.6422C56.8279 69.6422 56.8876 69.6422 56.9472 69.6422C57.0068 69.6422 57.0664 69.5825 57.1261 69.4633C57.1261 69.4036 57.1857 69.344 57.2453 69.2247C57.305 69.1055 57.2453 69.0459 57.2453 68.9862C57.2453 68.8073 57.2453 68.6284 57.1261 68.5092C57.0068 68.3899 56.9472 68.3303 56.8279 68.211C56.7087 68.1514 56.5894 68.0918 56.4105 68.0321C56.2316 67.9725 56.1124 67.9129 55.9931 67.7936C55.8738 67.6744 55.7546 67.5551 55.6949 67.4358C55.6353 67.2569 55.5757 67.078 55.5757 66.7799C55.5757 66.4817 55.5757 66.4221 55.6353 66.3029C55.6353 66.124 55.7546 66.0047 55.8738 65.8854C55.9931 65.7662 56.0527 65.7065 56.2316 65.5873C56.3509 65.5276 56.5298 65.468 56.649 65.468C56.7683 65.468 56.9472 65.468 57.0664 65.5277C57.1857 65.5873 57.3646 65.6469 57.5435 65.7065C57.5435 65.8258 57.5435 66.0047 57.5435 66.1836C57.5435 66.3625 57.5435 66.4817 57.5435 66.6606L57.8416 66.601Z" fill="#0363FF"/>
<path d="M80.263 24.8V38.038H76.6255V24.2633C76.6255 22.5937 77.6988 21.4607 79.4281 21.4607H92.7854V37.9784H89.1479V24.7404H86.5242V37.9784H82.9463V24.7404H80.3226L80.263 24.8Z" fill="#0363FF"/>
<path d="M99.166 21.5203V38.0379H95.3496V21.5203H99.166Z" fill="#0363FF"/>
<path d="M101.67 35.2949V24.3229C101.67 22.6532 102.744 21.5203 104.473 21.5203H112.821L110.376 24.8596H105.546V34.7583H111.987V38.0976H104.533C102.803 38.0976 101.73 37.0242 101.73 35.3546L101.67 35.2949Z" fill="#0363FF"/>
<path d="M113.954 21.5203H125.165L122.72 24.8596H117.711V27.9604H123.078V31.0612H117.711V34.8179H124.27V38.1572H113.954V21.6395V21.5203Z" fill="#0363FF"/>
<path d="M137.866 31.2997H130.889V24.3229C130.889 22.6532 131.963 21.5203 133.692 21.5203H142.338L139.893 24.8596H134.706V28.1393H141.682V35.2949C141.682 36.9646 140.609 38.0379 138.88 38.0379H130.889V34.6986H137.866V31.2401V31.2997Z" fill="#0363FF"/>
<path d="M143.889 35.2949V24.3229C143.889 22.6532 144.962 21.5203 146.691 21.5203H153.191C154.92 21.5203 155.994 22.5936 155.994 24.3229V35.2949C155.994 36.9646 154.92 38.0379 153.191 38.0379H146.691C144.962 38.0379 143.889 36.9646 143.889 35.2949ZM152.237 34.6986V24.7999H147.645V34.6986H152.237Z" fill="#0363FF"/>
<path d="M158.439 21.5203H162.195V34.6986H169.172L166.668 38.0379H158.379V21.5203H158.439Z" fill="#0363FF"/>
<path d="M170.246 35.2354V21.4607H173.943V34.6987H178.534V21.4607H182.231V37.9784H173.048C171.319 37.9784 170.246 36.905 170.246 35.1757V35.2354Z" fill="#0363FF"/>
<path d="M183.782 24.8596V21.4607H197.079L194.635 24.8596H191.713V38.038H187.896V24.8596H183.782Z" fill="#0363FF"/>
<path d="M201.91 21.5203V38.0379H198.093V21.5203H201.91Z" fill="#0363FF"/>
<path d="M204.414 35.2949V24.3229C204.414 22.6532 205.487 21.5203 207.217 21.5203H213.716C215.446 21.5203 216.519 22.5936 216.519 24.3229V35.2949C216.519 36.9646 215.446 38.0379 213.716 38.0379H207.217C205.487 38.0379 204.414 36.9646 204.414 35.2949ZM212.762 34.6986V24.7999H208.171V34.6986H212.762Z" fill="#0363FF"/>
<path d="M222.601 24.8V38.038H218.904V24.2633C218.904 22.5937 219.978 21.4607 221.707 21.4607H230.89V37.9784H227.193V24.7404H222.601V24.8Z" fill="#0363FF"/>
<path d="M81.9922 47.6982L79.9647 51.276H79.4281L77.4006 47.8175V52.0512H76.208V45.4323H77.2217L79.6666 49.7257L82.0518 45.4323H83.0655V52.0512H81.8729V47.7578L81.9922 47.6982Z" fill="#0363FF"/>
<path d="M85.7488 45.3726V51.9916H84.4966V45.3726H85.7488Z" fill="#0363FF"/>
<path d="M88.3132 51.6338C87.7765 51.3356 87.4187 50.9182 87.1205 50.4412C86.8224 49.9045 86.7031 49.3678 86.7031 48.7119C86.7031 48.0559 86.8224 47.4596 87.1205 46.9826C87.4187 46.4459 87.8361 46.0881 88.3132 45.79C88.8498 45.4918 89.3865 45.3726 90.0424 45.3726C90.6984 45.3726 91.0562 45.4918 91.4736 45.6707C91.891 45.8496 92.2488 46.1478 92.5469 46.5055L91.7121 47.2807C91.2947 46.7441 90.6984 46.5055 90.0424 46.5055C89.3865 46.5055 89.2672 46.6248 88.9095 46.8037C88.5517 46.9826 88.3131 47.2807 88.1343 47.6385C87.9554 47.9963 87.8361 48.3541 87.8361 48.8311C87.8361 49.3082 87.9554 49.666 88.1343 50.0237C88.3131 50.3815 88.5517 50.6201 88.9095 50.8586C89.2672 51.0375 89.625 51.1567 90.0424 51.1567C90.6984 51.1567 91.235 50.9182 91.7121 50.3815L92.5469 51.1567C92.2488 51.5145 91.891 51.8127 91.4736 51.9916C91.0562 52.1705 90.5791 52.2897 90.0424 52.2897C89.5058 52.2897 88.8498 52.1704 88.3132 51.8723V51.6338Z" fill="#0363FF"/>
<path d="M98.0922 51.9916H93.3218V45.3726H97.973V46.4459H94.574V48.1156H97.5556V49.1293H94.574V50.8586H98.0922V51.9319V51.9916Z" fill="#0363FF"/>
<path d="M100.18 50.6797C100.359 50.8586 100.418 51.0375 100.418 51.2761C100.418 51.5146 100.418 51.5146 100.418 51.6338C100.418 51.7531 100.359 51.932 100.239 52.1109L99.7026 53.4824H98.8678L99.2256 51.9916C99.1063 51.9916 98.9871 51.8724 98.8678 51.6935C98.8082 51.5742 98.7485 51.3953 98.7485 51.2164C98.7485 51.0375 98.8082 50.799 98.9871 50.6201C99.1659 50.4412 99.3448 50.3816 99.5834 50.3816C99.8219 50.3816 100.001 50.4412 100.18 50.6201V50.6797Z" fill="#0363FF"/>
<path d="M104.592 45.3726V51.9916H103.34V45.3726H104.592Z" fill="#0363FF"/>
<path d="M110.078 47.4597C110.436 47.8175 110.615 48.3542 110.615 49.1294V52.0513H109.422V49.3679C109.422 48.9505 109.303 48.5927 109.124 48.4138C108.945 48.1753 108.647 48.1157 108.289 48.1157C107.931 48.1157 107.574 48.2349 107.335 48.4734C107.097 48.712 106.977 49.0697 106.977 49.5468V52.0513H105.785V46.9827H106.918V47.6982C107.097 47.4597 107.335 47.2808 107.633 47.1616C107.931 47.0423 108.23 46.9827 108.587 46.9827C109.184 46.9827 109.661 47.1616 110.018 47.5193L110.078 47.4597Z" fill="#0363FF"/>
<path d="M116.041 47.4597C116.399 47.8175 116.578 48.3542 116.578 49.1294V52.0513H115.385V49.3679C115.385 48.9505 115.266 48.5927 115.087 48.4138C114.908 48.1753 114.61 48.1157 114.252 48.1157C113.894 48.1157 113.536 48.2349 113.298 48.4734C113.059 48.712 112.94 49.0697 112.94 49.5468V52.0513H111.748V46.9827H112.881V47.6982C113.059 47.4597 113.298 47.2808 113.596 47.1616C113.894 47.0423 114.192 46.9827 114.55 46.9827C115.147 46.9827 115.624 47.1616 115.981 47.5193L116.041 47.4597Z" fill="#0363FF"/>
<path d="M118.605 51.7531C118.188 51.5146 117.89 51.2164 117.651 50.8587C117.413 50.4412 117.293 50.0238 117.293 49.5468C117.293 49.0697 117.413 48.5927 117.651 48.2349C117.89 47.8175 118.188 47.5193 118.605 47.3405C119.023 47.1019 119.44 46.9827 119.917 46.9827C120.394 46.9827 120.871 47.1019 121.229 47.3405C121.646 47.579 121.945 47.8771 122.124 48.2349C122.362 48.6523 122.481 49.0697 122.481 49.5468C122.481 50.0238 122.362 50.5009 122.124 50.8587C121.885 51.2164 121.587 51.5742 121.229 51.7531C120.812 51.9916 120.394 52.1109 119.917 52.1109C119.44 52.1109 118.963 51.9916 118.605 51.7531ZM120.931 50.5605C121.169 50.2624 121.289 49.9046 121.289 49.4275C121.289 48.9505 121.169 48.5927 120.931 48.2945C120.692 47.9964 120.335 47.8771 119.977 47.8771C119.619 47.8771 119.261 47.9964 119.023 48.2945C118.784 48.5927 118.665 48.9505 118.665 49.4275C118.665 49.9046 118.784 50.2624 119.023 50.5605C119.261 50.8587 119.619 50.9779 119.977 50.9779C120.335 50.9779 120.692 50.8587 120.931 50.5605Z" fill="#0363FF"/>
<path d="M125.88 51.9916H124.628L122.601 46.923H123.853L125.284 50.5604L126.775 46.923H127.967L125.94 51.9916H125.88Z" fill="#0363FF"/>
<path d="M131.962 47.4C132.32 47.7578 132.559 48.2945 132.559 49.01V51.9319H131.426V51.2164C131.306 51.4549 131.128 51.6338 130.829 51.7531C130.531 51.8723 130.293 51.9319 129.935 51.9319C129.398 51.9319 128.981 51.8127 128.623 51.5145C128.325 51.2164 128.146 50.8586 128.146 50.4412C128.146 50.0238 128.325 49.6063 128.623 49.3678C128.921 49.1293 129.458 48.9504 130.114 48.9504H131.306C131.306 48.7119 131.306 48.5926 131.187 48.4137C131.068 47.9963 130.71 47.7578 130.114 47.7578C129.518 47.7578 129.577 47.7578 129.339 47.8771C129.1 47.9963 128.862 48.1156 128.683 48.2348L128.265 47.3404C128.504 47.1615 128.862 46.9826 129.219 46.8633C129.577 46.7441 129.935 46.6844 130.352 46.6844C131.068 46.6844 131.605 46.8633 132.022 47.2211L131.962 47.4ZM130.889 50.9779C131.068 50.8586 131.247 50.6797 131.306 50.3815V49.7852H130.233C129.577 49.7852 129.279 50.0238 129.279 50.4412C129.279 50.8586 129.339 50.799 129.518 50.9779C129.696 51.0971 129.875 51.1567 130.173 51.1567C130.472 51.1567 130.65 51.0971 130.889 50.9779Z" fill="#0363FF"/>
<path d="M136.196 51.9916C136.018 51.9916 135.779 52.0513 135.6 52.0513C135.063 52.0513 134.646 51.932 134.348 51.6338C134.05 51.3357 133.93 50.9183 133.93 50.322V47.9964H133.155V46.9827H133.93V45.79H135.123V46.9827H136.375V47.9964H135.123V50.2623C135.123 50.5009 135.123 50.6798 135.302 50.799C135.421 50.9183 135.6 50.9779 135.779 50.9779C135.958 50.9779 136.196 50.9183 136.375 50.799L136.733 51.6935C136.614 51.8127 136.435 51.8724 136.256 51.932L136.196 51.9916Z" fill="#0363FF"/>
<path d="M137.389 45.9093C137.27 45.79 137.15 45.6111 137.15 45.3726C137.15 45.1341 137.21 45.0148 137.389 44.8359C137.508 44.7167 137.747 44.5974 137.926 44.5974C138.104 44.5974 138.343 44.657 138.462 44.7763C138.582 44.8956 138.701 45.0745 138.701 45.2534C138.701 45.4322 138.641 45.6708 138.462 45.79C138.283 45.9093 138.104 46.0286 137.926 46.0286C137.747 46.0286 137.508 45.9689 137.389 45.79V45.9093ZM138.582 46.923V51.9916H137.329V46.923H138.582Z" fill="#0363FF"/>
<path d="M142.338 51.9916H141.086L139.059 46.923H140.311L141.742 50.5604L143.233 46.923H144.425L142.398 51.9916H142.338Z" fill="#0363FF"/>
<path d="M149.434 49.8449H145.737C145.737 50.2027 145.976 50.5008 146.214 50.7393C146.512 50.9779 146.811 51.0375 147.228 51.0375C147.645 51.0375 148.182 50.8586 148.48 50.5008L149.136 51.2164C148.659 51.7531 148.003 52.0512 147.168 52.0512C146.333 52.0512 146.155 51.9319 145.737 51.6934C145.32 51.4549 145.022 51.1567 144.783 50.799C144.545 50.3815 144.425 49.9641 144.425 49.4871C144.425 49.01 144.545 48.533 144.723 48.1752C144.962 47.7578 145.26 47.4596 145.618 47.2808C145.976 47.0422 146.453 46.923 146.93 46.923C147.407 46.923 147.824 47.0422 148.182 47.2211C148.54 47.4596 148.838 47.7578 149.076 48.1156C149.315 48.533 149.375 48.9504 149.375 49.4871C149.375 50.0238 149.375 49.6063 149.375 49.8449H149.434ZM146.095 48.1752C145.856 48.4137 145.737 48.7119 145.678 49.0697H148.301C148.301 48.7119 148.122 48.4137 147.884 48.1752C147.645 47.9367 147.347 47.8174 146.989 47.8174C146.632 47.8174 146.333 47.9367 146.095 48.1752Z" fill="#0363FF"/>
<path d="M152.774 51.8723C152.297 51.753 151.939 51.5145 151.7 51.276L152.118 50.2623C152.356 50.5008 152.714 50.6201 153.072 50.7989C153.429 50.9182 153.847 50.9778 154.205 50.9778C154.562 50.9778 154.98 50.9182 155.218 50.7393C155.457 50.5604 155.576 50.3815 155.576 50.143C155.576 49.9045 155.517 49.7852 155.397 49.666C155.278 49.5467 155.099 49.4871 154.92 49.3678C154.741 49.3082 154.443 49.2485 154.085 49.1293C153.608 49.01 153.251 48.8908 152.952 48.7715C152.654 48.6522 152.416 48.4733 152.177 48.1752C151.939 47.9367 151.879 47.5789 151.879 47.1615C151.879 46.7441 151.998 46.4459 152.177 46.1478C152.356 45.8496 152.654 45.6111 153.012 45.4322C153.37 45.2533 153.847 45.134 154.443 45.134C155.04 45.134 155.218 45.134 155.576 45.3129C155.934 45.4918 156.292 45.5514 156.53 45.7303L156.113 46.7441C155.815 46.5652 155.576 46.4459 155.278 46.3266C154.98 46.267 154.682 46.2074 154.384 46.2074C153.966 46.2074 153.608 46.267 153.429 46.4459C153.191 46.6248 153.131 46.8037 153.131 47.0422C153.131 47.2807 153.191 47.4 153.31 47.5193C153.429 47.6385 153.608 47.6982 153.787 47.8174C153.966 47.877 154.264 47.9367 154.562 48.0559C155.04 48.1752 155.457 48.2945 155.755 48.4137C156.053 48.533 156.292 48.7119 156.53 48.9504C156.769 49.1889 156.828 49.5467 156.828 49.9641C156.828 50.3815 156.709 50.6797 156.53 50.9778C156.351 51.276 156.053 51.5145 155.636 51.6934C155.218 51.8723 154.741 51.9916 154.205 51.9916C153.668 51.9916 153.251 51.9319 152.774 51.753V51.8723Z" fill="#0363FF"/>
<path d="M162.076 49.8449H158.379C158.379 50.2027 158.618 50.5008 158.856 50.7393C159.154 50.9779 159.453 51.0375 159.87 51.0375C160.287 51.0375 160.824 50.8586 161.122 50.5008L161.778 51.2164C161.301 51.7531 160.645 52.0512 159.81 52.0512C158.976 52.0512 158.797 51.9319 158.379 51.6934C157.962 51.4549 157.664 51.1567 157.425 50.799C157.187 50.3815 157.067 49.9641 157.067 49.4871C157.067 49.01 157.187 48.533 157.366 48.1752C157.604 47.7578 157.902 47.4596 158.26 47.2808C158.618 47.0422 159.095 46.923 159.572 46.923C160.049 46.923 160.466 47.0422 160.824 47.2211C161.182 47.4596 161.48 47.7578 161.719 48.1156C161.957 48.533 162.017 48.9504 162.017 49.4871C162.017 50.0238 162.017 49.6063 162.017 49.8449H162.076ZM158.797 48.1752C158.558 48.4137 158.439 48.7119 158.379 49.0697H161.003C161.003 48.7119 160.824 48.4137 160.586 48.1752C160.347 47.9367 160.049 47.8174 159.691 47.8174C159.333 47.8174 159.035 47.9367 158.797 48.1752Z" fill="#0363FF"/>
<path d="M164.759 47.1019C165.057 46.9826 165.356 46.923 165.773 46.923V48.1156C165.713 48.1156 165.594 48.1156 165.475 48.1156C165.057 48.1156 164.7 48.2348 164.461 48.4734C164.223 48.7119 164.103 49.1293 164.103 49.6064V52.0512H162.851V46.9826H164.044V47.7578C164.223 47.4596 164.401 47.2808 164.7 47.1615L164.759 47.1019Z" fill="#0363FF"/>
<path d="M169.112 51.9916H167.86L165.833 46.923H167.085L168.516 50.5604L170.007 46.923H171.199L169.172 51.9916H169.112Z" fill="#0363FF"/>
<path d="M171.677 45.9093C171.557 45.79 171.438 45.6111 171.438 45.3726C171.438 45.1341 171.498 45.0148 171.677 44.8359C171.796 44.7167 172.034 44.5974 172.213 44.5974C172.392 44.5974 172.631 44.657 172.75 44.7763C172.869 44.8956 172.988 45.0745 172.988 45.2534C172.988 45.4322 172.929 45.6708 172.75 45.79C172.631 45.9093 172.392 46.0286 172.213 46.0286C172.034 46.0286 171.796 45.9689 171.677 45.79V45.9093ZM172.869 46.923V51.9916H171.617V46.923H172.869Z" fill="#0363FF"/>
<path d="M174.956 51.7531C174.539 51.5146 174.241 51.2164 174.002 50.8587C173.764 50.4412 173.645 50.0238 173.645 49.5468C173.645 49.0697 173.764 48.5927 174.002 48.2349C174.241 47.8175 174.539 47.5193 174.956 47.3405C175.374 47.1019 175.791 46.9827 176.328 46.9827C176.865 46.9827 177.222 47.1019 177.58 47.2808C177.938 47.5193 178.236 47.8175 178.415 48.1753L177.461 48.712C177.222 48.2349 176.805 47.9964 176.328 47.9964C175.851 47.9964 175.612 48.1157 175.314 48.4138C175.076 48.712 174.897 49.0697 174.897 49.5468C174.897 50.0238 175.016 50.3816 175.314 50.6798C175.553 50.9779 175.91 51.0972 176.328 51.0972C176.745 51.0972 177.222 50.8587 177.461 50.3816L178.415 50.9183C178.236 51.2761 177.938 51.5742 177.58 51.8128C177.222 52.0513 176.805 52.1109 176.328 52.1109C175.851 52.1109 175.374 51.9916 174.956 51.7531Z" fill="#0363FF"/>
<path d="M183.662 49.8449H179.965C179.965 50.2027 180.204 50.5008 180.442 50.7393C180.74 50.9779 181.039 51.0375 181.456 51.0375C181.873 51.0375 182.41 50.8586 182.708 50.5008L183.364 51.2164C182.887 51.7531 182.231 52.0512 181.396 52.0512C180.562 52.0512 180.383 51.9319 179.965 51.6934C179.548 51.4549 179.25 51.1567 179.011 50.799C178.773 50.3815 178.653 49.9641 178.653 49.4871C178.653 49.01 178.773 48.533 178.951 48.1752C179.19 47.7578 179.488 47.4596 179.846 47.2808C180.204 47.0422 180.681 46.923 181.158 46.923C181.635 46.923 182.052 47.0422 182.41 47.2211C182.768 47.4596 183.066 47.7578 183.305 48.1156C183.543 48.533 183.603 48.9504 183.603 49.4871C183.603 50.0238 183.603 49.6063 183.603 49.8449H183.662ZM180.383 48.1752C180.144 48.4137 180.025 48.7119 179.965 49.0697H182.589C182.589 48.7119 182.41 48.4137 182.172 48.1752C181.933 47.9367 181.635 47.8174 181.277 47.8174C180.919 47.8174 180.621 47.9367 180.383 48.1752Z" fill="#0363FF"/>
<path d="M189.804 51.8724C189.447 51.9916 189.029 52.0513 188.612 52.0513C188.194 52.0513 187.717 51.9916 187.36 51.8127C187.002 51.6338 186.704 51.4549 186.465 51.1568C186.227 50.8586 186.167 50.5605 186.167 50.2623C186.167 49.9642 186.286 49.4871 186.525 49.189C186.763 48.8908 187.121 48.5927 187.658 48.2945C187.419 48.056 187.24 47.7578 187.121 47.579C187.002 47.4001 186.942 47.1019 186.942 46.8634C186.942 46.3863 187.121 46.0286 187.479 45.7304C187.837 45.4323 188.314 45.313 188.91 45.313C189.506 45.313 189.924 45.4323 190.222 45.7304C190.52 46.0286 190.699 46.3267 190.699 46.8038C190.699 47.2808 190.58 47.4597 190.401 47.6982C190.162 47.9367 189.864 48.2349 189.387 48.4734L190.759 49.7853C190.937 49.4871 191.057 49.1294 191.116 48.7119L192.13 49.0101C192.011 49.6064 191.832 50.0834 191.534 50.5009L192.369 51.2761L191.653 52.1109L190.818 51.3357C190.52 51.5742 190.162 51.7531 189.804 51.932V51.8724ZM190.043 50.6201L188.373 49.0101C188.016 49.189 187.777 49.4275 187.658 49.6064C187.538 49.7853 187.419 49.9642 187.419 50.2027C187.419 50.4412 187.538 50.6797 187.777 50.8586C188.016 51.0375 188.314 51.0972 188.731 51.0972C189.149 51.0972 189.685 50.9183 190.103 50.6201H190.043ZM188.314 46.3863C188.194 46.5056 188.075 46.6845 188.075 46.8634C188.075 47.0423 188.075 47.1615 188.194 47.2808C188.254 47.4001 188.433 47.579 188.671 47.8175C189.029 47.6386 189.268 47.4597 189.447 47.2808C189.626 47.1019 189.685 46.9826 189.685 46.8038C189.685 46.6249 189.626 46.446 189.506 46.3267C189.387 46.2075 189.208 46.1478 188.97 46.1478C188.731 46.1478 188.493 46.2075 188.373 46.3267L188.314 46.3863Z" fill="#0363FF"/>
<path d="M195.648 51.8723C195.171 51.753 194.813 51.5145 194.575 51.276L194.992 50.2623C195.231 50.5008 195.588 50.6201 195.946 50.7989C196.304 50.9182 196.721 50.9778 197.079 50.9778C197.437 50.9778 197.854 50.9182 198.093 50.7393C198.331 50.5604 198.451 50.3815 198.451 50.143C198.451 49.9045 198.391 49.7852 198.272 49.666C198.153 49.5467 197.974 49.4871 197.795 49.3678C197.616 49.3082 197.318 49.2485 196.96 49.1293C196.483 49.01 196.125 48.8908 195.827 48.7715C195.529 48.6522 195.29 48.4733 195.052 48.1752C194.813 47.9367 194.754 47.5789 194.754 47.1615C194.754 46.7441 194.873 46.4459 195.052 46.1478C195.231 45.8496 195.529 45.6111 195.887 45.4322C196.244 45.2533 196.721 45.134 197.318 45.134C197.914 45.134 198.093 45.134 198.451 45.3129C198.808 45.4918 199.166 45.5514 199.405 45.7303L198.987 46.7441C198.689 46.5652 198.451 46.4459 198.153 46.3266C197.854 46.267 197.556 46.2074 197.258 46.2074C196.841 46.2074 196.483 46.267 196.304 46.4459C196.065 46.6248 196.006 46.8037 196.006 47.0422C196.006 47.2807 196.065 47.4 196.185 47.5193C196.304 47.6385 196.483 47.6982 196.662 47.8174C196.841 47.877 197.139 47.9367 197.437 48.0559C197.914 48.1752 198.331 48.2945 198.63 48.4137C198.928 48.533 199.166 48.7119 199.405 48.9504C199.643 49.1889 199.703 49.5467 199.703 49.9641C199.703 50.3815 199.584 50.6797 199.405 50.9778C199.226 51.276 198.928 51.5145 198.51 51.6934C198.093 51.8723 197.616 51.9916 197.079 51.9916C196.543 51.9916 196.125 51.9319 195.648 51.753V51.8723Z" fill="#0363FF"/>
<path d="M201.313 51.7531C200.895 51.5146 200.597 51.2164 200.359 50.8587C200.12 50.5009 200.001 50.0238 200.001 49.5468C200.001 49.0697 200.12 48.5927 200.359 48.2349C200.597 47.8175 200.895 47.5193 201.313 47.3405C201.73 47.1019 202.148 46.9827 202.625 46.9827C203.102 46.9827 203.579 47.1019 203.937 47.3405C204.354 47.579 204.652 47.8771 204.831 48.2349C205.07 48.6523 205.189 49.0697 205.189 49.5468C205.189 50.0238 205.07 50.5009 204.831 50.8587C204.593 51.2164 204.294 51.5742 203.937 51.7531C203.519 51.9916 203.102 52.1109 202.625 52.1109C202.148 52.1109 201.671 51.9916 201.313 51.7531ZM203.579 50.5605C203.817 50.2624 203.937 49.9046 203.937 49.4275C203.937 48.9505 203.817 48.5927 203.579 48.2945C203.34 47.9964 202.983 47.8771 202.625 47.8771C202.267 47.8771 201.909 47.9964 201.671 48.2945C201.432 48.5927 201.313 48.9505 201.313 49.4275C201.313 49.9046 201.432 50.2624 201.671 50.5605C201.909 50.8587 202.267 50.9779 202.625 50.9779C202.983 50.9779 203.34 50.8587 203.579 50.5605Z" fill="#0363FF"/>
<path d="M207.276 45.0148V51.9916H206.024V45.0148H207.276Z" fill="#0363FF"/>
<path d="M213.18 51.9916H212.047V51.276C211.868 51.5145 211.629 51.6934 211.391 51.8127C211.152 51.9319 210.854 51.9916 210.496 51.9916C209.84 51.9916 209.363 51.8127 209.005 51.4549C208.648 51.0971 208.469 50.5008 208.469 49.7852V46.923H209.661V49.6064C209.661 50.0238 209.781 50.3815 209.96 50.6201C210.138 50.8586 210.437 50.9778 210.735 50.9778C211.033 50.9778 211.391 50.8586 211.629 50.6201C211.868 50.3815 211.987 50.0238 211.987 49.5467V47.0422H213.18V52.1108V51.9916Z" fill="#0363FF"/>
<path d="M216.877 51.9916C216.698 51.9916 216.459 52.0513 216.28 52.0513C215.744 52.0513 215.326 51.932 215.028 51.6338C214.73 51.3357 214.611 50.9183 214.611 50.322V47.9964H213.835V46.9827H214.611V45.79H215.803V46.9827H217.055V47.9964H215.803V50.2623C215.803 50.5009 215.803 50.6798 215.982 50.799C216.101 50.9183 216.28 50.9779 216.459 50.9779C216.638 50.9779 216.877 50.9183 217.055 50.799L217.413 51.6935C217.294 51.8127 217.115 51.8724 216.936 51.932L216.877 51.9916Z" fill="#0363FF"/>
<path d="M218.129 45.9093C218.009 45.79 217.89 45.6111 217.89 45.3726C217.89 45.1341 217.95 45.0148 218.129 44.8359C218.248 44.7167 218.486 44.5974 218.665 44.5974C218.844 44.5974 219.083 44.657 219.202 44.7763C219.321 44.8956 219.441 45.0745 219.441 45.2534C219.441 45.4322 219.381 45.6708 219.202 45.79C219.083 45.9093 218.844 46.0286 218.665 46.0286C218.486 46.0286 218.248 45.9689 218.129 45.79V45.9093ZM219.262 46.923V51.9916H218.009V46.923H219.262Z" fill="#0363FF"/>
<path d="M221.349 51.7531C220.931 51.5146 220.633 51.2164 220.394 50.8587C220.156 50.5009 220.037 50.0238 220.037 49.5468C220.037 49.0697 220.156 48.5927 220.394 48.2349C220.633 47.8175 220.931 47.5193 221.349 47.3405C221.766 47.1019 222.183 46.9827 222.66 46.9827C223.137 46.9827 223.614 47.1019 223.972 47.3405C224.39 47.579 224.688 47.8771 224.867 48.2349C225.105 48.6523 225.224 49.0697 225.224 49.5468C225.224 50.0238 225.105 50.5009 224.867 50.8587C224.628 51.2164 224.33 51.5742 223.972 51.7531C223.555 51.9916 223.137 52.1109 222.66 52.1109C222.183 52.1109 221.706 51.9916 221.349 51.7531ZM223.674 50.5605C223.913 50.2624 224.032 49.9046 224.032 49.4275C224.032 48.9505 223.913 48.5927 223.674 48.2945C223.436 47.9964 223.078 47.8771 222.72 47.8771C222.362 47.8771 222.004 47.9964 221.766 48.2945C221.527 48.5927 221.408 48.9505 221.408 49.4275C221.408 49.9046 221.527 50.2624 221.766 50.5605C222.004 50.8587 222.362 50.9779 222.72 50.9779C223.078 50.9779 223.436 50.8587 223.674 50.5605Z" fill="#0363FF"/>
<path d="M230.353 47.4597C230.711 47.8175 230.89 48.3542 230.89 49.1294V52.0513H229.698V49.3679C229.698 48.9505 229.578 48.5927 229.399 48.4138C229.22 48.1753 228.922 48.1157 228.565 48.1157C228.207 48.1157 227.849 48.2349 227.61 48.4734C227.372 48.712 227.253 49.0697 227.253 49.5468V52.0513H226.06V46.9827H227.193V47.6982C227.372 47.4597 227.61 47.2808 227.909 47.1616C228.207 47.0423 228.505 46.9827 228.863 46.9827C229.459 46.9827 229.936 47.1616 230.294 47.5193L230.353 47.4597Z" fill="#0363FF"/>
</svg>
