<svg width="18" height="19" viewBox="0 0 18 19" fill="none" xmlns="http://www.w3.org/2000/svg">
<path d="M9.4425 10.25L7.7175 11.9675C7.6472 12.0372 7.59141 12.1201 7.55333 12.2115C7.51526 12.3029 7.49565 12.4009 7.49565 12.5C7.49565 12.599 7.51526 12.697 7.55333 12.7884C7.59141 12.8798 7.6472 12.9627 7.7175 13.0325C7.78722 13.1027 7.87017 13.1585 7.96157 13.1966C8.05296 13.2347 8.15099 13.2543 8.25 13.2543C8.34901 13.2543 8.44704 13.2347 8.53843 13.1966C8.62983 13.1585 8.71278 13.1027 8.7825 13.0325L11.7825 10.0325C11.8508 9.96113 11.9043 9.87702 11.94 9.78495C12.015 9.60236 12.015 9.39755 11.94 9.21495C11.9043 9.12289 11.8508 9.03878 11.7825 8.96745L8.7825 5.96745C8.71257 5.89752 8.62955 5.84205 8.53819 5.80421C8.44682 5.76636 8.34889 5.74688 8.25 5.74688C8.15111 5.74688 8.05318 5.76636 7.96181 5.80421C7.87045 5.84205 7.78743 5.89752 7.7175 5.96745C7.64757 6.03738 7.5921 6.1204 7.55426 6.21177C7.51641 6.30313 7.49693 6.40106 7.49693 6.49995C7.49693 6.59885 7.51641 6.69677 7.55426 6.78814C7.5921 6.87951 7.64757 6.96252 7.7175 7.03245L9.4425 8.74995H2.25C2.05109 8.74995 1.86032 8.82897 1.71967 8.96962C1.57902 9.11028 1.5 9.30104 1.5 9.49995C1.5 9.69887 1.57902 9.88963 1.71967 10.0303C1.86032 10.1709 2.05109 10.25 2.25 10.25H9.4425ZM9 1.99995C7.59832 1.99369 6.22293 2.38036 5.02985 3.1161C3.83677 3.85183 2.87374 4.90718 2.25 6.16245C2.16049 6.34147 2.14576 6.54872 2.20905 6.7386C2.27235 6.92848 2.40848 7.08544 2.5875 7.17495C2.76652 7.26446 2.97377 7.27919 3.16365 7.2159C3.35353 7.15261 3.51049 7.01647 3.6 6.83745C4.07414 5.87994 4.79537 5.06642 5.68916 4.48094C6.58295 3.89547 7.61687 3.55929 8.68407 3.50715C9.75127 3.455 10.813 3.68879 11.7596 4.18434C12.7062 4.67989 13.5034 5.41923 14.0686 6.32595C14.6338 7.23267 14.9467 8.27389 14.9748 9.34199C15.0029 10.4101 14.7453 11.4663 14.2286 12.4016C13.7119 13.3368 12.9549 14.1171 12.0357 14.6618C11.1164 15.2065 10.0685 15.4958 9 15.5C7.88166 15.5048 6.78462 15.1942 5.83477 14.6039C4.88492 14.0136 4.12077 13.1674 3.63 12.1625C3.54049 11.9834 3.38353 11.8473 3.19365 11.784C3.00377 11.7207 2.79652 11.7354 2.6175 11.825C2.43848 11.9145 2.30235 12.0714 2.23905 12.2613C2.17576 12.4512 2.19049 12.6584 2.28 12.8375C2.87462 14.0341 3.77814 15.0501 4.8971 15.7805C6.01607 16.5108 7.30984 16.929 8.64459 16.9917C9.97935 17.0544 11.3066 16.7593 12.4891 16.1371C13.6716 15.5148 14.6664 14.5879 15.3706 13.4523C16.0747 12.3167 16.4627 11.0136 16.4944 9.6777C16.526 8.34185 16.2002 7.0218 15.5507 5.85408C14.9011 4.68636 13.9514 3.71338 12.7997 3.03578C11.648 2.35819 10.3362 2.00058 9 1.99995V1.99995Z" fill="#0363FF"/>
</svg>
