<svg width="165" height="50" viewBox="0 0 165 50" fill="none" xmlns="http://www.w3.org/2000/svg">
<path d="M40.2933 18.7363C40.1655 19.5029 40.0377 20.2696 39.8674 20.9937C39.697 21.6326 39.6118 22.3141 39.2285 22.8678C39.1007 22.6974 39.1433 22.4845 39.2285 22.2715C39.5692 21.1215 39.8248 19.9715 39.9526 18.7788C39.9526 18.6085 39.9526 18.4807 40.1229 18.3955C40.1655 18.3955 40.2507 18.3955 40.2933 18.3955V18.6937V18.7363Z" fill="#0363FF"/>
<path d="M40.2934 18.3959C40.2934 18.3959 40.2082 18.3959 40.1656 18.3959C39.9101 18.0551 40.0805 17.6292 39.9953 17.2884C39.9101 16.6921 39.8675 16.1384 39.6971 15.5421C39.6545 15.3291 39.5693 15.1588 39.6971 14.9458C40.0379 15.4143 39.9953 15.968 40.1231 16.4792C40.1231 16.6069 40.1231 16.7347 40.2082 16.8625V18.3959H40.2934Z" fill="#0363FF"/>
<path d="M39.7823 14.9885C40.0804 16.0959 40.2082 17.2459 40.2082 18.4385C40.0378 19.9719 39.6971 21.4201 39.2711 22.9108C38.5896 24.7424 37.7804 26.4461 36.5026 27.9369C34.6711 30.1091 32.3284 31.3443 29.4747 31.6425C27.5154 31.8554 25.6839 31.6425 23.9376 30.7054C23.469 30.4924 23.1283 30.1517 22.6598 29.7684C22.4042 30.961 22.1486 32.111 21.8931 33.261C21.4671 35.1777 21.0838 37.0518 20.6579 38.9685C20.4023 40.0759 19.593 40.8 18.5282 40.7574C17.5486 40.7574 16.9948 40.0759 17.1652 39.1389C17.5911 36.9666 18.0597 34.7944 18.5282 32.6221C19.9764 25.8924 21.4245 19.12 22.8727 12.3903C23.0857 11.4958 23.5116 10.8569 24.4061 10.5588C24.9598 10.3458 25.5561 10.3884 26.0246 10.8143C26.4931 11.1977 26.4931 11.7088 26.3654 12.2625C25.982 14.0088 25.6413 15.7126 25.2579 17.4589C24.6616 20.1849 24.1079 22.9108 23.5116 25.6368C23.4264 25.935 23.5116 26.1905 23.7246 26.4461C25.1302 28.1498 26.9617 28.8313 29.1339 28.5332C32.2432 28.1498 34.2025 26.2757 35.4377 23.5072C36.2044 21.8034 36.6729 20.0145 36.46 18.0978C36.247 15.7552 34.7988 14.0088 32.6692 13.6255C31.8173 13.4551 30.9229 13.5829 30.071 13.7533C29.7302 13.7959 29.4321 13.9237 29.0913 13.9237C28.5376 13.9237 28.0691 13.7959 27.8135 13.2848C27.558 12.7736 27.7284 12.3051 28.0691 11.8792C28.495 11.2829 29.1339 10.9421 29.8154 10.7718C32.4136 10.0477 34.9266 10.218 37.2693 11.7088C38.5471 12.5607 39.3137 13.7959 39.8249 15.2015L39.7823 14.9885Z" fill="#0363FF"/>
<path d="M22.1912 0.0806458C22.4893 -0.00454083 22.7449 -0.0471341 23.0005 0.0806458C23.9375 0.549172 24.1505 0.88992 23.9375 1.91216C23.1282 5.66037 22.319 9.45117 21.5097 13.1994C20.53 17.7143 19.593 22.2718 18.6133 26.7866C18.443 27.5959 18.4004 28.4052 17.9744 29.1719C17.5485 29.9385 16.5263 30.4071 15.717 30.1941C15.0781 30.0237 14.6948 29.47 14.7799 28.7885C15.0781 26.957 15.5466 25.1255 15.93 23.3366C16.4837 20.6958 17.0374 18.0976 17.6337 15.4568C17.6763 15.2439 17.6337 15.0735 17.5485 14.8605C16.6966 13.4123 15.504 12.4327 13.7577 12.2623C11.2873 11.9642 9.24282 12.816 7.53909 14.4772C6.09091 15.8828 5.32423 17.6717 4.98349 19.631C4.72793 21.0365 4.72793 22.4421 5.19646 23.8051C5.70757 25.3385 7.19834 26.3607 8.81688 26.5737C9.9669 26.7015 11.0317 26.4459 12.0966 26.2755C12.6503 26.1903 13.2466 26.4033 13.4596 26.7866C13.6725 27.2126 13.5447 27.6811 13.1188 28.1496C12.5225 28.8311 11.6706 29.0441 10.8614 29.2145C8.90207 29.6404 6.94278 29.6404 5.06868 28.8311C3.10939 27.9793 1.87418 26.4885 1.40565 24.4014C0.638971 20.9088 1.53343 17.6717 3.36494 14.6901C4.64274 12.5605 6.47425 10.9419 8.7317 9.8771C9.88172 9.32339 11.1169 9.02524 12.4373 8.94005C14.0133 8.85487 15.4614 9.15302 16.7818 10.0049C16.9522 10.1327 17.1226 10.2604 17.293 10.4308C17.6337 10.7716 17.9744 11.1123 18.4004 11.5382C18.6133 10.516 18.8263 9.57895 19.0393 8.6419C19.5078 6.38445 20.0189 4.12701 20.4875 1.91216C20.7004 0.932513 21.2967 0.421391 22.1912 0.123238V0.0806458Z" fill="#0363FF"/>
<path d="M2.38522 48.3386C2.38522 48.509 2.38523 48.722 2.30004 48.8924C2.25745 49.0627 2.17226 49.2331 2.08707 49.4035C2.00189 49.5313 1.87411 49.659 1.70373 49.7442C1.53336 49.8294 1.36298 49.872 1.15002 49.872H0.425933C0.38334 49.872 0.298153 49.872 0.212967 49.872C0.12778 49.872 0.0425933 49.872 0 49.872C0 49.872 0 49.872 0 49.8294C0 49.7442 0 49.7442 0 49.7016C0.0851866 49.7016 0.127781 49.7016 0.170374 49.6164C0.170374 49.6164 0.212967 49.5313 0.212967 49.4887V47.1034C0.212967 47.0608 0.212967 46.9757 0.170374 46.9757C0.127781 46.9757 0.0851866 46.9331 0 46.8905C0 46.8905 0 46.8905 0 46.8479C0 46.8053 0 46.7627 0 46.7627C0.0425933 46.7627 0.0851846 46.7627 0.127778 46.7627C0.127778 46.7627 0.212966 46.7627 0.255559 46.7627H0.340744H1.15002C1.36298 46.7627 1.53336 46.7627 1.66114 46.8905C1.83151 46.9757 1.95929 47.1034 2.04448 47.2312C2.12966 47.359 2.21485 47.5294 2.25744 47.7423C2.30004 47.9127 2.34263 48.1257 2.34263 48.3386H2.38522ZM1.9167 48.4238C1.9167 48.1683 1.9167 47.9553 1.87411 47.7849C1.87411 47.6146 1.78892 47.4442 1.70373 47.359C1.61855 47.2738 1.53336 47.146 1.40558 47.1034C1.2778 47.0608 1.15002 47.0183 0.979644 47.0183H0.766677V49.4461C0.766677 49.4461 0.766677 49.4887 0.766677 49.5313C0.766677 49.5313 0.766677 49.5313 0.766677 49.5739C0.766677 49.5739 0.809273 49.5739 0.851866 49.5739C0.851866 49.5739 0.937053 49.5739 1.02224 49.5739C1.32039 49.5739 1.53336 49.4461 1.70373 49.2331C1.83151 49.0201 1.9167 48.722 1.9167 48.3386V48.4238Z" fill="#0363FF"/>
<path d="M7.96493 49.5315C7.96493 49.5315 7.96493 49.5741 7.96493 49.6167C7.96493 49.6167 7.96493 49.6167 7.96493 49.6593C7.96493 49.6593 7.96493 49.6593 8.05012 49.6593C8.05012 49.6593 8.1353 49.6593 8.1779 49.6593C8.1779 49.6593 8.1779 49.6593 8.1779 49.7445C8.1779 49.8297 8.1779 49.7445 8.1779 49.7871C8.1779 49.7871 8.1779 49.7871 8.1779 49.8297C8.09271 49.8297 8.00752 49.8297 7.92234 49.8297C7.83715 49.8297 7.75196 49.8297 7.70937 49.8297C7.66678 49.8297 7.58159 49.8297 7.4964 49.8297C7.41122 49.8297 7.32603 49.8297 7.24084 49.8297C7.24084 49.8297 7.24084 49.8297 7.24084 49.7871C7.24084 49.7019 7.24084 49.6593 7.24084 49.6593C7.28344 49.6593 7.32603 49.6593 7.36862 49.6593C7.36862 49.6593 7.41122 49.6593 7.45381 49.6593C7.45381 49.6593 7.45381 49.6593 7.45381 49.6167C7.45381 49.6167 7.45381 49.5741 7.45381 49.5315V47.1463C7.45381 47.1463 7.45381 47.1037 7.45381 47.0611C7.45381 47.0611 7.45381 47.0611 7.45381 47.0185C7.45381 47.0185 7.45381 47.0185 7.36862 47.0185C7.36862 47.0185 7.28344 47.0185 7.24084 47.0185C7.24084 47.0185 7.24084 47.0185 7.24084 46.9333C7.24084 46.8907 7.24084 46.8481 7.24084 46.8481C7.32603 46.8481 7.41122 46.8481 7.4964 46.8481C7.58159 46.8481 7.66678 46.8481 7.70937 46.8481C7.75196 46.8481 7.83715 46.8481 7.92234 46.8481C8.00752 46.8481 8.09271 46.8481 8.1779 46.8481C8.1779 46.8481 8.1779 46.8481 8.1779 46.8907C8.1779 46.8907 8.1779 46.8907 8.1779 46.9333C8.1779 46.9759 8.1779 47.0185 8.1779 47.0185C8.1353 47.0185 8.09271 47.0185 8.05012 47.0185C8.05012 47.0185 8.00752 47.0185 7.96493 47.0185C7.96493 47.0185 7.96493 47.0185 7.96493 47.0611C7.96493 47.1037 7.96493 47.1037 7.96493 47.1463V49.5315Z" fill="#0363FF"/>
<path d="M13.7576 48.5945V49.4889C13.7576 49.5741 13.7576 49.6167 13.8428 49.6593C13.8854 49.6593 13.9706 49.7019 14.0558 49.7445C14.0558 49.7445 14.0984 49.7445 14.0984 49.8297C14.0984 49.9149 14.0984 49.8723 14.0984 49.9149C14.0132 49.9149 13.928 49.9149 13.8428 49.9149C13.7576 49.9149 13.6299 49.9149 13.5021 49.9149C13.3743 49.9149 13.3317 49.9149 13.2465 49.9149C13.1613 49.9149 13.0762 49.9149 13.0336 49.9149C13.0336 49.9149 13.0336 49.9149 13.0336 49.8723C13.0336 49.7871 13.0336 49.7445 13.0336 49.7445C13.0762 49.7445 13.1187 49.7445 13.1613 49.7445C13.1613 49.7445 13.2039 49.7445 13.2465 49.7445C13.2465 49.7445 13.2465 49.7445 13.2465 49.7019C13.2465 49.7019 13.2465 49.6593 13.2465 49.6167V47.2315C13.2465 47.1889 13.2465 47.1037 13.2039 47.1037C13.2039 47.1037 13.1187 47.0611 12.991 47.0185C12.991 47.0185 12.991 47.0185 12.991 46.9333C12.991 46.8907 12.991 46.8481 12.991 46.8481C13.0762 46.8481 13.1187 46.8481 13.2039 46.8481C13.2891 46.8481 13.3743 46.8481 13.4169 46.8481H13.928C14.1836 46.8481 14.354 46.9333 14.5243 47.0611C14.6947 47.1889 14.7373 47.4445 14.7373 47.7C14.7373 47.9556 14.7373 47.9556 14.6947 48.0408C14.6947 48.1685 14.6095 48.2537 14.5243 48.3389C14.4391 48.4241 14.354 48.5093 14.2688 48.5519C14.1836 48.5945 14.0558 48.6371 13.928 48.6371H13.6725L13.7576 48.5945ZM13.8854 48.3389C14.0132 48.3389 14.141 48.2963 14.2262 48.2111C14.3114 48.1259 14.354 47.9556 14.354 47.7C14.354 47.4445 14.354 47.3167 14.2688 47.1889C14.1836 47.0611 14.0558 47.0185 13.8854 47.0185H13.8002V48.3389H13.8854Z" fill="#0363FF"/>
<path d="M20.4022 48.5945V49.4889C20.4022 49.5741 20.4022 49.6167 20.4874 49.6593C20.53 49.6593 20.6151 49.7019 20.7003 49.7445C20.7003 49.7445 20.7429 49.7445 20.7429 49.8297C20.7429 49.9149 20.7429 49.8723 20.7429 49.9149C20.6577 49.9149 20.5726 49.9149 20.4874 49.9149C20.4022 49.9149 20.2744 49.9149 20.1466 49.9149C20.0188 49.9149 19.9762 49.9149 19.8911 49.9149C19.8059 49.9149 19.7207 49.9149 19.6781 49.9149C19.6781 49.9149 19.6781 49.9149 19.6781 49.8723C19.6781 49.7871 19.6781 49.7445 19.6781 49.7445C19.7207 49.7445 19.7633 49.7445 19.8059 49.7445C19.8059 49.7445 19.8485 49.7445 19.8911 49.7445C19.8911 49.7445 19.8911 49.7445 19.8911 49.7019C19.8911 49.7019 19.8911 49.6593 19.8911 49.6167V47.2315C19.8911 47.1889 19.8911 47.1037 19.8485 47.1037C19.8485 47.1037 19.7633 47.0611 19.6355 47.0185C19.6355 47.0185 19.6355 47.0185 19.6355 46.9333C19.6355 46.8907 19.6355 46.8481 19.6355 46.8481C19.7207 46.8481 19.7633 46.8481 19.8485 46.8481C19.9337 46.8481 20.0188 46.8481 20.0614 46.8481H20.5725C20.8281 46.8481 20.9985 46.9333 21.1689 47.0611C21.3392 47.1889 21.3818 47.4445 21.3818 47.7C21.3818 47.9556 21.3818 47.9556 21.3392 48.0408C21.3392 48.1685 21.254 48.2537 21.1689 48.3389C21.0837 48.4241 20.9985 48.5093 20.9133 48.5519C20.8281 48.5945 20.7003 48.6371 20.5725 48.6371H20.317L20.4022 48.5945ZM20.53 48.3389C20.6577 48.3389 20.7855 48.2963 20.8707 48.2111C20.9559 48.1259 20.9985 47.9556 20.9985 47.7C20.9985 47.4445 20.9985 47.3167 20.9133 47.1889C20.8281 47.0611 20.7003 47.0185 20.53 47.0185H20.4448V48.3389H20.53Z" fill="#0363FF"/>
<path d="M27.0468 49.4886C27.0468 49.5737 27.0468 49.6163 27.132 49.6163C27.1746 49.6163 27.3024 49.6163 27.4302 49.6163H27.558C27.6006 49.6163 27.6857 49.6163 27.7283 49.6163C27.7709 49.6163 27.8135 49.5737 27.8561 49.5311C27.8561 49.5311 27.8987 49.446 27.9413 49.3608C27.9413 49.2756 27.9839 49.233 28.0265 49.1052C28.0265 49.1052 28.0265 49.1052 28.0691 49.1052C28.0691 49.1052 28.0691 49.1052 28.1117 49.1052C28.1117 49.1904 28.1117 49.3182 28.0691 49.446C28.0691 49.5737 28.0691 49.7015 28.0691 49.7867C28.0691 49.7867 28.0691 49.8293 28.0691 49.8719C28.0691 49.8719 28.0265 49.8719 27.9839 49.8719C27.9839 49.8719 27.8987 49.8719 27.8561 49.8719C27.8561 49.8719 27.7709 49.8719 27.7283 49.8719C27.7283 49.8719 27.6431 49.8719 27.6006 49.8719H26.7913C26.7061 49.8719 26.6635 49.8719 26.5783 49.8719C26.4931 49.8719 26.4079 49.8719 26.3228 49.8719C26.3228 49.8719 26.3228 49.8719 26.3228 49.8293C26.3228 49.7441 26.3228 49.7015 26.3228 49.7015C26.4079 49.7015 26.4931 49.6589 26.4931 49.6163C26.4931 49.6163 26.5357 49.5311 26.5357 49.4886V47.1033C26.5357 47.1033 26.5357 47.0607 26.5357 47.0181C26.5357 47.0181 26.5357 47.0181 26.5357 46.9755C26.5357 46.9755 26.5357 46.9755 26.4505 46.9755C26.4505 46.9755 26.3653 46.9755 26.3228 46.9755C26.3228 46.9755 26.3228 46.9755 26.3228 46.8904C26.3228 46.8478 26.3228 46.8052 26.3228 46.8052C26.4079 46.8052 26.4931 46.8052 26.5783 46.8052C26.6635 46.8052 26.7487 46.8052 26.7913 46.8052C26.8339 46.8052 26.8765 46.8052 26.9191 46.8052C26.9191 46.8052 27.0042 46.8052 27.0468 46.8052C27.0894 46.8052 27.132 46.8052 27.1746 46.8052C27.2172 46.8052 27.2598 46.8052 27.3024 46.8052C27.3024 46.8052 27.3024 46.8052 27.3024 46.8478C27.3024 46.8478 27.3024 46.8478 27.3024 46.8904C27.3024 46.933 27.3024 46.9755 27.3024 46.9755C27.2172 46.9755 27.132 47.0181 27.0894 47.0607C27.0894 47.0607 27.0468 47.1459 27.0468 47.1885V49.5311V49.4886Z" fill="#0363FF"/>
<path d="M34.8414 48.7219C34.8414 48.8922 34.8414 49.0626 34.8414 49.233C34.8414 49.4034 34.7562 49.5311 34.7136 49.6163C34.6284 49.7441 34.5432 49.8293 34.4154 49.8719C34.2876 49.9145 34.1599 49.9571 33.9895 49.9571C33.8191 49.9571 33.6062 49.9571 33.4784 49.8719C33.3506 49.8293 33.2654 49.7015 33.1802 49.6163C33.095 49.5311 33.0524 49.3608 33.0524 49.233C33.0524 49.1052 33.0524 48.9348 33.0524 48.7645V47.1885C33.0524 47.1033 33.0524 47.0607 33.0098 47.0607C32.9673 47.0607 32.9247 47.0181 32.8395 46.9755C32.8395 46.9755 32.8395 46.9755 32.8395 46.8904C32.8395 46.8478 32.8395 46.8052 32.8395 46.8052C32.9247 46.8052 32.9673 46.8052 33.0524 46.8052C33.1376 46.8052 33.2228 46.8052 33.308 46.8052C33.3932 46.8052 33.4784 46.8052 33.5636 46.8052C33.6487 46.8052 33.7339 46.8052 33.8191 46.8052C33.8191 46.8052 33.8191 46.8052 33.8191 46.8478C33.8191 46.8904 33.8191 46.933 33.8191 46.933C33.7339 46.933 33.6488 46.933 33.6062 47.0181C33.6062 47.0181 33.5636 47.1033 33.5636 47.1459V48.6367C33.5636 48.9774 33.6062 49.233 33.6913 49.4034C33.7765 49.5737 33.9469 49.6589 34.1599 49.6589C34.3728 49.6589 34.5432 49.5737 34.6284 49.4034C34.7136 49.233 34.7562 48.9774 34.7562 48.6367V47.1885C34.7562 47.1459 34.7562 47.0607 34.7136 47.0607C34.671 47.0607 34.6284 47.0181 34.5432 46.9755C34.5432 46.9755 34.5432 46.9755 34.5432 46.8904C34.5432 46.8904 34.5432 46.8904 34.5432 46.8478C34.6284 46.8478 34.671 46.8478 34.7136 46.8478C34.7562 46.8478 34.8414 46.8478 34.884 46.8478C34.9266 46.8478 35.0117 46.8478 35.0969 46.8478C35.1395 46.8478 35.2247 46.8478 35.2673 46.8478C35.2673 46.8478 35.2673 46.8478 35.2673 46.8904C35.2673 46.933 35.2673 46.9755 35.2673 46.9755C35.1821 46.9755 35.1395 46.9755 35.0969 47.0607C35.0969 47.0607 35.0543 47.1459 35.0543 47.1885V48.7645L34.8414 48.7219Z" fill="#0363FF"/>
<path d="M41.3154 47.572C41.3154 47.572 41.2728 47.572 41.2303 47.572C41.1877 47.572 41.1877 47.572 41.1451 47.572C41.1451 47.572 41.1451 47.572 41.1451 47.5294C41.1025 47.359 41.0173 47.2312 40.9321 47.146C40.8469 47.0609 40.7191 47.0183 40.5914 47.0183C40.4636 47.0183 40.3784 47.0183 40.2932 47.146C40.208 47.2312 40.1654 47.3164 40.1654 47.4868C40.1654 47.6572 40.1654 47.6998 40.2506 47.7849C40.2932 47.8701 40.3784 47.9127 40.4636 47.9553C40.5488 47.9979 40.634 48.0405 40.7617 48.1257C40.8469 48.1683 40.9747 48.2535 41.0599 48.2961C41.1451 48.3812 41.2303 48.4664 41.2729 48.5942C41.3154 48.722 41.358 48.8498 41.358 49.0627C41.358 49.2757 41.358 49.3183 41.3154 49.4035C41.3154 49.5313 41.2303 49.6165 41.1877 49.7016C41.1025 49.7868 41.0599 49.872 40.9321 49.9146C40.8469 49.9572 40.7191 49.9998 40.5488 49.9998C40.3784 49.9998 40.2506 49.9998 40.1228 49.9146C39.9951 49.872 39.9099 49.8294 39.8247 49.7868C39.8247 49.659 39.8247 49.5313 39.8247 49.4035C39.8247 49.2757 39.8247 49.1479 39.7821 49.0201C39.7821 49.0201 39.8247 49.0201 39.8673 49.0201C39.9099 49.0201 39.9099 49.0201 39.9099 49.0201C39.9099 49.0201 39.9099 49.0201 39.9099 49.1053C39.9099 49.2331 39.9951 49.3183 39.9951 49.4035C39.9951 49.4887 40.0802 49.5739 40.1228 49.6164C40.1654 49.659 40.208 49.7016 40.2932 49.7442C40.3784 49.7442 40.421 49.7442 40.5062 49.7442C40.5914 49.7442 40.6339 49.7442 40.6765 49.7442C40.7191 49.7442 40.7617 49.7016 40.8043 49.6164C40.8043 49.5739 40.8469 49.5313 40.8895 49.4461C40.9321 49.3609 40.8895 49.3183 40.8895 49.2757C40.8895 49.1479 40.8895 49.0201 40.8043 48.935C40.7191 48.8498 40.6765 48.8072 40.5914 48.722C40.5062 48.6794 40.421 48.6368 40.2932 48.5942C40.1654 48.5516 40.0802 48.509 39.9951 48.4238C39.9099 48.3387 39.8247 48.2535 39.7821 48.1683C39.7395 48.0405 39.6969 47.9127 39.6969 47.6997C39.6969 47.4868 39.6969 47.4442 39.7395 47.359C39.7395 47.2312 39.8247 47.146 39.9099 47.0608C39.9951 46.9757 40.0376 46.9331 40.1654 46.8479C40.2506 46.8053 40.3784 46.7627 40.4636 46.7627C40.5488 46.7627 40.6765 46.7627 40.7617 46.8053C40.8469 46.8479 40.9747 46.8905 41.1025 46.9331C41.1025 47.0183 41.1025 47.146 41.1025 47.2738C41.1025 47.4016 41.1025 47.4868 41.1025 47.6146L41.3154 47.572Z" fill="#0363FF"/>
<path d="M57.3306 17.7143V27.17H54.7324V17.331C54.7324 16.1384 55.4991 15.3291 56.7343 15.3291H66.2752V27.1274H63.677V17.6717H61.8029V27.1274H59.2473V17.6717H57.3732L57.3306 17.7143Z" fill="#0363FF"/>
<path d="M70.8327 15.3716V27.1699H68.1067V15.3716H70.8327Z" fill="#0363FF"/>
<path d="M72.6216 25.2106V17.3735C72.6216 16.1809 73.3883 15.3716 74.6235 15.3716H80.5865L78.8402 17.7568H75.3901V24.8273H79.9902V27.2125H74.6661C73.4309 27.2125 72.6642 26.4458 72.6642 25.2532L72.6216 25.2106Z" fill="#0363FF"/>
<path d="M81.3958 15.3716H89.4033L87.657 17.7568H84.0791V19.9717H87.9125V22.1865H84.0791V24.8699H88.7644V27.2551H81.3958V15.4568V15.3716Z" fill="#0363FF"/>
<path d="M98.4757 22.3569H93.4923V17.3735C93.4923 16.1809 94.259 15.3716 95.4942 15.3716H101.67L99.9239 17.7568H96.2183V20.0994H101.202V25.2106C101.202 26.4032 100.435 27.1699 99.1998 27.1699H93.4923V24.7847H98.4757V22.3143V22.3569Z" fill="#0363FF"/>
<path d="M102.778 25.2106V17.3735C102.778 16.1809 103.544 15.3716 104.779 15.3716H109.422C110.657 15.3716 111.424 16.1383 111.424 17.3735V25.2106C111.424 26.4032 110.657 27.1699 109.422 27.1699H104.779C103.544 27.1699 102.778 26.4032 102.778 25.2106ZM108.741 24.7847V17.7142H105.461V24.7847H108.741Z" fill="#0363FF"/>
<path d="M113.17 15.3716H115.854V24.7847H120.837L119.048 27.1699H113.128V15.3716H113.17Z" fill="#0363FF"/>
<path d="M121.604 25.1682V15.3291H124.245V24.7848H127.524V15.3291H130.165V27.1274H123.606C122.37 27.1274 121.604 26.3608 121.604 25.1256V25.1682Z" fill="#0363FF"/>
<path d="M131.273 17.7569V15.3291H140.771L139.025 17.7569H136.937V27.17H134.212V17.7569H131.273Z" fill="#0363FF"/>
<path d="M144.221 15.3716V27.1699H141.495V15.3716H144.221Z" fill="#0363FF"/>
<path d="M146.01 25.2106V17.3735C146.01 16.1809 146.777 15.3716 148.012 15.3716H152.654C153.89 15.3716 154.656 16.1383 154.656 17.3735V25.2106C154.656 26.4032 153.89 27.1699 152.654 27.1699H148.012C146.777 27.1699 146.01 26.4032 146.01 25.2106ZM151.973 24.7847V17.7142H148.693V24.7847H151.973Z" fill="#0363FF"/>
<path d="M159.001 17.7143V27.17H156.36V17.331C156.36 16.1384 157.127 15.3291 158.362 15.3291H164.921V27.1274H162.281V17.6717H159.001V17.7143Z" fill="#0363FF"/>
<path d="M58.5659 34.0702L57.1177 36.6258H56.7344L55.2862 34.1554V37.1795H54.4343V32.4517H55.1584L56.9047 35.5184L58.6085 32.4517H59.3326V37.1795H58.4807V34.1128L58.5659 34.0702Z" fill="#0363FF"/>
<path d="M61.2493 32.4092V37.137H60.3549V32.4092H61.2493Z" fill="#0363FF"/>
<path d="M63.0808 36.8815C62.6975 36.6685 62.4419 36.3704 62.2289 36.0296C62.016 35.6463 61.9308 35.2629 61.9308 34.7944C61.9308 34.3259 62.016 33.8999 62.2289 33.5592C62.4419 33.1759 62.7401 32.9203 63.0808 32.7073C63.4641 32.4944 63.8475 32.4092 64.316 32.4092C64.7845 32.4092 65.0401 32.4944 65.3383 32.6221C65.6364 32.7499 65.892 32.9629 66.1049 33.2184L65.5086 33.7722C65.2105 33.3888 64.7845 33.2184 64.316 33.2184C63.8475 33.2184 63.7623 33.3036 63.5067 33.4314C63.2512 33.5592 63.0808 33.7722 62.953 34.0277C62.8252 34.2833 62.7401 34.5388 62.7401 34.8796C62.7401 35.2203 62.8252 35.4759 62.953 35.7315C63.0808 35.987 63.2512 36.1574 63.5067 36.3278C63.7623 36.4555 64.0179 36.5407 64.316 36.5407C64.7845 36.5407 65.1679 36.3704 65.5086 35.987L66.1049 36.5407C65.892 36.7963 65.6364 37.0093 65.3383 37.137C65.0401 37.2648 64.6993 37.35 64.316 37.35C63.9327 37.35 63.4641 37.2648 63.0808 37.0518V36.8815Z" fill="#0363FF"/>
<path d="M70.066 37.137H66.6586V32.4092H69.9808V33.1759H67.553V34.3685H69.6827V35.0926H67.553V36.3278H70.066V37.0944V37.137Z" fill="#0363FF"/>
<path d="M71.5568 36.1998C71.6846 36.3276 71.7272 36.4553 71.7272 36.6257C71.7272 36.7961 71.7272 36.7961 71.7272 36.8813C71.7272 36.9665 71.6846 37.0942 71.5994 37.222L71.216 38.2017H70.6197L70.8753 37.1368C70.7901 37.1368 70.7049 37.0517 70.6197 36.9239C70.5771 36.8387 70.5345 36.7109 70.5345 36.5831C70.5345 36.4553 70.5771 36.285 70.7049 36.1572C70.8327 36.0294 70.9605 35.9868 71.1308 35.9868C71.3012 35.9868 71.429 36.0294 71.5568 36.1572V36.1998Z" fill="#0363FF"/>
<path d="M74.7088 32.4092V37.137H73.8143V32.4092H74.7088Z" fill="#0363FF"/>
<path d="M78.6273 33.8998C78.8828 34.1554 79.0106 34.5387 79.0106 35.0924V37.1795H78.1587V35.2628C78.1587 34.9647 78.0736 34.7091 77.9458 34.5813C77.818 34.411 77.605 34.3684 77.3495 34.3684C77.0939 34.3684 76.8383 34.4535 76.668 34.6239C76.4976 34.7943 76.4124 35.0498 76.4124 35.3906V37.1795H75.5605V33.5591H76.3698V34.0702C76.4976 33.8998 76.668 33.772 76.8809 33.6869C77.0939 33.6017 77.3069 33.5591 77.5624 33.5591C77.9884 33.5591 78.3291 33.6869 78.5847 33.9424L78.6273 33.8998Z" fill="#0363FF"/>
<path d="M82.8865 33.8998C83.1421 34.1554 83.2699 34.5387 83.2699 35.0924V37.1795H82.418V35.2628C82.418 34.9647 82.3328 34.7091 82.2051 34.5813C82.0773 34.411 81.8643 34.3684 81.6087 34.3684C81.3532 34.3684 81.0976 34.4535 80.9273 34.6239C80.7569 34.7943 80.6717 35.0498 80.6717 35.3906V37.1795H79.8198V33.5591H80.6291V34.0702C80.7569 33.8998 80.9273 33.772 81.1402 33.6869C81.3532 33.6017 81.5662 33.5591 81.8217 33.5591C82.2476 33.5591 82.5884 33.6869 82.844 33.9424L82.8865 33.8998Z" fill="#0363FF"/>
<path d="M84.7181 36.9665C84.4199 36.7962 84.2069 36.5832 84.0366 36.3276C83.8662 36.0295 83.781 35.7313 83.781 35.3906C83.781 35.0498 83.8662 34.7091 84.0366 34.4535C84.2069 34.1554 84.4199 33.9424 84.7181 33.8146C85.0162 33.6443 85.3144 33.5591 85.6551 33.5591C85.9959 33.5591 86.3366 33.6443 86.5922 33.8146C86.8903 33.985 87.1033 34.198 87.2311 34.4535C87.4014 34.7517 87.4866 35.0498 87.4866 35.3906C87.4866 35.7313 87.4014 36.0721 87.2311 36.3276C87.0607 36.5832 86.8477 36.8388 86.5922 36.9665C86.294 37.1369 85.9959 37.2221 85.6551 37.2221C85.3144 37.2221 84.9736 37.1369 84.7181 36.9665ZM86.3792 36.1147C86.5496 35.9017 86.6347 35.6462 86.6347 35.3054C86.6347 34.9647 86.5496 34.7091 86.3792 34.4961C86.2088 34.2832 85.9533 34.198 85.6977 34.198C85.4421 34.198 85.1866 34.2832 85.0162 34.4961C84.8458 34.7091 84.7606 34.9647 84.7606 35.3054C84.7606 35.6462 84.8458 35.9017 85.0162 36.1147C85.1866 36.3276 85.4421 36.4128 85.6977 36.4128C85.9533 36.4128 86.2088 36.3276 86.3792 36.1147Z" fill="#0363FF"/>
<path d="M89.9144 37.137H89.0199L87.5718 33.5166H88.4662L89.4885 36.1148L90.5533 33.5166H91.4052L89.957 37.137H89.9144Z" fill="#0363FF"/>
<path d="M94.2589 33.8573C94.5145 34.1129 94.6849 34.4962 94.6849 35.0073V37.0944H93.8756V36.5833C93.7904 36.7537 93.6626 36.8814 93.4497 36.9666C93.2367 37.0518 93.0663 37.0944 92.8108 37.0944C92.4274 37.0944 92.1293 37.0092 91.8737 36.7963C91.6607 36.5833 91.533 36.3277 91.533 36.0296C91.533 35.7314 91.6607 35.4333 91.8737 35.2629C92.0867 35.0925 92.47 34.9647 92.9385 34.9647H93.7904C93.7904 34.7944 93.7904 34.7092 93.7052 34.5814C93.62 34.2832 93.3645 34.1129 92.9385 34.1129C92.5126 34.1129 92.5552 34.1129 92.3848 34.1981C92.2145 34.2832 92.0441 34.3684 91.9163 34.4536L91.6182 33.8147C91.7885 33.6869 92.0441 33.5592 92.2996 33.474C92.5552 33.3888 92.8108 33.3462 93.1089 33.3462C93.62 33.3462 94.0034 33.474 94.3015 33.7295L94.2589 33.8573ZM93.4923 36.4129C93.62 36.3277 93.7478 36.1999 93.7904 35.987V35.561H93.0237C92.5552 35.561 92.3422 35.7314 92.3422 36.0296C92.3422 36.3277 92.3848 36.2851 92.5126 36.4129C92.6404 36.4981 92.7682 36.5407 92.9811 36.5407C93.1941 36.5407 93.3219 36.4981 93.4923 36.4129Z" fill="#0363FF"/>
<path d="M97.2831 37.1372C97.1553 37.1372 96.9849 37.1798 96.8572 37.1798C96.4738 37.1798 96.1757 37.0946 95.9627 36.8817C95.7497 36.6687 95.6645 36.3705 95.6645 35.9446V34.2835H95.1108V33.5594H95.6645V32.7075H96.5164V33.5594H97.4109V34.2835H96.5164V35.902C96.5164 36.0724 96.5164 36.2002 96.6442 36.2854C96.7294 36.3705 96.8572 36.4131 96.9849 36.4131C97.1127 36.4131 97.2831 36.3705 97.4109 36.2854L97.6664 36.9243C97.5813 37.0094 97.4535 37.052 97.3257 37.0946L97.2831 37.1372Z" fill="#0363FF"/>
<path d="M98.1351 32.7925C98.0499 32.7073 97.9647 32.5796 97.9647 32.4092C97.9647 32.2388 98.0073 32.1536 98.1351 32.0258C98.2203 31.9407 98.3907 31.8555 98.5184 31.8555C98.6462 31.8555 98.8166 31.8981 98.9018 31.9832C98.987 32.0684 99.0722 32.1962 99.0722 32.324C99.0722 32.4518 99.0296 32.6221 98.9018 32.7073C98.774 32.7925 98.6462 32.8777 98.5184 32.8777C98.3907 32.8777 98.2203 32.8351 98.1351 32.7073V32.7925ZM98.987 33.5166V37.137H98.0925V33.5166H98.987Z" fill="#0363FF"/>
<path d="M101.67 37.137H100.776L99.3276 33.5166H100.222L101.244 36.1148L102.309 33.5166H103.161L101.713 37.137H101.67Z" fill="#0363FF"/>
<path d="M106.739 35.6037H104.098C104.098 35.8592 104.268 36.0722 104.439 36.2426C104.652 36.4129 104.865 36.4555 105.163 36.4555C105.461 36.4555 105.844 36.3278 106.057 36.0722L106.526 36.5833C106.185 36.9667 105.716 37.1796 105.12 37.1796C104.524 37.1796 104.396 37.0944 104.098 36.9241C103.8 36.7537 103.587 36.5407 103.416 36.2852C103.246 35.987 103.161 35.6889 103.161 35.3481C103.161 35.0074 103.246 34.6666 103.374 34.4111C103.544 34.1129 103.757 33.8999 104.013 33.7722C104.268 33.6018 104.609 33.5166 104.95 33.5166C105.291 33.5166 105.589 33.6018 105.844 33.7296C106.1 33.8999 106.313 34.1129 106.483 34.3685C106.654 34.6666 106.696 34.9648 106.696 35.3481C106.696 35.7314 106.696 35.4333 106.696 35.6037H106.739ZM104.353 34.4111C104.183 34.5814 104.098 34.7944 104.055 35.05H105.929C105.929 34.7944 105.802 34.5814 105.631 34.4111C105.461 34.2407 105.248 34.1555 104.992 34.1555C104.737 34.1555 104.524 34.2407 104.353 34.4111Z" fill="#0363FF"/>
<path d="M109.124 37.0518C108.783 36.9666 108.528 36.7962 108.357 36.6259L108.655 35.9018C108.826 36.0722 109.081 36.1574 109.337 36.2851C109.593 36.3703 109.891 36.4129 110.146 36.4129C110.402 36.4129 110.7 36.3703 110.87 36.2425C111.041 36.1148 111.126 35.987 111.126 35.8166C111.126 35.6462 111.083 35.561 110.998 35.4759C110.913 35.3907 110.785 35.3481 110.657 35.2629C110.53 35.2203 110.317 35.1777 110.061 35.0925C109.72 35.0073 109.465 34.9221 109.252 34.837C109.039 34.7518 108.868 34.624 108.698 34.411C108.528 34.2407 108.485 33.9851 108.485 33.6869C108.485 33.3888 108.57 33.1758 108.698 32.9629C108.826 32.7499 109.039 32.5795 109.294 32.4517C109.55 32.324 109.891 32.2388 110.317 32.2388C110.743 32.2388 110.87 32.2388 111.126 32.3665C111.381 32.4943 111.637 32.5369 111.807 32.6647L111.509 33.3888C111.296 33.261 111.126 33.1758 110.913 33.0906C110.7 33.048 110.487 33.0054 110.274 33.0054C109.976 33.0054 109.72 33.048 109.593 33.1758C109.422 33.3036 109.38 33.4314 109.38 33.6018C109.38 33.7721 109.422 33.8573 109.507 33.9425C109.593 34.0277 109.72 34.0703 109.848 34.1555C109.976 34.1981 110.189 34.2407 110.402 34.3258C110.743 34.411 111.041 34.4962 111.254 34.5814C111.467 34.6666 111.637 34.7944 111.807 34.9647C111.978 35.1351 112.02 35.3907 112.02 35.6888C112.02 35.987 111.935 36.1999 111.807 36.4129C111.68 36.6259 111.467 36.7963 111.168 36.924C110.87 37.0518 110.53 37.137 110.146 37.137C109.763 37.137 109.465 37.0944 109.124 36.9666V37.0518Z" fill="#0363FF"/>
<path d="M115.769 35.6037H113.128C113.128 35.8592 113.298 36.0722 113.469 36.2426C113.682 36.4129 113.895 36.4555 114.193 36.4555C114.491 36.4555 114.874 36.3278 115.087 36.0722L115.556 36.5833C115.215 36.9667 114.747 37.1796 114.15 37.1796C113.554 37.1796 113.426 37.0944 113.128 36.9241C112.83 36.7537 112.617 36.5407 112.446 36.2852C112.276 35.987 112.191 35.6889 112.191 35.3481C112.191 35.0074 112.276 34.6666 112.404 34.4111C112.574 34.1129 112.787 33.8999 113.043 33.7722C113.298 33.6018 113.639 33.5166 113.98 33.5166C114.321 33.5166 114.619 33.6018 114.874 33.7296C115.13 33.8999 115.343 34.1129 115.513 34.3685C115.684 34.6666 115.726 34.9648 115.726 35.3481C115.726 35.7314 115.726 35.4333 115.726 35.6037H115.769ZM113.426 34.4111C113.256 34.5814 113.171 34.7944 113.128 35.05H115.002C115.002 34.7944 114.874 34.5814 114.704 34.4111C114.534 34.2407 114.321 34.1555 114.065 34.1555C113.809 34.1555 113.597 34.2407 113.426 34.4111Z" fill="#0363FF"/>
<path d="M117.685 33.6444C117.898 33.5592 118.111 33.5166 118.409 33.5166V34.3685C118.367 34.3685 118.282 34.3685 118.196 34.3685C117.898 34.3685 117.643 34.4537 117.472 34.624C117.302 34.7944 117.217 35.0926 117.217 35.4333V37.1796H116.322V33.5592H117.174V34.1129C117.302 33.8999 117.43 33.7722 117.643 33.687L117.685 33.6444Z" fill="#0363FF"/>
<path d="M120.795 37.137H119.9L118.452 33.5166H119.346L120.369 36.1148L121.433 33.5166H122.285L120.837 37.137H120.795Z" fill="#0363FF"/>
<path d="M122.626 32.7925C122.541 32.7073 122.456 32.5796 122.456 32.4092C122.456 32.2388 122.498 32.1536 122.626 32.0258C122.711 31.9407 122.882 31.8555 123.01 31.8555C123.137 31.8555 123.308 31.8981 123.393 31.9832C123.478 32.0684 123.563 32.1962 123.563 32.324C123.563 32.4518 123.521 32.6221 123.393 32.7073C123.308 32.7925 123.137 32.8777 123.01 32.8777C122.882 32.8777 122.711 32.8351 122.626 32.7073V32.7925ZM123.478 33.5166V37.137H122.584V33.5166H123.478Z" fill="#0363FF"/>
<path d="M124.969 36.9665C124.671 36.7962 124.458 36.5832 124.287 36.3276C124.117 36.0295 124.032 35.7313 124.032 35.3906C124.032 35.0498 124.117 34.7091 124.287 34.4535C124.458 34.1554 124.671 33.9424 124.969 33.8146C125.267 33.6443 125.565 33.5591 125.948 33.5591C126.332 33.5591 126.587 33.6443 126.843 33.772C127.098 33.9424 127.311 34.1554 127.439 34.4109L126.758 34.7943C126.587 34.4535 126.289 34.2832 125.948 34.2832C125.608 34.2832 125.437 34.3684 125.224 34.5813C125.054 34.7943 124.926 35.0498 124.926 35.3906C124.926 35.7313 125.011 35.9869 125.224 36.1999C125.395 36.4128 125.65 36.498 125.948 36.498C126.247 36.498 126.587 36.3276 126.758 35.9869L127.439 36.3702C127.311 36.6258 127.098 36.8388 126.843 37.0091C126.587 37.1795 126.289 37.2221 125.948 37.2221C125.608 37.2221 125.267 37.1369 124.969 36.9665Z" fill="#0363FF"/>
<path d="M131.187 35.6037H128.547C128.547 35.8592 128.717 36.0722 128.887 36.2426C129.1 36.4129 129.313 36.4555 129.612 36.4555C129.91 36.4555 130.293 36.3278 130.506 36.0722L130.974 36.5833C130.634 36.9667 130.165 37.1796 129.569 37.1796C128.973 37.1796 128.845 37.0944 128.547 36.9241C128.249 36.7537 128.036 36.5407 127.865 36.2852C127.695 35.987 127.61 35.6889 127.61 35.3481C127.61 35.0074 127.695 34.6666 127.823 34.4111C127.993 34.1129 128.206 33.8999 128.461 33.7722C128.717 33.6018 129.058 33.5166 129.399 33.5166C129.739 33.5166 130.037 33.6018 130.293 33.7296C130.549 33.8999 130.762 34.1129 130.932 34.3685C131.102 34.6666 131.145 34.9648 131.145 35.3481C131.145 35.7314 131.145 35.4333 131.145 35.6037H131.187ZM128.845 34.4111C128.674 34.5814 128.589 34.7944 128.547 35.05H130.421C130.421 34.7944 130.293 34.5814 130.123 34.4111C129.952 34.2407 129.739 34.1555 129.484 34.1555C129.228 34.1555 129.015 34.2407 128.845 34.4111Z" fill="#0363FF"/>
<path d="M135.575 37.052C135.319 37.1371 135.021 37.1797 134.723 37.1797C134.425 37.1797 134.084 37.1372 133.828 37.0094C133.573 36.8816 133.36 36.7538 133.189 36.5408C133.019 36.3279 132.976 36.1149 132.976 35.9019C132.976 35.689 133.062 35.3482 133.232 35.1353C133.402 34.9223 133.658 34.7093 134.041 34.4964C133.871 34.326 133.743 34.113 133.658 33.9852C133.573 33.8575 133.53 33.6445 133.53 33.4741C133.53 33.1334 133.658 32.8778 133.913 32.6649C134.169 32.4519 134.51 32.3667 134.936 32.3667C135.362 32.3667 135.66 32.4519 135.873 32.6649C136.086 32.8778 136.214 33.0908 136.214 33.4315C136.214 33.7723 136.128 33.9001 136.001 34.0704C135.83 34.2408 135.617 34.4538 135.276 34.6241L136.256 35.5612C136.384 35.3482 136.469 35.0927 136.512 34.7945L137.236 35.0075C137.151 35.4334 137.023 35.7742 136.81 36.0723L137.406 36.626L136.895 37.2223L136.299 36.6686C136.086 36.839 135.83 36.9668 135.575 37.0946V37.052ZM135.745 36.1575L134.552 35.0075C134.297 35.1353 134.126 35.3056 134.041 35.4334C133.956 35.5612 133.871 35.689 133.871 35.8594C133.871 36.0297 133.956 36.2001 134.126 36.3279C134.297 36.4557 134.51 36.4983 134.808 36.4983C135.106 36.4983 135.489 36.3705 135.788 36.1575H135.745ZM134.51 33.1334C134.425 33.2186 134.339 33.3463 134.339 33.4741C134.339 33.6019 134.339 33.6871 134.425 33.7723C134.467 33.8575 134.595 33.9852 134.765 34.1556C135.021 34.0278 135.191 33.9001 135.319 33.7723C135.447 33.6445 135.489 33.5593 135.489 33.4315C135.489 33.3038 135.447 33.176 135.362 33.0908C135.276 33.0056 135.149 32.963 134.978 32.963C134.808 32.963 134.638 33.0056 134.552 33.0908L134.51 33.1334Z" fill="#0363FF"/>
<path d="M139.749 37.0518C139.408 36.9666 139.152 36.7962 138.982 36.6259L139.28 35.9018C139.45 36.0722 139.706 36.1574 139.962 36.2851C140.217 36.3703 140.515 36.4129 140.771 36.4129C141.026 36.4129 141.325 36.3703 141.495 36.2425C141.665 36.1148 141.75 35.987 141.75 35.8166C141.75 35.6462 141.708 35.561 141.623 35.4759C141.538 35.3907 141.41 35.3481 141.282 35.2629C141.154 35.2203 140.941 35.1777 140.686 35.0925C140.345 35.0073 140.089 34.9221 139.876 34.837C139.663 34.7518 139.493 34.624 139.323 34.411C139.152 34.2407 139.11 33.9851 139.11 33.6869C139.11 33.3888 139.195 33.1758 139.323 32.9629C139.45 32.7499 139.663 32.5795 139.919 32.4517C140.175 32.324 140.515 32.2388 140.941 32.2388C141.367 32.2388 141.495 32.2388 141.75 32.3665C142.006 32.4943 142.262 32.5369 142.432 32.6647L142.134 33.3888C141.921 33.261 141.75 33.1758 141.538 33.0906C141.325 33.048 141.112 33.0054 140.899 33.0054C140.6 33.0054 140.345 33.048 140.217 33.1758C140.047 33.3036 140.004 33.4314 140.004 33.6018C140.004 33.7721 140.047 33.8573 140.132 33.9425C140.217 34.0277 140.345 34.0703 140.473 34.1555C140.6 34.1981 140.813 34.2407 141.026 34.3258C141.367 34.411 141.665 34.4962 141.878 34.5814C142.091 34.6666 142.262 34.7944 142.432 34.9647C142.602 35.1351 142.645 35.3907 142.645 35.6888C142.645 35.987 142.56 36.1999 142.432 36.4129C142.304 36.6259 142.091 36.7963 141.793 36.924C141.495 37.0518 141.154 37.137 140.771 37.137C140.388 37.137 140.089 37.0944 139.749 36.9666V37.0518Z" fill="#0363FF"/>
<path d="M143.795 36.9665C143.497 36.7962 143.284 36.5832 143.114 36.3276C142.943 36.0721 142.858 35.7313 142.858 35.3906C142.858 35.0498 142.943 34.7091 143.114 34.4535C143.284 34.1554 143.497 33.9424 143.795 33.8146C144.093 33.6443 144.391 33.5591 144.732 33.5591C145.073 33.5591 145.414 33.6443 145.669 33.8146C145.967 33.985 146.18 34.198 146.308 34.4535C146.478 34.7517 146.564 35.0498 146.564 35.3906C146.564 35.7313 146.478 36.0721 146.308 36.3276C146.138 36.5832 145.925 36.8388 145.669 36.9665C145.371 37.1369 145.073 37.2221 144.732 37.2221C144.391 37.2221 144.051 37.1369 143.795 36.9665ZM145.414 36.1147C145.584 35.9017 145.669 35.6462 145.669 35.3054C145.669 34.9647 145.584 34.7091 145.414 34.4961C145.243 34.2832 144.988 34.198 144.732 34.198C144.477 34.198 144.221 34.2832 144.051 34.4961C143.88 34.7091 143.795 34.9647 143.795 35.3054C143.795 35.6462 143.88 35.9017 144.051 36.1147C144.221 36.3276 144.477 36.4128 144.732 36.4128C144.988 36.4128 145.243 36.3276 145.414 36.1147Z" fill="#0363FF"/>
<path d="M148.054 32.1533V37.1367H147.16V32.1533H148.054Z" fill="#0363FF"/>
<path d="M152.271 37.137H151.462V36.6259C151.334 36.7963 151.164 36.9241 150.993 37.0093C150.823 37.0944 150.61 37.137 150.354 37.137C149.886 37.137 149.545 37.0092 149.29 36.7537C149.034 36.4981 148.906 36.0722 148.906 35.5611V33.5166H149.758V35.4333C149.758 35.7315 149.843 35.987 149.971 36.1574C150.099 36.3278 150.312 36.4129 150.525 36.4129C150.738 36.4129 150.993 36.3278 151.164 36.1574C151.334 35.987 151.419 35.7315 151.419 35.3907V33.6018H152.271V37.2222V37.137Z" fill="#0363FF"/>
<path d="M154.912 37.1372C154.784 37.1372 154.614 37.1798 154.486 37.1798C154.103 37.1798 153.804 37.0946 153.591 36.8817C153.379 36.6687 153.293 36.3705 153.293 35.9446V34.2835H152.74V33.5594H153.293V32.7075H154.145V33.5594H155.04V34.2835H154.145V35.902C154.145 36.0724 154.145 36.2002 154.273 36.2854C154.358 36.3705 154.486 36.4131 154.614 36.4131C154.742 36.4131 154.912 36.3705 155.04 36.2854L155.295 36.9243C155.21 37.0094 155.082 37.052 154.954 37.0946L154.912 37.1372Z" fill="#0363FF"/>
<path d="M155.806 32.7925C155.721 32.7073 155.636 32.5796 155.636 32.4092C155.636 32.2388 155.678 32.1536 155.806 32.0258C155.891 31.9407 156.062 31.8555 156.189 31.8555C156.317 31.8555 156.488 31.8981 156.573 31.9832C156.658 32.0684 156.743 32.1962 156.743 32.324C156.743 32.4518 156.701 32.6221 156.573 32.7073C156.488 32.7925 156.317 32.8777 156.189 32.8777C156.062 32.8777 155.891 32.8351 155.806 32.7073V32.7925ZM156.615 33.5166V37.137H155.721V33.5166H156.615Z" fill="#0363FF"/>
<path d="M158.106 36.9665C157.808 36.7962 157.595 36.5832 157.425 36.3276C157.254 36.0721 157.169 35.7313 157.169 35.3906C157.169 35.0498 157.254 34.7091 157.425 34.4535C157.595 34.1554 157.808 33.9424 158.106 33.8146C158.404 33.6443 158.703 33.5591 159.043 33.5591C159.384 33.5591 159.725 33.6443 159.98 33.8146C160.279 33.985 160.491 34.198 160.619 34.4535C160.79 34.7517 160.875 35.0498 160.875 35.3906C160.875 35.7313 160.79 36.0721 160.619 36.3276C160.449 36.5832 160.236 36.8388 159.98 36.9665C159.682 37.1369 159.384 37.2221 159.043 37.2221C158.703 37.2221 158.362 37.1369 158.106 36.9665ZM159.767 36.1147C159.938 35.9017 160.023 35.6462 160.023 35.3054C160.023 34.9647 159.938 34.7091 159.767 34.4961C159.597 34.2832 159.341 34.198 159.086 34.198C158.83 34.198 158.575 34.2832 158.404 34.4961C158.234 34.7091 158.149 34.9647 158.149 35.3054C158.149 35.6462 158.234 35.9017 158.404 36.1147C158.575 36.3276 158.83 36.4128 159.086 36.4128C159.341 36.4128 159.597 36.3276 159.767 36.1147Z" fill="#0363FF"/>
<path d="M164.538 33.8998C164.794 34.1554 164.921 34.5387 164.921 35.0924V37.1795H164.07V35.2628C164.07 34.9647 163.984 34.7091 163.857 34.5813C163.729 34.411 163.516 34.3684 163.26 34.3684C163.005 34.3684 162.749 34.4535 162.579 34.6239C162.408 34.7943 162.323 35.0498 162.323 35.3906V37.1795H161.471V33.5591H162.281V34.0702C162.408 33.8998 162.579 33.772 162.792 33.6869C163.005 33.6017 163.218 33.5591 163.473 33.5591C163.899 33.5591 164.24 33.6869 164.495 33.9424L164.538 33.8998Z" fill="#0363FF"/>
</svg>
