<svg width="76" height="92" viewBox="0 0 76 92" fill="none" xmlns="http://www.w3.org/2000/svg">
<path d="M73.5321 34.1926C73.2989 35.5918 73.0657 36.9909 72.7548 38.3123C72.4438 39.4782 72.2884 40.7219 71.5888 41.7324C71.3556 41.4215 71.4334 41.0328 71.5888 40.6442C72.2107 38.5455 72.677 36.4468 72.9102 34.2704C72.9102 33.9594 72.9102 33.7263 73.2211 33.5708C73.2989 33.5708 73.4543 33.5708 73.5321 33.5708V34.1149V34.1926Z" fill="#0363FF"/>
<path d="M73.5322 33.571C73.5322 33.571 73.3767 33.571 73.299 33.571C72.8326 32.9492 73.1435 32.1719 72.9881 31.55C72.8326 30.4618 72.7549 29.4513 72.444 28.3631C72.3662 27.9745 72.2108 27.6635 72.444 27.2749C73.0658 28.1299 72.9881 29.1404 73.2213 30.0732C73.2213 30.3064 73.2213 30.5395 73.3767 30.7727V33.571H73.5322Z" fill="#0363FF"/>
<path d="M72.5994 27.3526C73.1435 29.3736 73.3767 31.4723 73.3767 33.6487C73.0658 36.447 72.444 39.0898 71.6667 41.8103C70.423 45.1527 68.9461 48.2618 66.6143 50.9824C63.2719 54.9466 58.9968 57.2007 53.7889 57.7448C50.2133 58.1335 46.871 57.7448 43.6841 56.0348C42.829 55.6461 42.2072 55.0243 41.3522 54.3247C40.8858 56.5012 40.4194 58.5999 39.953 60.6986C39.1758 64.1964 38.4762 67.6165 37.6989 71.1143C37.2325 73.1353 35.7557 74.4567 33.8124 74.379C32.0246 74.379 31.0142 73.1353 31.3251 71.4252C32.1024 67.461 32.9574 63.4968 33.8124 59.5326C36.4552 47.2514 39.098 34.8924 41.7408 22.6111C42.1295 20.9788 42.9068 19.8129 44.5391 19.2688C45.5496 18.8801 46.6378 18.9578 47.4928 19.7351C48.3478 20.4347 48.3478 21.3674 48.1146 22.3779C47.4151 25.5648 46.7932 28.674 46.0937 31.8609C45.0055 36.8356 43.995 41.8103 42.9068 46.785C42.7513 47.3291 42.9068 47.7955 43.2954 48.2618C45.8605 51.371 49.2029 52.6147 53.1671 52.0706C58.8413 51.371 62.4169 47.9509 64.671 42.8985C66.0702 39.7893 66.9252 36.5247 66.5365 33.0269C66.1479 28.7517 63.5051 25.5648 59.6186 24.8653C58.064 24.5544 56.4317 24.7875 54.8771 25.0985C54.2553 25.1762 53.7112 25.4094 53.0893 25.4094C52.0788 25.4094 51.2238 25.1762 50.7574 24.2434C50.2911 23.3107 50.602 22.4557 51.2238 21.6784C52.0011 20.5902 53.1671 19.9683 54.4107 19.6574C59.1522 18.336 63.7383 18.6469 68.0134 21.3675C70.3453 22.922 71.7444 25.1762 72.6771 27.7413L72.5994 27.3526Z" fill="#0363FF"/>
<path d="M40.4971 0.147172C41.0412 -0.00828666 41.5076 -0.0860161 41.974 0.147172C43.684 1.0022 44.0727 1.62403 43.684 3.48954C42.2072 10.3297 40.7303 17.2477 39.2535 24.0878C37.4657 32.3272 35.7556 40.6442 33.9679 48.8835C33.6569 50.3604 33.5792 51.8373 32.8019 53.2364C32.0246 54.6355 30.1591 55.4906 28.6823 55.1019C27.5163 54.791 26.8167 53.7805 26.9722 52.5368C27.5163 49.1945 28.3713 45.8521 29.0709 42.5875C30.0814 37.7682 31.0919 33.0267 32.1801 28.2075C32.2578 27.8189 32.1801 27.5079 32.0246 27.1193C30.47 24.4765 28.2936 22.6887 25.1067 22.3778C20.5984 21.8337 16.8674 23.3883 13.7582 26.4197C11.1154 28.9848 9.71626 32.2494 9.09443 35.825C8.62805 38.3901 8.62805 40.9551 9.48307 43.4425C10.4158 46.2407 13.1364 48.1063 16.0901 48.4949C18.1888 48.7281 20.132 48.2617 22.0753 47.9508C23.0857 47.7953 24.1739 48.184 24.5626 48.8835C24.9512 49.6608 24.718 50.5159 23.9408 51.3709C22.8525 52.6146 21.298 53.0032 19.8211 53.3141C16.2455 54.0914 12.67 54.0914 9.24989 52.6146C5.67433 51.06 3.42017 48.3394 2.56515 44.5307C1.16602 38.1569 2.79834 32.2494 6.14071 26.8084C8.47259 22.9219 11.815 19.9682 15.9346 18.0249C18.0333 17.0145 20.2875 16.4704 22.6971 16.3149C25.5731 16.1594 28.2159 16.7036 30.6255 18.2581C30.9364 18.4913 31.2473 18.7245 31.5582 19.0354C32.1801 19.6573 32.8019 20.2791 33.5792 21.0564C33.9679 19.1909 34.3565 17.4808 34.7452 15.7708C35.6002 11.6511 36.5329 7.53147 37.388 3.48954C37.7766 1.70176 38.8648 0.769007 40.4971 0.224901V0.147172Z" fill="#0363FF"/>
<path d="M4.35285 88.2149C4.35285 88.5258 4.35285 88.9144 4.19739 89.2253C4.11966 89.5363 3.9642 89.8472 3.80875 90.1581C3.65329 90.3913 3.4201 90.6245 3.10918 90.7799C2.79826 90.9354 2.48734 91.0131 2.09869 91.0131H0.777295C0.699565 91.0131 0.544106 91.0131 0.388647 91.0131C0.233188 91.0131 0.0777295 91.0131 0 91.0131C0 91.0131 0 91.0131 0 90.9354C0 90.7799 0 90.7799 0 90.7022C0.155459 90.7022 0.23319 90.7022 0.310919 90.5467C0.310919 90.5467 0.388647 90.3913 0.388647 90.3136V85.9607C0.388647 85.883 0.388649 85.7275 0.310919 85.7275C0.23319 85.7275 0.155459 85.6498 0 85.5721C0 85.5721 0 85.5721 0 85.4943C0 85.4166 0 85.3389 0 85.3389C0.0777295 85.3389 0.155455 85.3389 0.233185 85.3389C0.233185 85.3389 0.388646 85.3389 0.466376 85.3389H0.621832H2.09869C2.48734 85.3389 2.79826 85.3389 3.03145 85.5721C3.34237 85.7275 3.57555 85.9607 3.73101 86.1939C3.88647 86.4271 4.04193 86.738 4.11966 87.1266C4.19739 87.4376 4.27512 87.8262 4.27512 88.2149H4.35285ZM3.49783 88.3703C3.49783 87.9039 3.49783 87.5153 3.4201 87.2044C3.4201 86.8935 3.26464 86.5825 3.10918 86.4271C2.95372 86.2716 2.79826 86.0384 2.56507 85.9607C2.33188 85.883 2.09869 85.8052 1.78777 85.8052H1.39913V90.2358C1.39913 90.2358 1.39913 90.3136 1.39913 90.3913C1.39913 90.3913 1.39913 90.3913 1.39913 90.469C1.39913 90.469 1.47686 90.469 1.55459 90.469C1.55459 90.469 1.71005 90.469 1.86551 90.469C2.40961 90.469 2.79826 90.2358 3.10918 89.8472C3.34237 89.4585 3.49783 88.9144 3.49783 88.2149V88.3703Z" fill="#0363FF"/>
<path d="M14.5355 90.3911C14.5355 90.3911 14.5355 90.4688 14.5355 90.5466C14.5355 90.5466 14.5355 90.5466 14.5355 90.6243C14.5355 90.6243 14.5355 90.6243 14.691 90.6243C14.691 90.6243 14.8464 90.6243 14.9242 90.6243C14.9242 90.6243 14.9242 90.6243 14.9242 90.7797C14.9242 90.9352 14.9242 90.7798 14.9242 90.8575C14.9242 90.8575 14.9242 90.8575 14.9242 90.9352C14.7687 90.9352 14.6132 90.9352 14.4578 90.9352C14.3023 90.9352 14.1469 90.9352 14.0691 90.9352C13.9914 90.9352 13.8359 90.9352 13.6805 90.9352C13.525 90.9352 13.3696 90.9352 13.2141 90.9352C13.2141 90.9352 13.2141 90.9352 13.2141 90.8575C13.2141 90.702 13.2141 90.6243 13.2141 90.6243C13.2918 90.6243 13.3696 90.6243 13.4473 90.6243C13.4473 90.6243 13.525 90.6243 13.6028 90.6243C13.6028 90.6243 13.6028 90.6243 13.6028 90.5466C13.6028 90.5466 13.6028 90.4688 13.6028 90.3911V86.0383C13.6028 86.0383 13.6028 85.9605 13.6028 85.8828C13.6028 85.8828 13.6028 85.8828 13.6028 85.8051C13.6028 85.8051 13.6028 85.8051 13.4473 85.8051C13.4473 85.8051 13.2918 85.8051 13.2141 85.8051C13.2141 85.8051 13.2141 85.8051 13.2141 85.6496C13.2141 85.5719 13.2141 85.4941 13.2141 85.4941C13.3696 85.4941 13.525 85.4941 13.6805 85.4941C13.8359 85.4941 13.9914 85.4941 14.0691 85.4941C14.1469 85.4941 14.3023 85.4941 14.4578 85.4941C14.6132 85.4941 14.7687 85.4941 14.9242 85.4941C14.9242 85.4941 14.9242 85.4941 14.9242 85.5719C14.9242 85.5719 14.9242 85.5719 14.9242 85.6496C14.9242 85.7273 14.9242 85.8051 14.9242 85.8051C14.8464 85.8051 14.7687 85.8051 14.691 85.8051C14.691 85.8051 14.6132 85.8051 14.5355 85.8051C14.5355 85.8051 14.5355 85.8051 14.5355 85.8828C14.5355 85.9605 14.5355 85.9605 14.5355 86.0383V90.3911Z" fill="#0363FF"/>
<path d="M25.1066 88.6811V90.3134C25.1066 90.4688 25.1066 90.5466 25.2621 90.6243C25.3398 90.6243 25.4953 90.702 25.6508 90.7797C25.6508 90.7797 25.7285 90.7797 25.7285 90.9352C25.7285 91.0907 25.7285 91.0129 25.7285 91.0907C25.573 91.0907 25.4176 91.0907 25.2621 91.0907C25.1066 91.0907 24.8735 91.0907 24.6403 91.0907C24.4071 91.0907 24.3294 91.0907 24.1739 91.0907C24.0184 91.0907 23.863 91.0907 23.7852 91.0907C23.7852 91.0907 23.7852 91.0907 23.7852 91.0129C23.7852 90.8575 23.7852 90.7797 23.7852 90.7797C23.863 90.7797 23.9407 90.7797 24.0184 90.7797C24.0184 90.7797 24.0962 90.7797 24.1739 90.7797C24.1739 90.7797 24.1739 90.7798 24.1739 90.702C24.1739 90.702 24.1739 90.6243 24.1739 90.5466V86.1937C24.1739 86.116 24.1739 85.9605 24.0962 85.9605C24.0962 85.9605 23.9407 85.8828 23.7075 85.8051C23.7075 85.8051 23.7075 85.8051 23.7075 85.6496C23.7075 85.5719 23.7075 85.4941 23.7075 85.4941C23.863 85.4941 23.9407 85.4941 24.0962 85.4941C24.2516 85.4941 24.4071 85.4941 24.4848 85.4941H25.4176C25.8839 85.4941 26.1949 85.6496 26.5058 85.8828C26.8167 86.116 26.8944 86.5824 26.8944 87.0487C26.8944 87.5151 26.8944 87.5151 26.8167 87.6706C26.8167 87.9038 26.6612 88.0592 26.5058 88.2147C26.3503 88.3701 26.1949 88.5256 26.0394 88.6033C25.8839 88.681 25.6508 88.7588 25.4176 88.7588H24.9512L25.1066 88.6811ZM25.3398 88.2147C25.573 88.2147 25.8062 88.137 25.9617 87.9815C26.1171 87.826 26.1949 87.5151 26.1949 87.0487C26.1949 86.5824 26.1949 86.3492 26.0394 86.116C25.8839 85.8828 25.6508 85.8051 25.3398 85.8051H25.1844V88.2147H25.3398Z" fill="#0363FF"/>
<path d="M37.2324 88.6811V90.3134C37.2324 90.4688 37.2324 90.5466 37.3878 90.6243C37.4656 90.6243 37.621 90.702 37.7765 90.7797C37.7765 90.7797 37.8542 90.7797 37.8542 90.9352C37.8542 91.0907 37.8542 91.0129 37.8542 91.0907C37.6988 91.0907 37.5433 91.0907 37.3878 91.0907C37.2324 91.0907 36.9992 91.0907 36.766 91.0907C36.5328 91.0907 36.4551 91.0907 36.2996 91.0907C36.1442 91.0907 35.9887 91.0907 35.911 91.0907C35.911 91.0907 35.911 91.0907 35.911 91.0129C35.911 90.8575 35.911 90.7797 35.911 90.7797C35.9887 90.7797 36.0664 90.7797 36.1442 90.7797C36.1442 90.7797 36.2219 90.7797 36.2996 90.7797C36.2996 90.7797 36.2996 90.7798 36.2996 90.702C36.2996 90.702 36.2996 90.6243 36.2996 90.5466V86.1937C36.2996 86.116 36.2996 85.9605 36.2219 85.9605C36.2219 85.9605 36.0664 85.8828 35.8333 85.8051C35.8333 85.8051 35.8333 85.8051 35.8333 85.6496C35.8333 85.5719 35.8333 85.4941 35.8333 85.4941C35.9887 85.4941 36.0664 85.4941 36.2219 85.4941C36.3774 85.4941 36.5328 85.4941 36.6105 85.4941H37.5433C38.0097 85.4941 38.3206 85.6496 38.6315 85.8828C38.9424 86.116 39.0202 86.5824 39.0202 87.0487C39.0202 87.5151 39.0202 87.5151 38.9424 87.6706C38.9424 87.9038 38.787 88.0592 38.6315 88.2147C38.4761 88.3701 38.3206 88.5256 38.1651 88.6033C38.0097 88.681 37.7765 88.7588 37.5433 88.7588H37.0769L37.2324 88.6811ZM37.4656 88.2147C37.6988 88.2147 37.9319 88.137 38.0874 87.9815C38.2429 87.826 38.3206 87.5151 38.3206 87.0487C38.3206 86.5824 38.3206 86.3492 38.1651 86.116C38.0097 85.8828 37.7765 85.8051 37.4656 85.8051H37.3101V88.2147H37.4656Z" fill="#0363FF"/>
<path d="M49.3583 90.3135C49.3583 90.4689 49.3583 90.5466 49.5137 90.5466C49.5915 90.5466 49.8246 90.5466 50.0578 90.5466H50.291C50.3688 90.5466 50.5242 90.5466 50.6019 90.5466C50.6797 90.5466 50.7574 90.4689 50.8351 90.3912C50.8351 90.3912 50.9129 90.2357 50.9906 90.0803C50.9906 89.9248 51.0683 89.8471 51.146 89.6139C51.146 89.6139 51.146 89.6139 51.2238 89.6139C51.2238 89.6139 51.2238 89.6139 51.3015 89.6139C51.3015 89.7693 51.3015 90.0025 51.2238 90.2357C51.2238 90.4689 51.2238 90.7021 51.2238 90.8576C51.2238 90.8576 51.2238 90.9353 51.2238 91.013C51.2238 91.013 51.1461 91.013 51.0683 91.013C51.0683 91.013 50.9129 91.013 50.8351 91.013C50.8351 91.013 50.6797 91.013 50.6019 91.013C50.6019 91.013 50.4465 91.013 50.3687 91.013H48.8919C48.7364 91.013 48.6587 91.013 48.5032 91.013C48.3478 91.013 48.1923 91.013 48.0369 91.013C48.0369 91.013 48.0369 91.013 48.0369 90.9353C48.0369 90.7798 48.0369 90.7021 48.0369 90.7021C48.1923 90.7021 48.3478 90.6244 48.3478 90.5466C48.3478 90.5466 48.4255 90.3912 48.4255 90.3135V85.9606C48.4255 85.9606 48.4255 85.8829 48.4255 85.8052C48.4255 85.8052 48.4255 85.8051 48.4255 85.7274C48.4255 85.7274 48.4255 85.7274 48.2701 85.7274C48.2701 85.7274 48.1146 85.7274 48.0369 85.7274C48.0369 85.7274 48.0369 85.7274 48.0369 85.572C48.0369 85.4942 48.0369 85.4165 48.0369 85.4165C48.1923 85.4165 48.3478 85.4165 48.5032 85.4165C48.6587 85.4165 48.8142 85.4165 48.8919 85.4165C48.9696 85.4165 49.0474 85.4165 49.1251 85.4165C49.1251 85.4165 49.2805 85.4165 49.3583 85.4165C49.436 85.4165 49.5137 85.4165 49.5915 85.4165C49.6692 85.4165 49.7469 85.4165 49.8246 85.4165C49.8246 85.4165 49.8246 85.4165 49.8246 85.4942C49.8246 85.4942 49.8246 85.4942 49.8246 85.572C49.8246 85.6497 49.8246 85.7274 49.8246 85.7274C49.6692 85.7274 49.5137 85.8051 49.436 85.8829C49.436 85.8829 49.3583 86.0383 49.3583 86.1161V90.3912V90.3135Z" fill="#0363FF"/>
<path d="M63.5827 88.9143C63.5827 89.2252 63.5827 89.5362 63.5827 89.8471C63.5827 90.158 63.4273 90.3912 63.3495 90.5466C63.1941 90.7798 63.0386 90.9353 62.8054 91.013C62.5722 91.0908 62.3391 91.1685 62.0281 91.1685C61.7172 91.1685 61.3286 91.1685 61.0954 91.013C60.8622 90.9353 60.7067 90.7021 60.5513 90.5466C60.3958 90.3912 60.3181 90.0803 60.3181 89.8471C60.3181 89.6139 60.3181 89.303 60.3181 88.9921V86.1161C60.3181 85.9606 60.3181 85.8829 60.2404 85.8829C60.1626 85.8829 60.0849 85.8051 59.9294 85.7274C59.9294 85.7274 59.9294 85.7274 59.9294 85.572C59.9294 85.4942 59.9294 85.4165 59.9294 85.4165C60.0849 85.4165 60.1626 85.4165 60.3181 85.4165C60.4735 85.4165 60.629 85.4165 60.7845 85.4165C60.9399 85.4165 61.0954 85.4165 61.2508 85.4165C61.4063 85.4165 61.5618 85.4165 61.7172 85.4165C61.7172 85.4165 61.7172 85.4165 61.7172 85.4942C61.7172 85.572 61.7172 85.6497 61.7172 85.6497C61.5618 85.6497 61.4063 85.6497 61.3286 85.8052C61.3286 85.8052 61.2508 85.9606 61.2508 86.0383V88.7589C61.2508 89.3807 61.3286 89.8471 61.484 90.158C61.6395 90.4689 61.9504 90.6244 62.3391 90.6244C62.7277 90.6244 63.0386 90.4689 63.1941 90.158C63.3495 89.8471 63.4273 89.3807 63.4273 88.7589V86.1161C63.4273 86.0383 63.4273 85.8829 63.3495 85.8829C63.2718 85.8829 63.1941 85.8051 63.0386 85.7274C63.0386 85.7274 63.0386 85.7274 63.0386 85.572C63.0386 85.572 63.0386 85.572 63.0386 85.4942C63.1941 85.4942 63.2718 85.4942 63.3495 85.4942C63.4273 85.4942 63.5827 85.4942 63.6605 85.4942C63.7382 85.4942 63.8936 85.4942 64.0491 85.4942C64.1268 85.4942 64.2823 85.4942 64.36 85.4942C64.36 85.4942 64.36 85.4942 64.36 85.572C64.36 85.6497 64.36 85.7274 64.36 85.7274C64.2046 85.7274 64.1268 85.7274 64.0491 85.8829C64.0491 85.8829 63.9714 86.0383 63.9714 86.1161V88.9921L63.5827 88.9143Z" fill="#0363FF"/>
<path d="M75.3976 86.8157C75.3976 86.8157 75.3198 86.8157 75.2421 86.8157C75.1644 86.8157 75.1644 86.8157 75.0866 86.8157C75.0866 86.8157 75.0866 86.8157 75.0866 86.738C75.0089 86.4271 74.8535 86.1939 74.698 86.0384C74.5425 85.883 74.3093 85.8052 74.0762 85.8052C73.843 85.8052 73.6875 85.8053 73.5321 86.0384C73.3766 86.1939 73.2989 86.3493 73.2989 86.6603C73.2989 86.9712 73.2989 87.0489 73.4543 87.2044C73.5321 87.3598 73.6875 87.4376 73.843 87.5153C73.9984 87.593 74.1539 87.6707 74.3871 87.8262C74.5425 87.9039 74.7757 88.0594 74.9312 88.1371C75.0866 88.2926 75.2421 88.448 75.3198 88.6812C75.3976 88.9144 75.4753 89.1476 75.4753 89.5363C75.4753 89.9249 75.4753 90.0026 75.3976 90.1581C75.3976 90.3913 75.2421 90.5467 75.1644 90.7022C75.0089 90.8577 74.9312 91.0131 74.698 91.0909C74.5425 91.1686 74.3094 91.2463 73.9984 91.2463C73.6875 91.2463 73.4543 91.2463 73.2211 91.0909C72.988 91.0131 72.8325 90.9354 72.677 90.8577C72.677 90.6245 72.677 90.3913 72.677 90.1581C72.677 89.9249 72.677 89.6917 72.5993 89.4585C72.5993 89.4585 72.677 89.4585 72.7548 89.4585C72.8325 89.4585 72.8325 89.4585 72.8325 89.4585C72.8325 89.4585 72.8325 89.4585 72.8325 89.614C72.8325 89.8472 72.988 90.0026 72.988 90.1581C72.988 90.3136 73.1434 90.469 73.2211 90.5467C73.2989 90.6245 73.3766 90.7022 73.5321 90.7799C73.6875 90.7799 73.7652 90.7799 73.9207 90.7799C74.0762 90.7799 74.1539 90.7799 74.2316 90.7799C74.3093 90.7799 74.3871 90.7022 74.4648 90.5467C74.4648 90.469 74.5425 90.3913 74.6203 90.2358C74.698 90.0804 74.6203 90.0026 74.6203 89.9249C74.6203 89.6917 74.6203 89.4585 74.4648 89.3031C74.3093 89.1476 74.2316 89.0699 74.0762 88.9144C73.9207 88.8367 73.7652 88.759 73.5321 88.6812C73.2989 88.6035 73.1434 88.5258 72.988 88.3703C72.8325 88.2149 72.677 88.0594 72.5993 87.9039C72.5216 87.6708 72.4438 87.4376 72.4438 87.0489C72.4438 86.6603 72.4438 86.5825 72.5216 86.4271C72.5216 86.1939 72.677 86.0384 72.8325 85.883C72.988 85.7275 73.0657 85.6498 73.2989 85.4943C73.4543 85.4166 73.6875 85.3389 73.843 85.3389C73.9984 85.3389 74.2316 85.3389 74.3871 85.4166C74.5425 85.4943 74.7757 85.5721 75.0089 85.6498C75.0089 85.8053 75.0089 86.0384 75.0089 86.2716C75.0089 86.5048 75.0089 86.6603 75.0089 86.8935L75.3976 86.8157Z" fill="#0363FF"/>
</svg>
