<svg width="202" height="42" viewBox="0 0 202 42" fill="none" xmlns="http://www.w3.org/2000/svg">
<path d="M5.28545 4.35285V21.6088H0.543945V3.65328C0.543945 1.47686 1.94309 0 4.19724 0H21.6086V21.5311H16.8671V4.27512H13.447V21.5311H8.78327V4.27512H5.36318L5.28545 4.35285Z" fill="#0363FF"/>
<path d="M29.9256 0.0776367V21.6087H24.9509V0.0776367H29.9256Z" fill="#0363FF"/>
<path d="M33.1904 18.0331V3.73092C33.1904 1.55449 34.5896 0.0776367 36.8437 0.0776367H47.7259L44.5389 4.43049H38.2428V17.3336H46.6376V21.6864H36.9215C34.6673 21.6864 33.2682 20.2873 33.2682 18.1109L33.1904 18.0331Z" fill="#0363FF"/>
<path d="M49.2026 0.0776367H63.8158L60.6289 4.43049H54.0996V8.47242H61.0952V12.5144H54.0996V17.4113H62.6498V21.7642H49.2026V0.233093V0.0776367Z" fill="#0363FF"/>
<path d="M80.3722 12.8253H71.2778V3.73092C71.2778 1.55449 72.677 0.0776367 74.9311 0.0776367H86.2019L83.015 4.43049H76.2525V8.70561H85.3469V18.0331C85.3469 20.2096 83.9477 21.6087 81.6936 21.6087H71.2778V17.2559H80.3722V12.7475V12.8253Z" fill="#0363FF"/>
<path d="M88.2227 18.0331V3.73092C88.2227 1.55449 89.6218 0.0776367 91.8759 0.0776367H100.348C102.603 0.0776367 104.002 1.47676 104.002 3.73092V18.0331C104.002 20.2096 102.603 21.6087 100.348 21.6087H91.8759C89.6218 21.6087 88.2227 20.2096 88.2227 18.0331ZM99.1048 17.2559V4.35276H93.1196V17.2559H99.1048Z" fill="#0363FF"/>
<path d="M107.189 0.0776367H112.086V17.2559H121.18L117.915 21.6087H107.111V0.0776367H107.189Z" fill="#0363FF"/>
<path d="M122.579 17.9555V0H127.398V17.2559H133.383V0H138.203V21.5311H126.232C123.978 21.5311 122.579 20.1319 122.579 17.8778V17.9555Z" fill="#0363FF"/>
<path d="M140.224 4.43058V0H157.558L154.371 4.43058H150.562V21.6088H145.587V4.43058H140.224Z" fill="#0363FF"/>
<path d="M163.854 0.0776367V21.6087H158.879V0.0776367H163.854Z" fill="#0363FF"/>
<path d="M167.118 18.0331V3.73092C167.118 1.55449 168.517 0.0776367 170.771 0.0776367H179.244C181.498 0.0776367 182.897 1.47676 182.897 3.73092V18.0331C182.897 20.2096 181.498 21.6087 179.244 21.6087H170.771C168.517 21.6087 167.118 20.2096 167.118 18.0331ZM178 17.2559V4.35276H172.015V17.2559H178Z" fill="#0363FF"/>
<path d="M190.826 4.35285V21.6088H186.006V3.65328C186.006 1.47686 187.405 0 189.66 0H201.63V21.5311H196.811V4.27512H190.826V4.35285Z" fill="#0363FF"/>
<path d="M7.53976 34.2013L4.89696 38.865H4.1974L1.55459 34.3567V39.8755H0V31.2476H1.3214L4.50831 36.8441L7.61749 31.2476H8.93889V39.8755H7.3843V34.279L7.53976 34.2013Z" fill="#0363FF"/>
<path d="M12.4368 31.1699V39.7979H10.8044V31.1699H12.4368Z" fill="#0363FF"/>
<path d="M15.7791 39.3315C15.0795 38.9429 14.6132 38.3988 14.2245 37.7769C13.8359 37.0774 13.6804 36.3778 13.6804 35.5228C13.6804 34.6678 13.8359 33.8905 14.2245 33.2686C14.6132 32.569 15.1573 32.1027 15.7791 31.714C16.4787 31.3254 17.1782 31.1699 18.0333 31.1699C18.8883 31.1699 19.3547 31.3254 19.8988 31.5586C20.4429 31.7918 20.9093 32.1804 21.2979 32.6468L20.2097 33.6573C19.6656 32.9577 18.8883 32.6468 18.0333 32.6468C17.1782 32.6468 17.0228 32.8022 16.5564 33.0354C16.09 33.2686 15.7791 33.6573 15.5459 34.1236C15.3127 34.59 15.1573 35.0564 15.1573 35.6782C15.1573 36.3001 15.3127 36.7664 15.5459 37.2328C15.7791 37.6992 16.09 38.0101 16.5564 38.321C17.0228 38.5542 17.4892 38.7097 18.0333 38.7097C18.8883 38.7097 19.5879 38.3988 20.2097 37.6992L21.2979 38.7097C20.9093 39.1761 20.4429 39.5647 19.8988 39.7979C19.3547 40.0311 18.7328 40.1865 18.0333 40.1865C17.3337 40.1865 16.4787 40.0311 15.7791 39.6424V39.3315Z" fill="#0363FF"/>
<path d="M28.5267 39.7979H22.3083V31.1699H28.3713V32.5691H23.9407V34.7455H27.8271V36.0669H23.9407V38.321H28.5267V39.7202V39.7979Z" fill="#0363FF"/>
<path d="M31.2473 38.0879C31.4805 38.3211 31.5583 38.5542 31.5583 38.8652C31.5583 39.1761 31.5583 39.1761 31.5583 39.3315C31.5583 39.487 31.4805 39.7202 31.3251 39.9534L30.6255 41.7412H29.5373L30.0037 39.7979C29.8482 39.7979 29.6928 39.6425 29.5373 39.4093C29.4596 39.2538 29.3818 39.0206 29.3818 38.7874C29.3818 38.5542 29.4596 38.2433 29.6927 38.0101C29.9259 37.777 30.1591 37.6992 30.47 37.6992C30.781 37.6992 31.0141 37.777 31.2473 38.0101V38.0879Z" fill="#0363FF"/>
<path d="M36.9992 31.1699V39.7979H35.3669V31.1699H36.9992Z" fill="#0363FF"/>
<path d="M44.1505 33.8899C44.6169 34.3563 44.85 35.0558 44.85 36.0663V39.8751H43.2955V36.3772C43.2955 35.8331 43.14 35.3668 42.9068 35.1336C42.6736 34.8227 42.285 34.7449 41.8186 34.7449C41.3522 34.7449 40.8858 34.9004 40.5749 35.2113C40.264 35.5222 40.1085 35.9886 40.1085 36.6104V39.8751H38.554V33.2681H40.0308V34.2008C40.264 33.8899 40.5749 33.6567 40.9636 33.5013C41.3522 33.3458 41.7409 33.2681 42.2072 33.2681C42.9845 33.2681 43.6064 33.5013 44.0728 33.9676L44.1505 33.8899Z" fill="#0363FF"/>
<path d="M51.9232 33.8899C52.3896 34.3563 52.6228 35.0558 52.6228 36.0663V39.8751H51.0682V36.3772C51.0682 35.8331 50.9127 35.3668 50.6795 35.1336C50.4463 34.8227 50.0577 34.7449 49.5913 34.7449C49.1249 34.7449 48.6585 34.9004 48.3476 35.2113C48.0367 35.5222 47.8812 35.9886 47.8812 36.6104V39.8751H46.3267V33.2681H47.8035V34.2008C48.0367 33.8899 48.3476 33.6567 48.7363 33.5013C49.1249 33.3458 49.5136 33.2681 49.98 33.2681C50.7572 33.2681 51.3791 33.5013 51.8455 33.9676L51.9232 33.8899Z" fill="#0363FF"/>
<path d="M55.2657 39.4864C54.7216 39.1755 54.333 38.7869 54.022 38.3205C53.7111 37.7764 53.5557 37.2323 53.5557 36.6104C53.5557 35.9886 53.7111 35.3668 54.022 34.9004C54.333 34.3563 54.7216 33.9676 55.2657 33.7344C55.8098 33.4235 56.3539 33.2681 56.9758 33.2681C57.5976 33.2681 58.2194 33.4235 58.6858 33.7344C59.2299 34.0454 59.6186 34.434 59.8518 34.9004C60.1627 35.4445 60.3181 35.9886 60.3181 36.6104C60.3181 37.2323 60.1627 37.8541 59.8518 38.3205C59.5408 38.7869 59.1522 39.2532 58.6858 39.4864C58.1417 39.7973 57.5976 39.9528 56.9758 39.9528C56.3539 39.9528 55.7321 39.7973 55.2657 39.4864ZM58.2972 37.9318C58.6081 37.5432 58.7635 37.0768 58.7635 36.455C58.7635 35.8331 58.6081 35.3668 58.2972 34.9781C57.9862 34.5895 57.5199 34.434 57.0535 34.434C56.5871 34.434 56.1207 34.5895 55.8098 34.9781C55.4989 35.3668 55.3434 35.8331 55.3434 36.455C55.3434 37.0768 55.4989 37.5432 55.8098 37.9318C56.1207 38.3205 56.5871 38.4759 57.0535 38.4759C57.5199 38.4759 57.9862 38.3205 58.2972 37.9318Z" fill="#0363FF"/>
<path d="M64.7488 39.7974H63.1164L60.4736 33.1904H62.106L63.9715 37.9319L65.9147 33.1904H67.4693L64.8265 39.7974H64.7488Z" fill="#0363FF"/>
<path d="M72.6771 33.8126C73.1435 34.279 73.4544 34.9786 73.4544 35.9113V39.7201H71.9775V38.7873C71.8221 39.0982 71.5889 39.3314 71.2002 39.4869C70.8116 39.6423 70.5007 39.7201 70.0343 39.7201C69.3347 39.7201 68.7906 39.5646 68.3242 39.176C67.9356 38.7873 67.7024 38.3209 67.7024 37.7768C67.7024 37.2327 67.9356 36.6886 68.3242 36.3777C68.7129 36.0668 69.4125 35.8336 70.2675 35.8336H71.8221C71.8221 35.5227 71.8221 35.3672 71.6666 35.134C71.5111 34.5899 71.0448 34.279 70.2675 34.279C69.4902 34.279 69.5679 34.279 69.257 34.4345C68.9461 34.5899 68.6352 34.7454 68.402 34.9009L67.8579 33.7349C68.1688 33.5017 68.6352 33.2685 69.1015 33.1131C69.5679 32.9576 70.0343 32.8799 70.5784 32.8799C71.5111 32.8799 72.2107 33.1131 72.7548 33.5795L72.6771 33.8126ZM71.278 38.4764C71.5111 38.3209 71.7443 38.0878 71.8221 37.6991V36.9218H70.4229C69.5679 36.9218 69.1793 37.2327 69.1793 37.7768C69.1793 38.3209 69.257 38.2432 69.4902 38.4764C69.7234 38.6319 69.9566 38.7096 70.3452 38.7096C70.7339 38.7096 70.967 38.6319 71.278 38.4764Z" fill="#0363FF"/>
<path d="M78.1959 39.7977C77.9627 39.7977 77.6518 39.8755 77.4186 39.8755C76.719 39.8755 76.1749 39.72 75.7863 39.3314C75.3976 38.9427 75.2422 38.3986 75.2422 37.6213V34.5899H74.2317V33.2685H75.2422V31.7139H76.7968V33.2685H78.4291V34.5899H76.7968V37.5436C76.7968 37.8545 76.7967 38.0877 77.0299 38.2431C77.1854 38.3986 77.4186 38.4763 77.6518 38.4763C77.885 38.4763 78.1959 38.3986 78.4291 38.2431L78.8955 39.4091C78.74 39.5645 78.5068 39.6423 78.2736 39.72L78.1959 39.7977Z" fill="#0363FF"/>
<path d="M79.7504 31.8692C79.5949 31.7138 79.4395 31.4806 79.4395 31.1697C79.4395 30.8587 79.5172 30.7033 79.7504 30.4701C79.9058 30.3146 80.2168 30.1592 80.45 30.1592C80.6831 30.1592 80.9941 30.2369 81.1495 30.3924C81.305 30.5478 81.4604 30.781 81.4604 31.0142C81.4604 31.2474 81.3827 31.5583 81.1495 31.7138C80.9163 31.8692 80.6831 32.0247 80.45 32.0247C80.2168 32.0247 79.9058 31.947 79.7504 31.7138V31.8692ZM81.305 33.1906V39.7976H79.6727V33.1906H81.305Z" fill="#0363FF"/>
<path d="M86.2021 39.7974H84.5698L81.927 33.1904H83.5593L85.4248 37.9319L87.3681 33.1904H88.9227L86.2799 39.7974H86.2021Z" fill="#0363FF"/>
<path d="M95.4519 36.9992H90.6326C90.6326 37.4655 90.9436 37.8542 91.2545 38.1651C91.6431 38.476 92.0318 38.5538 92.5759 38.5538C93.12 38.5538 93.8196 38.3206 94.2082 37.8542L95.0632 38.7869C94.4414 39.4865 93.5864 39.8752 92.4982 39.8752C91.41 39.8752 91.1767 39.7197 90.6326 39.4088C90.0885 39.0979 89.6999 38.7092 89.389 38.2428C89.0781 37.6987 88.9226 37.1546 88.9226 36.5328C88.9226 35.911 89.0781 35.2891 89.3113 34.8227C89.6222 34.2786 90.0108 33.89 90.4772 33.6568C90.9436 33.3459 91.5654 33.1904 92.1872 33.1904C92.8091 33.1904 93.3532 33.3459 93.8196 33.5791C94.2859 33.89 94.6746 34.2786 94.9855 34.745C95.2964 35.2891 95.3741 35.8332 95.3741 36.5328C95.3741 37.2324 95.3741 36.6883 95.3741 36.9992H95.4519ZM91.099 34.8227C90.7881 35.1337 90.6327 35.5223 90.5549 35.9887H93.975C93.975 35.5223 93.7418 35.1337 93.4309 34.8227C93.12 34.5118 92.7313 34.3564 92.265 34.3564C91.7986 34.3564 91.4099 34.5118 91.099 34.8227Z" fill="#0363FF"/>
<path d="M99.8047 39.6423C99.1828 39.4868 98.7164 39.1759 98.4055 38.865L98.9496 37.5436C99.2606 37.8545 99.7269 38.01 100.193 38.2432C100.66 38.3986 101.204 38.4764 101.67 38.4764C102.137 38.4764 102.681 38.3986 102.992 38.1655C103.302 37.9323 103.458 37.6991 103.458 37.3882C103.458 37.0772 103.38 36.9218 103.225 36.7663C103.069 36.6109 102.836 36.5331 102.603 36.3777C102.37 36.2999 101.981 36.2222 101.515 36.0668C100.893 35.9113 100.426 35.7558 100.038 35.6004C99.6492 35.4449 99.3383 35.2117 99.0274 34.8231C98.7164 34.5122 98.6387 34.0458 98.6387 33.5017C98.6387 32.9576 98.7942 32.5689 99.0274 32.1803C99.2606 31.7916 99.6492 31.4807 100.116 31.2475C100.582 31.0143 101.204 30.8589 101.981 30.8589C102.758 30.8589 102.992 30.8589 103.458 31.0921C103.924 31.3253 104.391 31.403 104.702 31.6362L104.158 32.9576C103.769 32.7244 103.458 32.5689 103.069 32.4135C102.681 32.3357 102.292 32.258 101.903 32.258C101.359 32.258 100.893 32.3357 100.66 32.5689C100.349 32.8021 100.271 33.0353 100.271 33.3462C100.271 33.6571 100.349 33.8126 100.504 33.9681C100.66 34.1235 100.893 34.2013 101.126 34.3567C101.359 34.4344 101.748 34.5122 102.137 34.6676C102.758 34.8231 103.302 34.9785 103.691 35.134C104.08 35.2895 104.391 35.5226 104.702 35.8336C105.013 36.1445 105.09 36.6109 105.09 37.155C105.09 37.6991 104.935 38.0877 104.702 38.4764C104.468 38.865 104.08 39.1759 103.536 39.4091C102.992 39.6423 102.37 39.7978 101.67 39.7978C100.971 39.7978 100.426 39.72 99.8047 39.4868V39.6423Z" fill="#0363FF"/>
<path d="M111.93 36.9992H107.111C107.111 37.4655 107.422 37.8542 107.733 38.1651C108.122 38.476 108.51 38.5538 109.054 38.5538C109.599 38.5538 110.298 38.3206 110.687 37.8542L111.542 38.7869C110.92 39.4865 110.065 39.8752 108.977 39.8752C107.888 39.8752 107.655 39.7197 107.111 39.4088C106.567 39.0979 106.178 38.7092 105.868 38.2428C105.557 37.6987 105.401 37.1546 105.401 36.5328C105.401 35.911 105.557 35.2891 105.79 34.8227C106.101 34.2786 106.489 33.89 106.956 33.6568C107.422 33.3459 108.044 33.1904 108.666 33.1904C109.288 33.1904 109.832 33.3459 110.298 33.5791C110.764 33.89 111.153 34.2786 111.464 34.745C111.775 35.2891 111.853 35.8332 111.853 36.5328C111.853 37.2324 111.853 36.6883 111.853 36.9992H111.93ZM107.655 34.8227C107.344 35.1337 107.189 35.5223 107.111 35.9887H110.531C110.531 35.5223 110.298 35.1337 109.987 34.8227C109.676 34.5118 109.288 34.3564 108.821 34.3564C108.355 34.3564 107.966 34.5118 107.655 34.8227Z" fill="#0363FF"/>
<path d="M115.428 33.4236C115.817 33.2681 116.206 33.1904 116.75 33.1904V34.745C116.672 34.745 116.516 34.745 116.361 34.745C115.817 34.745 115.351 34.9005 115.04 35.2114C114.729 35.5223 114.573 36.0664 114.573 36.6883V39.8752H112.941V33.2682H114.496V34.2786C114.729 33.89 114.962 33.6568 115.351 33.5013L115.428 33.4236Z" fill="#0363FF"/>
<path d="M121.103 39.7974H119.47L116.827 33.1904H118.46L120.325 37.9319L122.268 33.1904H123.823L121.18 39.7974H121.103Z" fill="#0363FF"/>
<path d="M124.445 31.8692C124.289 31.7138 124.134 31.4806 124.134 31.1697C124.134 30.8587 124.212 30.7033 124.445 30.4701C124.6 30.3146 124.911 30.1592 125.145 30.1592C125.378 30.1592 125.689 30.2369 125.844 30.3924C126 30.5478 126.155 30.781 126.155 31.0142C126.155 31.2474 126.077 31.5583 125.844 31.7138C125.689 31.8692 125.378 32.0247 125.145 32.0247C124.911 32.0247 124.6 31.947 124.445 31.7138V31.8692ZM126 33.1906V39.7976H124.367V33.1906H126Z" fill="#0363FF"/>
<path d="M128.72 39.4864C128.176 39.1755 127.787 38.7869 127.476 38.3205C127.165 37.7764 127.01 37.2323 127.01 36.6104C127.01 35.9886 127.165 35.3668 127.476 34.9004C127.787 34.3563 128.176 33.9676 128.72 33.7344C129.264 33.4235 129.808 33.2681 130.508 33.2681C131.207 33.2681 131.674 33.4235 132.14 33.6567C132.607 33.9676 132.995 34.3563 133.228 34.8227L131.985 35.5222C131.674 34.9004 131.13 34.5895 130.508 34.5895C129.886 34.5895 129.575 34.7449 129.186 35.1336C128.876 35.5222 128.642 35.9886 128.642 36.6104C128.642 37.2323 128.798 37.6986 129.186 38.0873C129.497 38.4759 129.964 38.6314 130.508 38.6314C131.052 38.6314 131.674 38.3205 131.985 37.6986L133.228 38.3982C132.995 38.8646 132.607 39.2532 132.14 39.5642C131.674 39.8751 131.13 39.9528 130.508 39.9528C129.886 39.9528 129.264 39.7973 128.72 39.4864Z" fill="#0363FF"/>
<path d="M140.069 36.9992H135.249C135.249 37.4655 135.56 37.8542 135.871 38.1651C136.26 38.476 136.648 38.5538 137.193 38.5538C137.737 38.5538 138.436 38.3206 138.825 37.8542L139.68 38.7869C139.058 39.4865 138.203 39.8752 137.115 39.8752C136.027 39.8752 135.793 39.7197 135.249 39.4088C134.705 39.0979 134.317 38.7092 134.006 38.2428C133.695 37.6987 133.539 37.1546 133.539 36.5328C133.539 35.911 133.695 35.2891 133.928 34.8227C134.239 34.2786 134.628 33.89 135.094 33.6568C135.56 33.3459 136.182 33.1904 136.804 33.1904C137.426 33.1904 137.97 33.3459 138.436 33.5791C138.903 33.89 139.291 34.2786 139.602 34.745C139.913 35.2891 139.991 35.8332 139.991 36.5328C139.991 37.2324 139.991 36.6883 139.991 36.9992H140.069ZM135.793 34.8227C135.483 35.1337 135.327 35.5223 135.249 35.9887H138.669C138.669 35.5223 138.436 35.1337 138.125 34.8227C137.814 34.5118 137.426 34.3564 136.959 34.3564C136.493 34.3564 136.104 34.5118 135.793 34.8227Z" fill="#0363FF"/>
<path d="M148.075 39.642C147.608 39.7975 147.064 39.8752 146.52 39.8752C145.976 39.8752 145.354 39.7975 144.888 39.5643C144.421 39.3311 144.033 39.0979 143.722 38.7093C143.411 38.3206 143.333 37.932 143.333 37.5433C143.333 37.1547 143.489 36.5329 143.8 36.1442C144.111 35.7556 144.577 35.3669 145.276 34.9783C144.966 34.6674 144.732 34.2787 144.577 34.0455C144.421 33.8123 144.344 33.4237 144.344 33.1128C144.344 32.4909 144.577 32.0246 145.043 31.6359C145.51 31.2473 146.132 31.0918 146.909 31.0918C147.686 31.0918 148.23 31.2473 148.619 31.6359C149.007 32.0246 149.241 32.4132 149.241 33.035C149.241 33.6569 149.085 33.8901 148.852 34.201C148.541 34.5119 148.152 34.9005 147.531 35.2115L149.318 36.9215C149.552 36.5329 149.707 36.0665 149.785 35.5224L151.106 35.911C150.951 36.6883 150.718 37.3102 150.329 37.8543L151.417 38.8647L150.484 39.953L149.396 38.9425C149.007 39.2534 148.541 39.4866 148.075 39.7198V39.642ZM148.386 38.0097L146.209 35.911C145.743 36.1442 145.432 36.4551 145.276 36.6883C145.121 36.9215 144.966 37.1547 144.966 37.4656C144.966 37.7765 145.121 38.0875 145.432 38.3206C145.743 38.5538 146.132 38.6316 146.676 38.6316C147.22 38.6316 147.919 38.3984 148.463 38.0097H148.386ZM146.132 32.4909C145.976 32.6464 145.821 32.8796 145.821 33.1128C145.821 33.346 145.821 33.5014 145.976 33.6569C146.054 33.8123 146.287 34.0455 146.598 34.3564C147.064 34.1233 147.375 33.8901 147.608 33.6569C147.842 33.4237 147.919 33.2682 147.919 33.035C147.919 32.8018 147.842 32.5687 147.686 32.4132C147.531 32.2577 147.297 32.18 146.987 32.18C146.676 32.18 146.365 32.2577 146.209 32.4132L146.132 32.4909Z" fill="#0363FF"/>
<path d="M155.692 39.6423C155.07 39.4868 154.604 39.1759 154.293 38.865L154.837 37.5436C155.148 37.8545 155.614 38.01 156.081 38.2432C156.547 38.3986 157.091 38.4764 157.558 38.4764C158.024 38.4764 158.568 38.3986 158.879 38.1655C159.19 37.9323 159.345 37.6991 159.345 37.3882C159.345 37.0772 159.268 36.9218 159.112 36.7663C158.957 36.6109 158.724 36.5331 158.49 36.3777C158.257 36.2999 157.869 36.2222 157.402 36.0668C156.78 35.9113 156.314 35.7558 155.925 35.6004C155.537 35.4449 155.226 35.2117 154.915 34.8231C154.604 34.5122 154.526 34.0458 154.526 33.5017C154.526 32.9576 154.682 32.5689 154.915 32.1803C155.148 31.7916 155.537 31.4807 156.003 31.2475C156.469 31.0143 157.091 30.8589 157.869 30.8589C158.646 30.8589 158.879 30.8589 159.345 31.0921C159.812 31.3253 160.278 31.403 160.589 31.6362L160.045 32.9576C159.656 32.7244 159.345 32.5689 158.957 32.4135C158.568 32.3357 158.179 32.258 157.791 32.258C157.247 32.258 156.78 32.3357 156.547 32.5689C156.236 32.8021 156.158 33.0353 156.158 33.3462C156.158 33.6571 156.236 33.8126 156.392 33.9681C156.547 34.1235 156.78 34.2013 157.014 34.3567C157.247 34.4344 157.635 34.5122 158.024 34.6676C158.646 34.8231 159.19 34.9785 159.579 35.134C159.967 35.2895 160.278 35.5226 160.589 35.8336C160.9 36.1445 160.978 36.6109 160.978 37.155C160.978 37.6991 160.822 38.0877 160.589 38.4764C160.356 38.865 159.967 39.1759 159.423 39.4091C158.879 39.6423 158.257 39.7978 157.558 39.7978C156.858 39.7978 156.314 39.72 155.692 39.4868V39.6423Z" fill="#0363FF"/>
<path d="M163.077 39.4864C162.532 39.1755 162.144 38.7869 161.833 38.3205C161.522 37.8541 161.366 37.2323 161.366 36.6104C161.366 35.9886 161.522 35.3668 161.833 34.9004C162.144 34.3563 162.532 33.9676 163.077 33.7344C163.621 33.4235 164.165 33.2681 164.787 33.2681C165.408 33.2681 166.03 33.4235 166.497 33.7344C167.041 34.0454 167.429 34.434 167.663 34.9004C167.973 35.4445 168.129 35.9886 168.129 36.6104C168.129 37.2323 167.973 37.8541 167.663 38.3205C167.352 38.7869 166.963 39.2532 166.497 39.4864C165.952 39.7973 165.408 39.9528 164.787 39.9528C164.165 39.9528 163.543 39.7973 163.077 39.4864ZM166.03 37.9318C166.341 37.5432 166.497 37.0768 166.497 36.455C166.497 35.8331 166.341 35.3668 166.03 34.9781C165.719 34.5895 165.253 34.434 164.787 34.434C164.32 34.434 163.854 34.5895 163.543 34.9781C163.232 35.3668 163.077 35.8331 163.077 36.455C163.077 37.0768 163.232 37.5432 163.543 37.9318C163.854 38.3205 164.32 38.4759 164.787 38.4759C165.253 38.4759 165.719 38.3205 166.03 37.9318Z" fill="#0363FF"/>
<path d="M170.849 30.7036V39.798H169.217V30.7036H170.849Z" fill="#0363FF"/>
<path d="M178.545 39.7974H177.068V38.8647C176.835 39.1756 176.524 39.4088 176.213 39.5642C175.902 39.7197 175.513 39.7974 175.047 39.7974C174.192 39.7974 173.57 39.5642 173.104 39.0979C172.637 38.6315 172.404 37.8542 172.404 36.9214V33.1904H173.959V36.6883C173.959 37.2324 174.114 37.6987 174.347 38.0097C174.58 38.3206 174.969 38.476 175.358 38.476C175.746 38.476 176.213 38.3206 176.524 38.0097C176.835 37.6987 176.99 37.2324 176.99 36.6105V33.3459H178.545V39.9529V39.7974Z" fill="#0363FF"/>
<path d="M183.364 39.7977C183.131 39.7977 182.82 39.8755 182.587 39.8755C181.887 39.8755 181.343 39.72 180.954 39.3314C180.566 38.9427 180.41 38.3986 180.41 37.6213V34.5899H179.4V33.2685H180.41V31.7139H181.965V33.2685H183.597V34.5899H181.965V37.5436C181.965 37.8545 181.965 38.0877 182.198 38.2431C182.353 38.3986 182.587 38.4763 182.82 38.4763C183.053 38.4763 183.364 38.3986 183.597 38.2431L184.063 39.4091C183.908 39.5645 183.675 39.6423 183.442 39.72L183.364 39.7977Z" fill="#0363FF"/>
<path d="M184.996 31.8692C184.841 31.7138 184.685 31.4806 184.685 31.1697C184.685 30.8587 184.763 30.7033 184.996 30.4701C185.152 30.3146 185.463 30.1592 185.696 30.1592C185.929 30.1592 186.24 30.2369 186.395 30.3924C186.551 30.5478 186.706 30.781 186.706 31.0142C186.706 31.2474 186.629 31.5583 186.395 31.7138C186.24 31.8692 185.929 32.0247 185.696 32.0247C185.463 32.0247 185.152 31.947 184.996 31.7138V31.8692ZM186.473 33.1906V39.7976H184.841V33.1906H186.473Z" fill="#0363FF"/>
<path d="M189.193 39.4864C188.649 39.1755 188.261 38.7869 187.95 38.3205C187.639 37.8541 187.483 37.2323 187.483 36.6104C187.483 35.9886 187.639 35.3668 187.95 34.9004C188.261 34.3563 188.649 33.9676 189.193 33.7344C189.738 33.4235 190.282 33.2681 190.903 33.2681C191.525 33.2681 192.147 33.4235 192.614 33.7344C193.158 34.0454 193.546 34.434 193.779 34.9004C194.09 35.4445 194.246 35.9886 194.246 36.6104C194.246 37.2323 194.09 37.8541 193.779 38.3205C193.469 38.7869 193.08 39.2532 192.614 39.4864C192.069 39.7973 191.525 39.9528 190.903 39.9528C190.282 39.9528 189.66 39.7973 189.193 39.4864ZM192.225 37.9318C192.536 37.5432 192.691 37.0768 192.691 36.455C192.691 35.8331 192.536 35.3668 192.225 34.9781C191.914 34.5895 191.448 34.434 190.981 34.434C190.515 34.434 190.048 34.5895 189.738 34.9781C189.427 35.3668 189.271 35.8331 189.271 36.455C189.271 37.0768 189.427 37.5432 189.738 37.9318C190.048 38.3205 190.515 38.4759 190.981 38.4759C191.448 38.4759 191.914 38.3205 192.225 37.9318Z" fill="#0363FF"/>
<path d="M200.931 33.8899C201.397 34.3563 201.63 35.0558 201.63 36.0663V39.8751H200.076V36.3772C200.076 35.8331 199.92 35.3668 199.687 35.1336C199.454 34.8227 199.065 34.7449 198.599 34.7449C198.132 34.7449 197.666 34.9004 197.355 35.2113C197.044 35.5222 196.889 35.9886 196.889 36.6104V39.8751H195.334V33.2681H196.811V34.2008C197.044 33.8899 197.355 33.6567 197.744 33.5013C198.132 33.3458 198.521 33.2681 198.988 33.2681C199.765 33.2681 200.387 33.5013 200.853 33.9676L200.931 33.8899Z" fill="#0363FF"/>
</svg>
