<svg width="18" height="19" viewBox="0 0 18 19" fill="none" xmlns="http://www.w3.org/2000/svg">
<path d="M11.7824 10.0325C12.5177 9.45397 13.0544 8.66066 13.3178 7.76293C13.5812 6.86519 13.5583 5.90767 13.2522 5.02357C12.9461 4.13947 12.3721 3.37277 11.6099 2.83011C10.8478 2.28746 9.93546 1.99585 8.99988 1.99585C8.06429 1.99585 7.15196 2.28746 6.38982 2.83011C5.62768 3.37277 5.05363 4.13947 4.74753 5.02357C4.44144 5.90767 4.41851 6.86519 4.68195 7.76293C4.94538 8.66066 5.48208 9.45397 6.21738 10.0325C4.95743 10.5373 3.85809 11.3745 3.03654 12.4549C2.215 13.5353 1.70205 14.8184 1.55238 16.1675C1.54154 16.266 1.55021 16.3656 1.57789 16.4608C1.60558 16.5559 1.65173 16.6447 1.71371 16.722C1.83889 16.8781 2.02096 16.9781 2.21988 17C2.41879 17.0219 2.61825 16.9638 2.77437 16.8386C2.93049 16.7135 3.0305 16.5314 3.05238 16.3325C3.21706 14.8664 3.91614 13.5123 5.01604 12.5291C6.11594 11.5458 7.53955 11.0022 9.01488 11.0022C10.4902 11.0022 11.9138 11.5458 13.0137 12.5291C14.1136 13.5123 14.8127 14.8664 14.9774 16.3325C14.9978 16.5168 15.0857 16.687 15.2242 16.8102C15.3627 16.9335 15.542 17.0011 15.7274 17H15.8099C16.0065 16.9773 16.1862 16.8779 16.3098 16.7234C16.4334 16.5689 16.491 16.3717 16.4699 16.175C16.3195 14.8221 15.8038 13.5357 14.978 12.4536C14.1522 11.3715 13.0476 10.5346 11.7824 10.0325V10.0325ZM8.99988 9.49997C8.40653 9.49997 7.82651 9.32402 7.33317 8.99438C6.83982 8.66474 6.4553 8.1962 6.22824 7.64802C6.00117 7.09984 5.94176 6.49664 6.05752 5.9147C6.17327 5.33276 6.459 4.79821 6.87855 4.37865C7.29811 3.95909 7.83266 3.67337 8.4146 3.55762C8.99655 3.44186 9.59975 3.50127 10.1479 3.72833C10.6961 3.9554 11.1646 4.33991 11.4943 4.83326C11.8239 5.32661 11.9999 5.90663 11.9999 6.49997C11.9999 7.29562 11.6838 8.05868 11.1212 8.62129C10.5586 9.1839 9.79553 9.49997 8.99988 9.49997Z" fill="#0363FF"/>
</svg>
